<svg width="157" height="156" viewBox="0 0 157 156" fill="none" xmlns="http://www.w3.org/2000/svg">
<rect x="0.5" width="156" height="156" rx="6" fill="#F7F8FA"/>
<path d="M72.9787 80H54.4987C53.032 80 51.832 81.2 51.832 82.6667V89.1733C51.832 97.7333 58.7654 104.667 67.3254 104.667H71.8587C73.912 104.667 75.1654 102.48 74.1787 100.667C72.072 96.7467 71.2454 92.0267 72.2854 87.0667C72.6587 85.2533 73.2987 83.5467 74.152 81.9467C74.6054 81.0667 73.992 80 72.9787 80ZM64.4987 94C64.4987 95.0933 63.592 96 62.4987 96C61.4054 96 60.4987 95.0933 60.4987 94V88.6667C60.4987 87.5733 61.4054 86.6667 62.4987 86.6667C63.592 86.6667 64.4987 87.5733 64.4987 88.6667V94Z" fill="#CC2127"/>
<path d="M89.672 51.3333H67.3254C58.7654 51.3333 51.832 58.2666 51.832 66.8266V73.3333C51.832 74.7999 53.032 75.9999 54.4987 75.9999H78.072C78.6587 75.9999 79.2187 75.7866 79.6987 75.4132C81.992 73.6532 84.6854 72.3733 87.5654 71.7866C92.5254 70.7466 97.2454 71.5733 101.165 73.6799C102.979 74.6399 105.165 73.4133 105.165 71.3599V66.8266C105.165 58.2666 98.232 51.3333 89.672 51.3333ZM64.4987 67.9999C64.4987 69.0933 63.592 69.9999 62.4987 69.9999C61.4054 69.9999 60.4987 69.0933 60.4987 67.9999V62.6666C60.4987 61.5733 61.4054 60.6666 62.4987 60.6666C63.592 60.6666 64.4987 61.5733 64.4987 62.6666V67.9999ZM75.1654 67.9999C75.1654 69.0933 74.2587 69.9999 73.1654 69.9999C72.072 69.9999 71.1654 69.0933 71.1654 67.9999V62.6666C71.1654 61.5733 72.072 60.6666 73.1654 60.6666C74.2587 60.6666 75.1654 61.5733 75.1654 62.6666V67.9999ZM94.4987 67.3333H83.832C82.7387 67.3333 81.832 66.4266 81.832 65.3333C81.832 64.2399 82.7387 63.3333 83.832 63.3333H94.4987C95.592 63.3333 96.4987 64.2399 96.4987 65.3333C96.4987 66.4266 95.592 67.3333 94.4987 67.3333Z" fill="#CC2127"/>
<path d="M91.832 75.3333C83.0054 75.3333 75.832 82.5066 75.832 91.3333C75.832 100.16 83.0054 107.333 91.832 107.333C100.659 107.333 107.832 100.16 107.832 91.3333C107.832 82.5066 100.659 75.3333 91.832 75.3333ZM99.6454 94.5333C99.2187 95.5733 98.6054 96.5066 97.8054 97.3066C96.2054 98.9066 94.0987 99.7866 91.832 99.7866C90.0187 99.7866 88.312 99.1999 86.872 98.1332V98.5066C86.872 99.3333 86.2054 100.027 85.352 100.027C84.4987 99.9999 83.832 99.3333 83.832 98.4799V94.6399C83.832 93.8132 84.4987 93.1199 85.352 93.1199H89.192C90.0187 93.1199 90.712 93.7866 90.712 94.6399C90.712 95.4132 90.152 95.9999 89.4054 96.1066C91.432 97.0933 94.0187 96.7733 95.6454 95.1466C96.152 94.6399 96.552 94.0266 96.8187 93.3599C97.1387 92.5866 98.0187 92.2133 98.792 92.5333C99.592 92.8533 99.9654 93.7599 99.6454 94.5333ZM99.832 88.0266C99.832 88.8533 99.1654 89.5466 98.312 89.5466H94.472C93.6454 89.5466 92.952 88.8799 92.952 88.0266C92.952 87.2533 93.512 86.6666 94.2587 86.5599C92.232 85.5733 89.6454 85.8933 87.992 87.5199C87.5387 87.9733 87.192 88.4799 86.9254 89.0399C86.6587 89.5999 86.1254 89.9199 85.5654 89.9199C85.352 89.9199 85.1387 89.8666 84.9254 89.7866C84.1787 89.4399 83.832 88.5333 84.2054 87.7599C84.632 86.8799 85.192 86.0799 85.8587 85.3866C87.4587 83.7866 89.5654 82.9066 91.832 82.9066C93.6454 82.9066 95.352 83.4933 96.792 84.5599V84.2133C96.792 83.3866 97.4587 82.6933 98.312 82.6933C99.1654 82.6933 99.832 83.3333 99.832 84.1866V88.0266Z" fill="#CC2127"/>
</svg>
