<svg width="24" height="24" viewBox="0 0 24 24" fill="none" xmlns="http://www.w3.org/2000/svg">
<g clip-path="url(#clip0_203_11558)">
<path d="M15.6059 13.6328L13.8556 11.8825C13.1358 11.1627 13.5756 10.4029 14.36 10.3568C15.652 10.2768 16.378 8.89873 15.3229 7.75134C14.1755 6.69931 12.8035 7.4222 12.7236 8.71108C12.6743 9.49549 11.9084 9.93845 11.1917 9.22172L9.47827 7.50833C8.96456 6.99462 8.13093 6.99462 7.61722 7.50833L5.8823 9.24325C5.16249 9.96306 4.39962 9.51702 4.3504 8.73262C4.27042 7.44065 2.88618 6.70547 1.73879 7.76057C0.680613 8.91103 1.4158 10.2953 2.70776 10.3753C3.49217 10.4245 3.93821 11.1904 3.22147 11.9102L1.4927 13.6359C0.978995 14.1496 0.978995 14.9833 1.4927 15.497L3.20609 17.2104C3.9259 17.9271 3.49832 18.6746 2.71392 18.7238C1.42195 18.8038 0.699069 20.1788 1.75417 21.3262C2.90156 22.3813 4.27042 21.6615 4.3504 20.3695C4.39962 19.5851 5.15019 19.1545 5.87 19.8712L7.59877 21.6C8.1217 22.1229 8.97686 22.1229 9.4998 21.603L10.7118 20.391L11.2316 19.8712C11.9115 19.1606 11.4716 18.4131 10.6964 18.3639C9.40444 18.2839 8.67233 16.8997 9.72743 15.7523C10.8748 14.6972 12.2591 15.4324 12.339 16.7243C12.3883 17.4995 13.1327 17.9363 13.8433 17.2565L14.3139 16.7859L15.5813 15.5185C15.5843 15.5154 15.5843 15.5154 15.5874 15.5123L15.6059 15.4939C16.1196 14.9802 16.1196 14.1466 15.6059 13.6328Z" fill="#162C42"/>
</g>
<g clip-path="url(#clip1_203_11558)">
<path d="M21.2298 12.0463L19.9922 9.90264C19.4832 9.02106 20.1047 8.401 20.8744 8.55945C22.143 8.81659 23.2009 7.67334 22.4787 6.29197C21.6427 4.97883 20.1304 5.32199 19.7196 6.54626C19.469 7.2912 18.6145 7.52083 18.1077 6.64301L16.8962 4.54455C16.5329 3.91538 15.7277 3.69963 15.0985 4.06287L12.9737 5.28965C12.0921 5.79863 11.4707 5.17035 11.6262 4.39993C11.8833 3.13129 10.7365 2.06288 9.35513 2.78507C8.03525 3.62245 8.38712 5.14981 9.61436 5.56145C10.3593 5.81201 10.5919 6.6673 9.71328 7.17708L7.59678 8.39653C6.96761 8.75978 6.75185 9.565 7.1151 10.1942L8.32665 12.2926C8.83643 13.1712 8.22995 13.7826 7.45954 13.6271C6.1909 13.37 5.13676 14.5111 5.85895 15.8924C6.69416 17.2085 8.20268 16.8675 8.61432 15.6403C8.86488 14.8954 9.70133 14.6737 10.2111 15.5523L11.4335 17.6696C11.8033 18.31 12.6293 18.5314 13.269 18.1646L14.7534 17.3076L15.3901 16.94C16.2306 16.4295 15.9992 15.5937 15.2632 15.3455C14.0359 14.9339 13.687 13.4073 15.0032 12.5721C16.3845 11.8499 17.5313 12.9183 17.2742 14.1869C17.1211 14.9484 17.7271 15.563 18.5894 15.0903L19.1658 14.7575L20.718 13.8613C20.7218 13.8592 20.7218 13.8592 20.7256 13.857L20.7482 13.8439C21.3773 13.4807 21.5931 12.6755 21.2298 12.0463Z" fill="#0B1621"/>
</g>
<defs>
<clipPath id="clip0_203_11558">
<rect width="14.8837" height="14.8837" fill="white" transform="translate(1.10742 7.11621)"/>
</clipPath>
<clipPath id="clip1_203_11558">
<rect width="14.8837" height="14.8837" fill="white" transform="translate(8.91211 1.99902) rotate(15)"/>
</clipPath>
</defs>
</svg>
