<svg width="157" height="156" viewBox="0 0 157 156" fill="none" xmlns="http://www.w3.org/2000/svg">
<rect x="0.5" width="156" height="156" rx="6" fill="#F7F8FA"/>
<path d="M75.8587 99.3867C89.1283 99.3867 99.8854 88.6296 99.8854 75.36C99.8854 62.0905 89.1283 51.3334 75.8587 51.3334C62.5891 51.3334 51.832 62.0905 51.832 75.36C51.832 88.6296 62.5891 99.3867 75.8587 99.3867Z" fill="#CC2127"/>
<path d="M105.141 96.5333C104.261 94.9067 102.395 94 99.8881 94C97.9948 94 96.3681 94.7733 95.4081 96.1067C94.4481 97.44 94.2348 99.2267 94.8214 101.013C95.9681 104.48 97.9681 105.253 99.0614 105.387C99.2214 105.413 99.3814 105.413 99.5681 105.413C100.741 105.413 102.555 104.907 104.315 102.267C105.728 100.213 105.995 98.16 105.141 96.5333Z" fill="#CC2127"/>
</svg>
