<svg width="64" height="64" viewBox="0 0 64 64" fill="none" xmlns="http://www.w3.org/2000/svg">
<rect opacity="0.05" x="12" y="12" width="52" height="52" rx="6" fill="white"/>
<rect width="52" height="52" rx="6" fill="#232D37"/>
<path d="M38 31.3508C37.3437 32.8454 37.0298 33.5137 36.1868 34.8344C35.0092 36.6789 33.3464 38.9806 31.2906 38.9964C29.4621 39.0122 28.9901 37.7694 26.5086 37.7897C24.027 37.8021 23.51 39.019 21.6793 38.9998C19.6236 38.9806 18.0497 36.9069 16.8709 35.0658C13.5749 29.9014 13.227 23.8486 15.2641 20.6281C16.7052 18.3444 18.9859 17.0034 21.1272 17.0034C23.3081 17.0034 24.6789 18.2361 26.4822 18.2361C28.2317 18.2361 29.2975 17 31.8197 17C33.7272 17 35.7445 18.069 37.1856 19.9135C32.4705 22.5708 33.2366 29.4973 38 31.3508Z" fill="#CC2127"/>
<path d="M31.9458 10C32.2077 11.7652 31.4858 13.4961 30.5339 14.7228C29.516 16.0387 27.7625 17.0528 26.0683 16.9979C25.7574 15.3104 26.5545 13.5658 27.5155 12.3917C28.5766 11.1021 30.3927 10.1063 31.9458 10Z" fill="#CC2127"/>
</svg>
