<svg width="64" height="64" viewBox="0 0 64 64" fill="none" xmlns="http://www.w3.org/2000/svg">
<g id="vuesax/bold/archive-book">
<g id="archive-book">
<path id="Vector" d="M39.8133 6.66659V22.3999C39.8133 23.5732 38.4266 24.1599 37.5733 23.3866L32.9066 19.0933C32.4 18.6133 31.6 18.6133 31.0933 19.0933L26.4266 23.3599C25.5733 24.1599 24.1866 23.5466 24.1866 22.3999V6.66659C24.1866 5.91992 24.7733 5.33325 25.52 5.33325H38.48C39.2266 5.33325 39.8133 5.91992 39.8133 6.66659Z" fill="#0B1621"/>
<path id="Vector_2" d="M45.28 5.49344C44.5067 5.38677 43.8133 6.05344 43.8133 6.82677V22.8801C43.8133 24.9068 42.6133 26.7468 40.7467 27.5734C38.88 28.3734 36.72 28.0268 35.2267 26.6401L32.9067 24.5068C32.4 24.0268 31.6267 24.0268 31.0933 24.5068L28.7733 26.6401C27.8133 27.5468 26.56 28.0001 25.3067 28.0001C24.6133 28.0001 23.92 27.8668 23.2533 27.5734C21.3867 26.7468 20.1867 24.9068 20.1867 22.8801V6.82677C20.1867 6.05344 19.4933 5.38677 18.72 5.49344C11.2533 6.42677 8 11.4668 8 18.6668V45.3334C8 53.3334 12 58.6668 21.3333 58.6668H42.6667C52 58.6668 56 53.3334 56 45.3334V18.6668C56 11.4668 52.7467 6.42677 45.28 5.49344ZM46.6667 50.0001H24C22.9067 50.0001 22 49.0934 22 48.0001C22 46.9068 22.9067 46.0001 24 46.0001H46.6667C47.76 46.0001 48.6667 46.9068 48.6667 48.0001C48.6667 49.0934 47.76 50.0001 46.6667 50.0001ZM46.6667 39.3334H35.3333C34.24 39.3334 33.3333 38.4268 33.3333 37.3334C33.3333 36.2401 34.24 35.3334 35.3333 35.3334H46.6667C47.76 35.3334 48.6667 36.2401 48.6667 37.3334C48.6667 38.4268 47.76 39.3334 46.6667 39.3334Z" fill="#0B1621"/>
</g>
</g>
</svg>
