<svg width="13" height="12" viewBox="0 0 13 12" fill="none" xmlns="http://www.w3.org/2000/svg">
<path d="M5.9345 3.68461C5.9055 3.71286 5.7815 3.81953 5.6795 3.9189C5.038 4.50146 3.988 6.02119 3.6675 6.81661C3.616 6.93741 3.507 7.24282 3.5 7.40599C3.5 7.56235 3.536 7.7114 3.609 7.85363C3.711 8.03093 3.8715 8.17316 4.061 8.2511C4.1925 8.30127 4.586 8.3792 4.593 8.3792C5.0235 8.45714 5.723 8.5 6.496 8.5C7.2325 8.5 7.9035 8.45714 8.3405 8.39333C8.3475 8.38602 8.8365 8.30809 9.004 8.22284C9.31 8.06649 9.5 7.76108 9.5 7.43424V7.40599C9.4925 7.19313 9.3025 6.74549 9.2955 6.74549C8.9745 5.99294 7.976 4.50828 7.3125 3.91159C7.3125 3.91159 7.142 3.74355 7.0355 3.67048C6.8825 3.5565 6.693 3.5 6.5035 3.5C6.292 3.5 6.095 3.56381 5.9345 3.68461" fill="#CC2127"/>
</svg>
