<svg width="7" height="8" viewBox="0 0 7 8" fill="none" xmlns="http://www.w3.org/2000/svg">
<g id="Arrow - Right 2">
<path id="Arrow - Right 2_2" d="M6.58727 4.754C6.5496 4.79267 6.40737 4.958 6.27488 5.094C5.49813 5.94933 3.47183 7.34933 2.41127 7.77667C2.2502 7.84533 1.84299 7.99067 1.62543 8C1.41695 8 1.21822 7.952 1.02858 7.85467C0.792174 7.71867 0.602533 7.50467 0.49862 7.252C0.431726 7.07667 0.327813 6.552 0.327813 6.54267C0.2239 5.96867 0.166748 5.036 0.166748 4.00533C0.166748 3.02333 0.2239 2.12867 0.308979 1.546C0.318721 1.53667 0.422634 0.884667 0.536289 0.661333C0.744764 0.253333 1.15197 0 1.58776 0H1.62543C1.90924 0.01 2.50609 0.263333 2.50609 0.272667C3.5095 0.700667 5.48904 2.032 6.28462 2.91667C6.28462 2.91667 6.50869 3.144 6.6061 3.286C6.75808 3.49 6.83341 3.74267 6.83341 3.99533C6.83341 4.27733 6.74834 4.54 6.58727 4.754Z" fill="white"/>
</g>
</svg>
