<svg width="17" height="16" viewBox="0 0 17 16" fill="none" xmlns="http://www.w3.org/2000/svg">
<path fill-rule="evenodd" clip-rule="evenodd" d="M7.48836 3.00217L7.70646 5.46832C7.70646 5.9025 8.06115 6.25449 8.50029 6.25449C8.9387 6.25449 9.29413 5.9025 9.29413 5.46832L9.51223 3.00217C9.51223 2.44872 9.05913 2 8.50029 2C7.94145 2 7.48836 2.44872 7.48836 3.00217ZM7.66675 13.6761C7.70425 13.7102 7.73301 13.7364 7.74656 13.7498C7.96099 13.9135 8.22315 14 8.50514 14C8.75776 14 9.01037 13.9229 9.21452 13.7687C9.35625 13.6698 9.5839 13.4415 9.5839 13.4415C10.4688 12.6327 11.8002 10.6211 12.2283 9.60078C12.2371 9.60078 12.4905 8.99424 12.5 8.70552V8.66697C12.5 8.22407 12.2474 7.81026 11.8391 7.59862C11.6703 7.51118 11.2566 7.42914 11.0605 7.39025C10.9973 7.37771 10.9567 7.36966 10.9542 7.36735C10.3711 7.28081 9.47668 7.22335 8.49559 7.22335C7.46457 7.22335 6.53194 7.28081 5.95842 7.38626C5.94887 7.38626 5.42381 7.49244 5.24904 7.56008C4.99642 7.66626 4.78199 7.85826 4.64614 8.09898C4.5492 8.29171 4.5 8.49389 4.5 8.70552C4.51028 8.92733 4.65568 9.34115 4.72398 9.50478C5.1521 10.5826 6.55104 12.6429 7.40655 13.432C7.4956 13.5202 7.59651 13.6121 7.66675 13.6761Z" fill="white"/>
</svg>
