<svg width="17" height="16" viewBox="0 0 17 16" fill="none" xmlns="http://www.w3.org/2000/svg">
<path d="M11.7565 8.754C11.7188 8.79267 11.5766 8.958 11.4441 9.094C10.6673 9.94933 8.64102 11.3493 7.58046 11.7767C7.41939 11.8453 7.01218 11.9907 6.79462 12C6.58614 12 6.38741 11.952 6.19777 11.8547C5.96136 11.7187 5.77172 11.5047 5.66781 11.252C5.60092 11.0767 5.497 10.552 5.497 10.5427C5.39309 9.96867 5.33594 9.036 5.33594 8.00533C5.33594 7.02333 5.39309 6.12867 5.47817 5.546C5.48791 5.53667 5.59182 4.88467 5.70548 4.66133C5.91395 4.25333 6.32116 4 6.75695 4H6.79462C7.07843 4.01 7.67528 4.26333 7.67528 4.27267C8.67869 4.70067 10.6582 6.032 11.4538 6.91667C11.4538 6.91667 11.6779 7.144 11.7753 7.286C11.9273 7.49 12.0026 7.74267 12.0026 7.99533C12.0026 8.27733 11.9175 8.54 11.7565 8.754Z" fill="#CC2127"/>
</svg>
