<svg width="16" height="16" viewBox="0 0 16 16" fill="none" xmlns="http://www.w3.org/2000/svg">
<path fill-rule="evenodd" clip-rule="evenodd" d="M6.98836 3.00217L7.20646 5.46832C7.20646 5.9025 7.56115 6.25449 8.00029 6.25449C8.4387 6.25449 8.79413 5.9025 8.79413 5.46832L9.01223 3.00217C9.01223 2.44872 8.55913 2 8.00029 2C7.44145 2 6.98836 2.44872 6.98836 3.00217ZM7.16675 13.6761C7.20425 13.7102 7.23301 13.7364 7.24656 13.7498C7.46099 13.9135 7.72315 14 8.00514 14C8.25776 14 8.51037 13.9229 8.71452 13.7687C8.85625 13.6698 9.0839 13.4415 9.0839 13.4415C9.96879 12.6327 11.3002 10.6211 11.7283 9.60078C11.7371 9.60078 11.9905 8.99424 12 8.70552V8.66697C12 8.22407 11.7474 7.81026 11.3391 7.59862C11.1703 7.51118 10.7566 7.42914 10.5605 7.39025C10.4973 7.37771 10.4567 7.36966 10.4542 7.36735C9.87112 7.28081 8.97668 7.22335 7.99559 7.22335C6.96457 7.22335 6.03194 7.28081 5.45842 7.38626C5.44887 7.38626 4.92381 7.49244 4.74904 7.56008C4.49642 7.66626 4.28199 7.85826 4.14614 8.09898C4.0492 8.29171 4 8.49389 4 8.70552C4.01028 8.92733 4.15568 9.34115 4.22398 9.50478C4.6521 10.5826 6.05104 12.6429 6.90655 13.432C6.9956 13.5202 7.09651 13.6121 7.16675 13.6761Z" fill="white"/>
</svg>
