<svg width="13" height="12" viewBox="0 0 13 12" fill="none" xmlns="http://www.w3.org/2000/svg">
<path d="M5.9345 8.31539C5.9055 8.28714 5.7815 8.18047 5.6795 8.0811C5.038 7.49854 3.988 5.97881 3.6675 5.18339C3.616 5.06259 3.507 4.75718 3.5 4.59401C3.5 4.43765 3.536 4.2886 3.609 4.14637C3.711 3.96907 3.8715 3.82684 4.061 3.7489C4.1925 3.69873 4.586 3.6208 4.593 3.6208C5.0235 3.54286 5.723 3.5 6.496 3.5C7.2325 3.5 7.9035 3.54286 8.3405 3.60667C8.3475 3.61398 8.8365 3.69191 9.004 3.77716C9.31 3.93351 9.5 4.23892 9.5 4.56576V4.59401C9.4925 4.80687 9.3025 5.25451 9.2955 5.25451C8.9745 6.00706 7.976 7.49172 7.3125 8.08841C7.3125 8.08841 7.142 8.25645 7.0355 8.32952C6.8825 8.4435 6.693 8.5 6.5035 8.5C6.292 8.5 6.095 8.43619 5.9345 8.31539Z" fill="#0B1621"/>
</svg>
