<svg width="64" height="64" viewBox="0 0 64 64" fill="none" xmlns="http://www.w3.org/2000/svg">
<g clip-path="url(#clip0_617_1219)">
<rect x="12" y="12" width="52" height="52" rx="6" fill="#F7F8FA"/>
<rect opacity="0.5" width="52" height="52" rx="6" fill="#F5D3D4"/>
<path d="M23.2393 27H13.9993C13.266 27 12.666 27.6 12.666 28.3333V31.5867C12.666 35.8667 16.1327 39.3333 20.4127 39.3333H22.6793C23.706 39.3333 24.3327 38.24 23.8393 37.3333C22.786 35.3733 22.3727 33.0133 22.8927 30.5333C23.0793 29.6267 23.3993 28.7733 23.826 27.9733C24.0527 27.5333 23.746 27 23.2393 27ZM18.9993 34C18.9993 34.5467 18.546 35 17.9993 35C17.4527 35 16.9993 34.5467 16.9993 34V31.3333C16.9993 30.7867 17.4527 30.3333 17.9993 30.3333C18.546 30.3333 18.9993 30.7867 18.9993 31.3333V34Z" fill="#CC2127"/>
<path d="M31.586 12.6667H20.4127C16.1327 12.6667 12.666 16.1334 12.666 20.4134V23.6667C12.666 24.4001 13.266 25.0001 13.9993 25.0001H25.786C26.0793 25.0001 26.3593 24.8934 26.5993 24.7067C27.746 23.8267 29.0927 23.1867 30.5327 22.8934C33.0127 22.3734 35.3727 22.7867 37.3327 23.8401C38.2393 24.3201 39.3327 23.7067 39.3327 22.6801V20.4134C39.3327 16.1334 35.866 12.6667 31.586 12.6667ZM18.9993 21.0001C18.9993 21.5467 18.546 22.0001 17.9993 22.0001C17.4527 22.0001 16.9993 21.5467 16.9993 21.0001V18.3334C16.9993 17.7867 17.4527 17.3334 17.9993 17.3334C18.546 17.3334 18.9993 17.7867 18.9993 18.3334V21.0001ZM24.3327 21.0001C24.3327 21.5467 23.8793 22.0001 23.3327 22.0001C22.786 22.0001 22.3327 21.5467 22.3327 21.0001V18.3334C22.3327 17.7867 22.786 17.3334 23.3327 17.3334C23.8793 17.3334 24.3327 17.7867 24.3327 18.3334V21.0001ZM33.9993 20.6667H28.666C28.1193 20.6667 27.666 20.2134 27.666 19.6667C27.666 19.1201 28.1193 18.6667 28.666 18.6667H33.9993C34.546 18.6667 34.9993 19.1201 34.9993 19.6667C34.9993 20.2134 34.546 20.6667 33.9993 20.6667Z" fill="#CC2127"/>
<path d="M32.666 24.6667C28.2527 24.6667 24.666 28.2534 24.666 32.6667C24.666 37.0801 28.2527 40.6667 32.666 40.6667C37.0793 40.6667 40.666 37.0801 40.666 32.6667C40.666 28.2534 37.0793 24.6667 32.666 24.6667ZM36.5727 34.2667C36.3593 34.7867 36.0527 35.2534 35.6527 35.6534C34.8527 36.4534 33.7993 36.8934 32.666 36.8934C31.7593 36.8934 30.906 36.6001 30.186 36.0667V36.2534C30.186 36.6667 29.8527 37.0134 29.426 37.0134C28.9993 37.0001 28.666 36.6667 28.666 36.2401V34.3201C28.666 33.9067 28.9993 33.5601 29.426 33.5601H31.346C31.7593 33.5601 32.106 33.8934 32.106 34.3201C32.106 34.7067 31.826 35.0001 31.4527 35.0534C32.466 35.5467 33.7593 35.3867 34.5727 34.5734C34.826 34.3201 35.026 34.0134 35.1593 33.6801C35.3193 33.2934 35.7593 33.1067 36.146 33.2667C36.546 33.4267 36.7327 33.8801 36.5727 34.2667ZM36.666 31.0134C36.666 31.4267 36.3327 31.7734 35.906 31.7734H33.986C33.5727 31.7734 33.226 31.4401 33.226 31.0134C33.226 30.6267 33.506 30.3334 33.8793 30.2801C32.866 29.7867 31.5727 29.9467 30.746 30.7601C30.5193 30.9867 30.346 31.2401 30.2127 31.5201C30.0793 31.8001 29.8127 31.9601 29.5327 31.9601C29.426 31.9601 29.3193 31.9334 29.2127 31.8934C28.8393 31.7201 28.666 31.2667 28.8527 30.8801C29.066 30.4401 29.346 30.0401 29.6793 29.6934C30.4793 28.8934 31.5327 28.4534 32.666 28.4534C33.5727 28.4534 34.426 28.7467 35.146 29.2801V29.1067C35.146 28.6934 35.4793 28.3467 35.906 28.3467C36.3327 28.3467 36.666 28.6667 36.666 29.0934V31.0134Z" fill="#CC2127"/>
</g>
<defs>
<clipPath id="clip0_617_1219">
<rect width="64" height="64" fill="white"/>
</clipPath>
</defs>
</svg>
