<svg width="156" height="156" viewBox="0 0 156 156" fill="none" xmlns="http://www.w3.org/2000/svg">
<rect width="156" height="156" rx="6" fill="#F7F8FA"/>
<path d="M85.8142 52.6668V68.4002C85.8142 69.5735 84.4275 70.1602 83.5742 69.3868L78.9075 65.0935C78.4008 64.6135 77.6008 64.6135 77.0942 65.0935L72.4275 69.3602C71.5742 70.1602 70.1875 69.5468 70.1875 68.4002V52.6668C70.1875 51.9202 70.7742 51.3335 71.5208 51.3335H84.4808C85.2275 51.3335 85.8142 51.9202 85.8142 52.6668Z" fill="#0B1621"/>
<path d="M91.28 51.4932C90.5067 51.3865 89.8133 52.0532 89.8133 52.8265V68.8799C89.8133 70.9065 88.6133 72.7465 86.7467 73.5732C84.88 74.3732 82.72 74.0265 81.2267 72.6399L78.9067 70.5065C78.4 70.0265 77.6267 70.0265 77.0933 70.5065L74.7733 72.6399C73.8133 73.5465 72.56 73.9999 71.3067 73.9999C70.6133 73.9999 69.92 73.8665 69.2533 73.5732C67.3867 72.7465 66.1867 70.9065 66.1867 68.8799V52.8265C66.1867 52.0532 65.4933 51.3865 64.72 51.4932C57.2533 52.4265 54 57.4665 54 64.6665V91.3332C54 99.3332 58 104.667 67.3333 104.667H88.6667C98 104.667 102 99.3332 102 91.3332V64.6665C102 57.4665 98.7467 52.4265 91.28 51.4932ZM92.6667 95.9999H70C68.9067 95.9999 68 95.0932 68 93.9999C68 92.9065 68.9067 91.9999 70 91.9999H92.6667C93.76 91.9999 94.6667 92.9065 94.6667 93.9999C94.6667 95.0932 93.76 95.9999 92.6667 95.9999ZM92.6667 85.3332H81.3333C80.24 85.3332 79.3333 84.4265 79.3333 83.3332C79.3333 82.2399 80.24 81.3332 81.3333 81.3332H92.6667C93.76 81.3332 94.6667 82.2399 94.6667 83.3332C94.6667 84.4265 93.76 85.3332 92.6667 85.3332Z" fill="#0B1621"/>
</svg>
