<svg width="156" height="156" viewBox="0 0 156 156" fill="none" xmlns="http://www.w3.org/2000/svg">
<rect width="156" height="156" rx="6" fill="#F7F8FA"/>
<path d="M66.6478 84.1309H53.5371C50.6798 84.1309 48.3516 86.459 48.3516 89.3164V96.9594V97.1946C48.3516 100.064 50.6798 102.38 53.5371 102.38H58.0524C58.6991 102.38 59.2282 102.909 59.2282 103.556V104.697C59.2282 105.343 58.6991 105.872 58.0524 105.872H55.2068C54.7247 105.872 54.3249 106.272 54.3249 106.754C54.3249 107.236 54.7129 107.648 55.2068 107.648H65.0252C65.5073 107.648 65.907 107.248 65.907 106.766C65.907 106.284 65.5073 105.884 65.0252 105.884H62.1796C61.5329 105.884 61.0037 105.355 61.0037 104.708V103.568C61.0037 102.921 61.5329 102.392 62.1796 102.392H66.6596C69.5287 102.392 71.8451 100.064 71.8451 97.2063V96.9712V89.3281C71.8333 86.459 69.5052 84.1309 66.6478 84.1309Z" fill="#0B1621"/>
<path d="M101.769 108.53H90.0108C89.5287 108.53 89.1289 108.131 89.1289 107.648C89.1289 107.166 89.5287 106.767 90.0108 106.767H101.769C102.251 106.767 102.651 107.166 102.651 107.648C102.651 108.131 102.251 108.53 101.769 108.53Z" fill="#0B1621"/>
<path d="M102.946 104.12H88.8362C86.2376 104.12 84.1328 102.016 84.1328 99.417V88.8343C84.1328 86.2356 86.2376 84.1309 88.8362 84.1309H102.946C105.545 84.1309 107.65 86.2356 107.65 88.8343V99.417C107.65 102.016 105.545 104.12 102.946 104.12Z" fill="#0B1621"/>
<path d="M102.076 92.4444H97.7491C97.267 92.4444 96.8672 92.0447 96.8672 91.5626C96.8672 91.0805 97.267 90.6807 97.7491 90.6807H102.076C102.558 90.6807 102.958 91.0805 102.958 91.5626C102.958 92.0447 102.57 92.4444 102.076 92.4444Z" fill="white"/>
<path d="M93.5391 92.7384C92.8924 92.7384 92.3633 92.2093 92.3633 91.5626C92.3633 90.9159 92.8807 90.3867 93.5391 90.3867C94.1859 90.3867 94.715 90.9159 94.715 91.5626C94.715 92.2093 94.1976 92.7384 93.5391 92.7384Z" fill="white"/>
<path d="M89.836 92.7384C89.1893 92.7384 88.6602 92.2093 88.6602 91.5626C88.6602 90.9159 89.1775 90.3867 89.836 90.3867H89.8478C90.4945 90.3867 91.0236 90.9159 91.0236 91.5626C91.0236 92.2093 90.4827 92.7384 89.836 92.7384Z" fill="white"/>
<path d="M102.076 99.2526H89.7179C89.2358 99.2526 88.8242 98.8528 88.8242 98.3707C88.8242 97.8886 89.2122 97.4888 89.6943 97.4888H102.076C102.558 97.4888 102.958 97.8886 102.958 98.3707C102.958 98.8528 102.57 99.2526 102.076 99.2526Z" fill="white"/>
<path d="M60.1094 81.0237V65.6537C60.1094 62.5922 62.5912 60.1104 65.6527 60.1104V60.1104M95.6369 81.0237V65.1497C95.6369 62.3666 93.3807 60.1104 90.5976 60.1104V60.1104" stroke="#0B1621" stroke-linecap="round" stroke-dasharray="4 4"/>
<path d="M83.2362 48.3516H73.265C70.0196 48.3516 68.8438 49.5274 68.8438 52.8316V67.3886C68.8438 70.6928 70.0196 71.8686 73.265 71.8686H83.2244C86.4815 71.8686 87.6574 70.6928 87.6574 67.3886V52.8316C87.6574 49.5274 86.4815 48.3516 83.2362 48.3516Z" fill="#0B1621"/>
<path d="M80.6048 53.3492H75.9014C75.4193 53.3492 75.0195 52.9494 75.0195 52.4673C75.0195 51.9852 75.4193 51.5854 75.9014 51.5854H80.6048C81.0869 51.5854 81.4867 51.9852 81.4867 52.4673C81.4867 52.9494 81.0869 53.3492 80.6048 53.3492Z" fill="white"/>
<path d="M78.2491 68.6941C79.3856 68.6941 80.3069 67.7728 80.3069 66.6364C80.3069 65.4999 79.3856 64.5786 78.2491 64.5786C77.1127 64.5786 76.1914 65.4999 76.1914 66.6364C76.1914 67.7728 77.1127 68.6941 78.2491 68.6941Z" fill="white"/>
</svg>
