<svg width="156" height="156" viewBox="0 0 156 156" fill="none" xmlns="http://www.w3.org/2000/svg">
<rect width="156" height="156" rx="6" fill="#F7F8FA"/>
<path d="M101.999 72.6665H53.9987C52.532 72.6665 51.332 73.8665 51.332 75.3332V89.1732C51.332 89.7065 51.3587 90.2398 51.412 90.7732C51.9454 98.9865 57.012 104.053 65.2254 104.587C65.7587 104.64 66.292 104.667 66.8254 104.667H89.172C89.7054 104.667 90.2387 104.64 90.772 104.587C98.9854 104.053 104.052 98.9865 104.585 90.7732C104.639 90.2398 104.665 89.7065 104.665 89.1732V75.3332C104.665 73.8665 103.465 72.6665 101.999 72.6665ZM67.332 89.0665C68.2387 90.3998 69.4654 91.4932 70.8787 92.2132C71.892 92.6932 72.292 93.8932 71.7854 94.9065C71.4387 95.5998 70.7187 95.9998 69.9987 95.9998C69.7054 95.9998 69.3854 95.9198 69.1187 95.7865C67.0387 94.7732 65.2787 93.1998 64.0254 91.3065C62.9587 89.7065 62.9587 87.6265 64.0254 86.0265C65.2787 84.1332 67.0387 82.5598 69.1187 81.5465C70.1054 81.0398 71.3054 81.4398 71.7854 82.4265C72.292 83.4398 71.892 84.6398 70.8787 85.1198C69.4654 85.8398 68.2387 86.9332 67.332 88.2665C67.172 88.5065 67.172 88.8265 67.332 89.0665ZM92.532 91.3065C91.252 93.1998 89.492 94.7732 87.4387 95.7865C87.1454 95.9198 86.852 95.9998 86.5587 95.9998C85.812 95.9998 85.1187 95.5998 84.772 94.9065C84.2654 93.8932 84.6654 92.6932 85.652 92.2132C87.092 91.4932 88.3187 90.3998 89.1987 89.0665C89.3854 88.8265 89.3854 88.5065 89.1987 88.2665C88.3187 86.9332 87.092 85.8398 85.652 85.1198C84.6654 84.6398 84.2654 83.4398 84.772 82.4265C85.252 81.4398 86.452 81.0398 87.4387 81.5465C89.492 82.5598 91.252 84.1332 92.532 86.0265C93.5987 87.6265 93.5987 89.7065 92.532 91.3065Z" fill="#0B1621"/>
<path d="M104.665 66.8268V67.3335C104.665 68.8002 103.465 70.0002 101.999 70.0002L53.9987 70.0268C52.532 70.0268 51.332 68.8268 51.332 67.3602V66.8268C51.332 66.2935 51.3587 65.7602 51.412 65.2268C51.9454 57.0135 57.012 51.9468 65.2254 51.4135C65.7587 51.3602 66.292 51.3335 66.8254 51.3335H89.172C89.7054 51.3335 90.2387 51.3602 90.772 51.4135C98.9854 51.9468 104.052 57.0135 104.585 65.2268C104.639 65.7602 104.665 66.2935 104.665 66.8268Z" fill="#0B1621"/>
</svg>
