<svg width="156" height="156" viewBox="0 0 156 156" fill="none" xmlns="http://www.w3.org/2000/svg">
<rect width="156" height="156" rx="6" fill="#F7F8FA"/>
<path d="M99.5984 64.5068C99.5984 65.9468 98.8251 67.2535 97.5984 67.9202L92.9584 70.4268L89.0118 72.5335L80.8251 76.9602C79.9451 77.4402 78.9851 77.6802 77.9984 77.6802C77.0118 77.6802 76.0518 77.4402 75.1718 76.9602L58.3984 67.9202C57.1718 67.2535 56.3984 65.9468 56.3984 64.5068C56.3984 63.0668 57.1718 61.7602 58.3984 61.0935L63.6518 58.2668L67.8384 56.0002L75.1718 52.0535C76.9318 51.0935 79.0651 51.0935 80.8251 52.0535L97.5984 61.0935C98.8251 61.7602 99.5984 63.0668 99.5984 64.5068Z" fill="#0B1621"/>
<path d="M72.4006 80.1066L56.8006 72.3199C55.6006 71.7066 54.2139 71.7866 53.0672 72.4799C51.9206 73.1732 51.2539 74.3999 51.2539 75.7332V90.4799C51.2539 93.0399 52.6672 95.3332 54.9606 96.4799L70.5606 104.267C71.0939 104.533 71.6806 104.667 72.2672 104.667C72.9606 104.667 73.6539 104.48 74.2672 104.08C75.4139 103.387 76.0806 102.16 76.0806 100.827V86.0799C76.1072 83.5466 74.6939 81.2532 72.4006 80.1066Z" fill="#0B1621"/>
<path d="M104.748 75.7335V90.4802C104.748 93.0135 103.335 95.3068 101.041 96.4535L85.4412 104.267C84.9079 104.534 84.3212 104.667 83.7345 104.667C83.0412 104.667 82.3479 104.48 81.7079 104.08C80.5879 103.387 79.8945 102.16 79.8945 100.827V86.1068C79.8945 83.5468 81.3079 81.2535 83.6012 80.1068L89.3345 77.2535L93.3345 75.2535L99.2012 72.3202C100.401 71.7068 101.788 71.7602 102.935 72.4802C104.055 73.1735 104.748 74.4002 104.748 75.7335Z" fill="#0B1621"/>
<path d="M92.959 70.4267L89.0123 72.5333L63.6523 58.2667L67.839 56L92.319 69.8133C92.5857 69.9733 92.799 70.1867 92.959 70.4267Z" fill="#0B1621"/>
<path d="M93.332 75.2534V81.3068C93.332 82.4001 92.4254 83.3068 91.332 83.3068C90.2387 83.3068 89.332 82.4001 89.332 81.3068V77.2534L93.332 75.2534Z" fill="#0B1621"/>
</svg>
