<svg width="466" height="211" viewBox="0 0 466 211" fill="none" xmlns="http://www.w3.org/2000/svg">
<rect x="343.828" y="6.24976" width="154.902" height="183.934" rx="12" transform="rotate(5.64472 343.828 6.24976)" fill="#232D37"/>
<path d="M412.49 80.7875L387.613 93.2462L409.569 110.334L384.693 122.792L362.745 105.625L387.621 93.1663L365.657 76.1586L390.534 63.6999L412.49 80.7875ZM384.102 127.532L408.979 115.073L430.935 132.161L406.058 144.619L384.102 127.532ZM409.577 110.254L434.454 97.7952L412.49 80.7875L437.245 68.3169L459.201 85.4044L434.325 97.8631L456.281 114.951L431.404 127.409L409.577 110.254Z" fill="#0061FF"/>
<rect x="34.0156" y="0.686523" width="154.902" height="183.934" rx="12" transform="rotate(10.6559 34.0156 0.686523)" fill="#232D37"/>
<g clip-path="url(#clip0_1327_13242)">
<path fill-rule="evenodd" clip-rule="evenodd" d="M136.152 76.0764L110.246 108.883L122.457 148.862L131.087 145.954L143.135 81.9216L136.152 76.0764Z" fill="#E25444"/>
<path fill-rule="evenodd" clip-rule="evenodd" d="M136.152 76.0764L97.2119 73.2809L71.7853 101.647L85.1638 137.314L122.457 148.862L136.152 76.0764Z" fill="#7B1D13"/>
<path fill-rule="evenodd" clip-rule="evenodd" d="M59.2309 61.603L52.5112 63.2005L39.8563 130.458L45.5359 134.388L91.1884 105.297L59.2309 61.603Z" fill="#58150D"/>
<path fill-rule="evenodd" clip-rule="evenodd" d="M59.1641 61.5107L96.0622 79.6887L86.2388 131.897L45.4499 134.398L59.1641 61.5107Z" fill="#E25444"/>
<path fill-rule="evenodd" clip-rule="evenodd" d="M95.0009 85.4253L78.9676 79.6526L99.0459 63.9274L111.995 85.8669L95.0009 85.4253Z" fill="#58150D"/>
<path fill-rule="evenodd" clip-rule="evenodd" d="M111.995 85.8669L94.9728 85.4622L78.9676 79.6526L82.5117 60.8164" fill="#58150D"/>
<path fill-rule="evenodd" clip-rule="evenodd" d="M87.5693 124.94L70.4573 124.9L83.9481 144.186L103.485 131.115L87.5693 124.94Z" fill="#58150D"/>
<path fill-rule="evenodd" clip-rule="evenodd" d="M101.634 49.7864L83.4547 55.4284L78.9042 79.6134L96.3691 78.0504L101.634 49.7864Z" fill="#7B1D13"/>
<path fill-rule="evenodd" clip-rule="evenodd" d="M93.8653 91.3591L77.0125 90.0538L72.469 114.202L88.6261 119.204L93.8653 91.3591Z" fill="#7B1D13"/>
<path fill-rule="evenodd" clip-rule="evenodd" d="M86.1971 132.103L70.4648 124.842L65.9982 148.581L80.8808 160.357L86.1971 132.103Z" fill="#7B1D13"/>
<path fill-rule="evenodd" clip-rule="evenodd" d="M103.494 131.055L86.1987 132.103L80.8827 160.356L99.0276 154.794L103.494 131.055Z" fill="#E25444"/>
<path fill-rule="evenodd" clip-rule="evenodd" d="M93.8633 91.3584L110.038 96.2674L105.494 120.415L88.6241 119.203L93.8633 91.3584Z" fill="#E25444"/>
<path fill-rule="evenodd" clip-rule="evenodd" d="M101.633 49.7871L116.518 61.6504L111.968 85.8354L96.3022 78.1181L101.633 49.7871Z" fill="#E25444"/>
</g>
<g clip-path="url(#clip1_1327_13242)">
<rect x="161.586" y="21.7285" width="154" height="185" rx="12" transform="rotate(-6.11511 161.586 21.7285)" fill="white"/>
<path d="M222.098 151.186L196.386 115.945C195.398 114.59 194.783 112.999 194.605 111.331C194.426 109.663 194.69 107.978 195.369 106.445L213.031 66.5573C213.711 65.0235 214.782 63.6956 216.137 62.7069C217.492 61.7183 219.083 61.1038 220.751 60.9252L264.125 56.2782C265.793 56.0996 267.479 56.3631 269.012 57.0422C270.546 57.7214 271.874 58.7923 272.862 60.1472L298.574 95.3876C299.563 96.7425 300.177 98.3339 300.356 100.002C300.535 101.669 300.271 103.355 299.592 104.889L281.929 144.775C281.25 146.309 280.179 147.637 278.824 148.625C277.469 149.614 275.878 150.228 274.21 150.407L230.836 155.054C229.168 155.233 227.482 154.97 225.948 154.29C224.415 153.611 223.087 152.541 222.098 151.186Z" fill="url(#paint0_linear_1327_13242)"/>
<mask id="mask0_1327_13242" style="mask-type:luminance" maskUnits="userSpaceOnUse" x="194" y="56" width="107" height="100">
<path d="M222.098 151.186L196.386 115.945C195.398 114.59 194.783 112.999 194.605 111.331C194.426 109.663 194.69 107.978 195.369 106.445L213.031 66.5573C213.71 65.0236 214.781 63.6957 216.136 62.7071C217.491 61.7184 219.083 61.1039 220.75 60.9253L264.125 56.2783C265.792 56.0995 267.478 56.3629 269.012 57.0421C270.546 57.7212 271.874 58.7922 272.862 60.1472L298.574 95.3876C299.563 96.7425 300.177 98.3339 300.356 100.002C300.535 101.669 300.271 103.355 299.592 104.889L281.929 144.775C281.25 146.309 280.179 147.637 278.824 148.626C277.469 149.614 275.877 150.229 274.209 150.407L230.835 155.054C229.167 155.233 227.482 154.969 225.948 154.29C224.414 153.611 223.087 152.54 222.098 151.185L222.098 151.186Z" fill="white"/>
</mask>
<g mask="url(#mask0_1327_13242)">
<path opacity="0.07" d="M234.449 98.6012L229.276 104.997L234.725 109.392L230.78 118.569L271.607 151.495L280.543 150.54L294.636 117.327L264.043 92.6521L234.449 98.6012Z" fill="black"/>
</g>
<path d="M263.368 92.4913L229.134 96.1589C228.583 96.218 228.181 96.7173 228.24 97.2692L228.999 104.346C229.058 104.896 229.557 105.299 230.107 105.24L264.341 101.573C264.892 101.514 265.294 101.014 265.236 100.464L264.477 93.3853C264.418 92.835 263.919 92.4313 263.368 92.4904M258.774 99.6479C258.231 99.7045 257.688 99.5438 257.263 99.2009C256.838 98.858 256.567 98.3608 256.508 97.8182C256.479 97.5494 256.503 97.2776 256.579 97.0182C256.655 96.7588 256.782 96.5169 256.952 96.3065C257.121 96.0961 257.331 95.9211 257.568 95.7918C257.806 95.6624 258.066 95.5811 258.335 95.5525C259.467 95.4312 260.481 96.2443 260.603 97.3794C260.632 97.6485 260.607 97.9206 260.531 98.1802C260.455 98.4398 260.328 98.6819 260.158 98.8925C259.988 99.1032 259.779 99.2783 259.541 99.4079C259.303 99.5375 259.043 99.619 258.774 99.6479ZM264.825 106.095L230.592 109.764C230.041 109.823 229.639 110.323 229.698 110.875L230.456 117.951C230.515 118.501 231.015 118.905 231.565 118.846L265.798 115.178C266.349 115.119 266.752 114.619 266.693 114.069L265.935 106.991C265.876 106.441 265.376 106.036 264.825 106.095ZM260.231 113.253C259.688 113.309 259.145 113.149 258.72 112.806C258.296 112.463 258.024 111.966 257.965 111.423C257.936 111.154 257.961 110.882 258.037 110.623C258.113 110.363 258.239 110.122 258.409 109.911C258.579 109.701 258.788 109.526 259.026 109.396C259.263 109.267 259.524 109.186 259.792 109.157C260.067 109.117 260.347 109.132 260.616 109.202C260.884 109.272 261.136 109.396 261.355 109.566C261.575 109.736 261.758 109.948 261.893 110.191C262.028 110.433 262.113 110.7 262.143 110.976C262.173 111.252 262.146 111.531 262.065 111.797C261.984 112.062 261.85 112.309 261.672 112.521C261.493 112.734 261.274 112.908 261.026 113.033C260.778 113.159 260.508 113.234 260.231 113.253Z" fill="white"/>
</g>
<defs>
<linearGradient id="paint0_linear_1327_13242" x1="242.438" y1="58.6025" x2="252.507" y2="152.584" gradientUnits="userSpaceOnUse">
<stop stop-color="#4387FD"/>
<stop offset="1" stop-color="#4683EA"/>
</linearGradient>
<clipPath id="clip0_1327_13242">
<rect width="100" height="120" fill="white" transform="translate(53.6484 36.9424) rotate(10.6559)"/>
</clipPath>
<clipPath id="clip1_1327_13242">
<rect x="161.586" y="21.7285" width="154" height="185" rx="12" transform="rotate(-6.11511 161.586 21.7285)" fill="white"/>
</clipPath>
</defs>
</svg>
