<svg width="156" height="156" viewBox="0 0 156 156" fill="none" xmlns="http://www.w3.org/2000/svg">
<rect width="156" height="156" rx="6" fill="#F7F8FA"/>
<path d="M96 101.999C96 103.093 95.0933 103.999 94 103.999H83.3333C83.2 103.999 83.0933 103.946 82.96 103.919C82.1866 105.919 80.2667 107.333 78 107.333C75.7333 107.333 73.8134 105.919 73.04 103.919C72.9067 103.946 72.8 103.999 72.6667 103.999H62C60.9067 103.999 60 103.093 60 101.999C60 100.906 60.9067 99.9993 62 99.9993H72.6667C72.8 99.9993 72.9067 100.053 73.04 100.079C73.5734 98.6928 74.6934 97.5727 76.0801 97.0394C76.0534 96.9061 76 96.7993 76 96.666V88.666H80V96.666C80 96.7993 79.9466 96.9061 79.9199 97.0394C81.3066 97.5727 82.4266 98.6928 82.96 100.079C83.0933 100.053 83.2 99.9993 83.3333 99.9993H94C95.0933 99.9993 96 100.906 96 101.999Z" fill="#0B1621"/>
<path d="M96.6693 68.134V79.334C96.6693 86.8006 94.8026 88.6673 87.3359 88.6673H68.6693C61.2026 88.6673 59.3359 86.8006 59.3359 79.334V60.6673C59.3359 53.2007 61.2026 51.334 68.6693 51.334H71.4692C74.2692 51.334 74.8826 52.1607 75.9492 53.5741L78.7493 57.3073C79.4693 58.2406 79.8693 58.8006 81.736 58.8006H87.3359C94.8026 58.8006 96.6693 60.6673 96.6693 68.134Z" fill="#0B1621"/>
</svg>
