<svg width="65" height="64" viewBox="0 0 65 64" fill="none" xmlns="http://www.w3.org/2000/svg">
<g clip-path="url(#clip0_629_5588)">
<rect x="12.3359" y="12" width="52" height="52" rx="6" fill="#F7F8FA"/>
<rect opacity="0.5" x="0.335938" width="52" height="52" rx="6" fill="#F5D3D4"/>
<path d="M25.9974 21C23.6107 21 21.6641 22.9467 21.6641 25.3333C21.6641 27.72 23.6107 29.6667 25.9974 29.6667C28.3841 29.6667 30.3307 27.72 30.3307 25.3333C30.3307 22.9467 28.3841 21 25.9974 21ZM27.3307 24.9067C27.3307 25.72 26.8907 26.4933 26.1974 26.9067L25.1707 27.52C25.0107 27.6133 24.8374 27.6667 24.6507 27.6667C24.3174 27.6667 23.9841 27.4933 23.7974 27.1867C23.5174 26.7067 23.6641 26.0933 24.1441 25.8133L25.1574 25.2C25.2641 25.1333 25.3174 25.0267 25.3174 24.92V23.68C25.3174 23.1333 25.7707 22.68 26.3174 22.68C26.8641 22.68 27.3307 23.12 27.3307 23.6667V24.9067Z" fill="#CC2127"/>
<path d="M34.721 15.5599L27.3877 12.8133C26.6277 12.5333 25.3877 12.5333 24.6277 12.8133L17.2944 15.5599C15.881 16.0933 14.7344 17.7466 14.7344 19.2533V30.0533C14.7344 31.1333 15.441 32.5599 16.3077 33.1999L23.641 38.6799C24.9344 39.6533 27.0544 39.6533 28.3477 38.6799L35.681 33.1999C36.5477 32.5466 37.2544 31.1333 37.2544 30.0533V19.2533C37.2677 17.7466 36.121 16.0933 34.721 15.5599ZM26.001 31.6666C22.5077 31.6666 19.6677 28.8266 19.6677 25.3333C19.6677 21.8399 22.5077 18.9999 26.001 18.9999C29.4944 18.9999 32.3344 21.8399 32.3344 25.3333C32.3344 28.8266 29.4944 31.6666 26.001 31.6666Z" fill="#CC2127"/>
</g>
<defs>
<clipPath id="clip0_629_5588">
<rect width="64" height="64" fill="white" transform="translate(0.335938)"/>
</clipPath>
</defs>
</svg>
