<svg width="64" height="64" viewBox="0 0 64 64" fill="none" xmlns="http://www.w3.org/2000/svg">
<g id="vuesax/bold/box">
<g id="box">
<path id="Vector" d="M53.5999 18.5066C53.5999 19.9466 52.8266 21.2533 51.5999 21.9199L46.9599 24.4266L43.0132 26.5333L34.8266 30.9599C33.9466 31.4399 32.9866 31.6799 31.9999 31.6799C31.0132 31.6799 30.0532 31.4399 29.1732 30.9599L12.3999 21.9199C11.1732 21.2533 10.3999 19.9466 10.3999 18.5066C10.3999 17.0666 11.1732 15.7599 12.3999 15.0933L17.6532 12.2666L21.8399 9.99992L29.1732 6.05325C30.9332 5.09325 33.0666 5.09325 34.8266 6.05325L51.5999 15.0933C52.8266 15.7599 53.5999 17.0666 53.5999 18.5066Z" fill="#0B1621"/>
<path id="Vector_2" d="M26.4001 34.1066L10.8001 26.3199C9.60008 25.7066 8.21342 25.7866 7.06675 26.4799C5.92008 27.1732 5.25342 28.3999 5.25342 29.7332V44.4799C5.25342 47.0399 6.66675 49.3332 8.96008 50.4799L24.5601 58.2666C25.0934 58.5332 25.6801 58.6666 26.2668 58.6666C26.9601 58.6666 27.6534 58.4799 28.2668 58.0799C29.4134 57.3866 30.0801 56.1599 30.0801 54.8266V40.0799C30.1067 37.5466 28.6934 35.2532 26.4001 34.1066Z" fill="#0B1621"/>
<path id="Vector_3" d="M58.7466 29.7333V44.4799C58.7466 47.0133 57.3333 49.3066 55.04 50.4533L39.44 58.2666C38.9066 58.5333 38.32 58.6666 37.7333 58.6666C37.04 58.6666 36.3466 58.4799 35.7066 58.0799C34.5866 57.3866 33.8933 56.1599 33.8933 54.8266V40.1066C33.8933 37.5466 35.3066 35.2533 37.6 34.1066L43.3333 31.2533L47.3333 29.2533L53.2 26.3199C54.4 25.7066 55.7866 25.7599 56.9333 26.4799C58.0533 27.1733 58.7466 28.3999 58.7466 29.7333Z" fill="#0B1621"/>
<path id="Vector_4" d="M46.96 24.4267L43.0133 26.5333L17.6533 12.2667L21.84 10L46.32 23.8133C46.5867 23.9733 46.8 24.1867 46.96 24.4267Z" fill="#0B1621"/>
<path id="Vector_5" d="M47.3333 29.2534V35.3068C47.3333 36.4001 46.4266 37.3068 45.3333 37.3068C44.2399 37.3068 43.3333 36.4001 43.3333 35.3068V31.2534L47.3333 29.2534Z" fill="#0B1621"/>
</g>
</g>
</svg>
