<svg width="64" height="64" viewBox="0 0 64 64" fill="none" xmlns="http://www.w3.org/2000/svg">
<g clip-path="url(#clip0_1_14191)">
<rect x="12" y="12" width="52" height="52" rx="6" fill="#F7F8FA"/>
<rect opacity="0.5" width="52" height="52" rx="6" fill="#F5D3D4"/>
<path d="M38 40.3333H14C13.4533 40.3333 13 39.8799 13 39.3333C13 38.7866 13.4533 38.3333 14 38.3333H38C38.5467 38.3333 39 38.7866 39 39.3333C39 39.8799 38.5467 40.3333 38 40.3333Z" fill="#CC2127"/>
<path d="M17.4667 21.1733H15.3333C14.6 21.1733 14 21.7733 14 22.5067V34C14 34.7333 14.6 35.3333 15.3333 35.3333H17.4667C18.2 35.3333 18.8 34.7333 18.8 34V22.5067C18.8 21.76 18.2 21.1733 17.4667 21.1733Z" fill="#CC2127"/>
<path d="M27.0663 16.9199H24.9329C24.1996 16.9199 23.5996 17.5199 23.5996 18.2533V33.9999C23.5996 34.7333 24.1996 35.3333 24.9329 35.3333H27.0663C27.7996 35.3333 28.3996 34.7333 28.3996 33.9999V18.2533C28.3996 17.5199 27.7996 16.9199 27.0663 16.9199Z" fill="#CC2127"/>
<path d="M36.6659 12.6667H34.5326C33.7992 12.6667 33.1992 13.2667 33.1992 14.0001V34.0001C33.1992 34.7334 33.7992 35.3334 34.5326 35.3334H36.6659C37.3992 35.3334 37.9992 34.7334 37.9992 34.0001V14.0001C37.9992 13.2667 37.3992 12.6667 36.6659 12.6667Z" fill="#CC2127"/>
</g>
<defs>
<clipPath id="clip0_1_14191">
<rect width="64" height="64" fill="white"/>
</clipPath>
</defs>
</svg>
