<svg width="64" height="64" viewBox="0 0 64 64" fill="none" xmlns="http://www.w3.org/2000/svg">
<g clip-path="url(#clip0_1404_16709)">
<rect x="12" y="12" width="52" height="52" rx="6" fill="#F7F8FA"/>
<rect opacity="0.5" width="52" height="52" rx="6" fill="#F5D3D4"/>
<path d="M38 40.3335H14C13.4533 40.3335 13 39.8802 13 39.3335C13 38.7868 13.4533 38.3335 14 38.3335H38C38.5467 38.3335 39 38.7868 39 39.3335C39 39.8802 38.5467 40.3335 38 40.3335Z" fill="#CC2127"/>
<path d="M17.4667 21.1733H15.3333C14.6 21.1733 14 21.7733 14 22.5067V34C14 34.7333 14.6 35.3333 15.3333 35.3333H17.4667C18.2 35.3333 18.8 34.7333 18.8 34V22.5067C18.8 21.76 18.2 21.1733 17.4667 21.1733Z" fill="#CC2127"/>
<path d="M27.0682 16.9199H24.9349C24.2016 16.9199 23.6016 17.5199 23.6016 18.2533V33.9999C23.6016 34.7333 24.2016 35.3333 24.9349 35.3333H27.0682C27.8016 35.3333 28.4016 34.7333 28.4016 33.9999V18.2533C28.4016 17.5199 27.8016 16.9199 27.0682 16.9199Z" fill="#CC2127"/>
<path d="M36.6659 12.6665H34.5326C33.7992 12.6665 33.1992 13.2665 33.1992 13.9998V33.9998C33.1992 34.7332 33.7992 35.3332 34.5326 35.3332H36.6659C37.3992 35.3332 37.9992 34.7332 37.9992 33.9998V13.9998C37.9992 13.2665 37.3992 12.6665 36.6659 12.6665Z" fill="#CC2127"/>
</g>
<defs>
<clipPath id="clip0_1404_16709">
<rect width="64" height="64" fill="white"/>
</clipPath>
</defs>
</svg>
