<svg width="32" height="30" viewBox="0 0 32 30" fill="none" xmlns="http://www.w3.org/2000/svg">
<path d="M17.5 4H7.5C4.5 4 2.5 5.5 2.5 9V16C2.5 19.5 4.5 21 7.5 21H17.5C20.5 21 22.5 19.5 22.5 16V9C22.5 5.5 20.5 4 17.5 4ZM17.97 10.09L14.84 12.59C14.18 13.12 13.34 13.38 12.5 13.38C11.66 13.38 10.81 13.12 10.16 12.59L7.03 10.09C6.71 9.83 6.66 9.35 6.91 9.03C7.17 8.71 7.64 8.65 7.96 8.91L11.09 11.41C11.85 12.02 13.14 12.02 13.9 11.41L17.03 8.91C17.35 8.65 17.83 8.7 18.08 9.03C18.34 9.35 18.29 9.83 17.97 10.09Z" fill="#0B1621"/>
<circle cx="23" cy="21" r="7.5" fill="#0B1621" stroke="#EEF1F5" stroke-width="2"/>
<path d="M22.6661 22.0448L22.0109 22.7C21.8728 22.8381 21.6532 22.8381 21.5116 22.7035C21.4726 22.6646 21.4336 22.6292 21.3947 22.5902C21.0299 22.2219 20.7005 21.8358 20.4066 21.4321C20.1161 21.0283 19.8824 20.6246 19.7124 20.2244C19.5459 19.8206 19.4609 19.4346 19.4609 19.0662C19.4609 18.8254 19.5034 18.5952 19.5884 18.3827C19.6734 18.1667 19.808 17.9683 19.9957 17.7912C20.2224 17.5681 20.4703 17.4583 20.7324 17.4583C20.8316 17.4583 20.9307 17.4796 21.0193 17.5221C21.1114 17.5646 21.1928 17.6283 21.2566 17.7204L22.0782 18.8785C22.142 18.9671 22.188 19.0485 22.2199 19.1265C22.2518 19.2008 22.2695 19.2752 22.2695 19.3425C22.2695 19.4275 22.2447 19.5125 22.1951 19.594C22.1491 19.6754 22.0818 19.7604 21.9968 19.8454L21.7276 20.1252C21.6886 20.1642 21.6709 20.2102 21.6709 20.2669C21.6709 20.2952 21.6745 20.32 21.6816 20.3483C21.6922 20.3767 21.7028 20.3979 21.7099 20.4192C21.7736 20.536 21.8834 20.6883 22.0393 20.8725C22.1986 21.0567 22.3686 21.2444 22.5528 21.4321C22.5882 21.4675 22.6272 21.5029 22.6626 21.5383C22.8043 21.6765 22.8078 21.9031 22.6661 22.0448Z" fill="white"/>
<path d="M26.5295 23.2419C26.5295 23.341 26.5118 23.4437 26.4764 23.5429C26.4657 23.5712 26.4551 23.5996 26.4409 23.6279C26.3807 23.7554 26.3028 23.8758 26.2001 23.9892C26.0266 24.1804 25.8353 24.3185 25.6193 24.4071C25.6157 24.4071 25.6122 24.4106 25.6086 24.4106C25.3997 24.4956 25.173 24.5417 24.9286 24.5417C24.5674 24.5417 24.1814 24.4567 23.7741 24.2831C23.3668 24.1096 22.9595 23.8758 22.5557 23.5819C22.4176 23.4792 22.2795 23.3765 22.1484 23.2667L23.3066 22.1085C23.4057 22.1829 23.4943 22.2396 23.5686 22.2785C23.5864 22.2856 23.6076 22.2962 23.6324 22.3069C23.6607 22.3175 23.6891 22.321 23.7209 22.321C23.7811 22.321 23.8272 22.2998 23.8661 22.2608L24.1353 21.9952C24.2239 21.9067 24.3089 21.8394 24.3903 21.7969C24.4718 21.7473 24.5532 21.7225 24.6418 21.7225C24.7091 21.7225 24.7799 21.7367 24.8578 21.7685C24.9357 21.8004 25.0172 21.8465 25.1057 21.9067L26.278 22.739C26.3701 22.8027 26.4339 22.8771 26.4728 22.9656C26.5082 23.0542 26.5295 23.1427 26.5295 23.2419Z" fill="white"/>
</svg>
