<svg width="174" height="201" viewBox="0 0 174 201" fill="none" xmlns="http://www.w3.org/2000/svg">
<g clip-path="url(#clip0_1_8736)">
<rect x="0.585938" y="16.7285" width="154" height="185" rx="12" transform="rotate(-6.11511 0.585938 16.7285)" fill="white"/>
<path d="M61.0979 146.186L35.3862 110.945C34.3977 109.59 33.7832 107.999 33.6045 106.331C33.4259 104.663 33.6893 102.978 34.3684 101.445L52.0311 61.5573C52.7103 60.0235 53.7813 58.6956 55.1364 57.7069C56.4915 56.7183 58.083 56.1038 59.7509 55.9252L103.125 51.2782C104.793 51.0996 106.478 51.3631 108.012 52.0422C109.546 52.7214 110.873 53.7923 111.862 55.1472L137.574 90.3876C138.562 91.7425 139.177 93.3339 139.356 95.0017C139.534 96.6695 139.271 98.3549 138.592 99.8886L120.929 139.775C120.25 141.309 119.179 142.637 117.824 143.625C116.469 144.614 114.878 145.228 113.21 145.407L69.8355 150.054C68.1676 150.233 66.482 149.97 64.9482 149.29C63.4144 148.611 62.0865 147.541 61.0979 146.186Z" fill="url(#paint0_linear_1_8736)"/>
<mask id="mask0_1_8736" style="mask-type:luminance" maskUnits="userSpaceOnUse" x="33" y="51" width="107" height="100">
<path d="M61.0986 146.186L35.387 110.945C34.3984 109.59 33.7839 107.999 33.6053 106.331C33.4266 104.663 33.6901 102.978 34.3692 101.445L52.0319 61.5573C52.7109 60.0236 53.7818 58.6957 55.1367 57.7071C56.4917 56.7184 58.0831 56.1039 59.7508 55.9253L103.125 51.2783C104.793 51.0995 106.479 51.3629 108.012 52.0421C109.546 52.7212 110.874 53.7922 111.863 55.1472L137.574 90.3876C138.563 91.7425 139.178 93.3339 139.356 95.0017C139.535 96.6695 139.271 98.3549 138.592 99.8886L120.929 139.775C120.25 141.309 119.179 142.637 117.824 143.626C116.469 144.614 114.878 145.229 113.21 145.407L69.8354 150.054C68.1676 150.233 66.4822 149.969 64.9486 149.29C63.4149 148.611 62.0871 147.54 61.0986 146.185L61.0986 146.186Z" fill="white"/>
</mask>
<g mask="url(#mask0_1_8736)">
<path opacity="0.07" d="M73.4501 93.6012L68.2773 99.9966L73.7262 104.392L69.7806 113.569L110.608 146.495L119.544 145.54L133.637 112.327L103.044 87.6521L73.4501 93.6012Z" fill="black"/>
</g>
<path d="M102.367 87.4914L68.1335 91.159C67.5824 91.2181 67.1805 91.7174 67.2396 92.2693L67.9978 99.3463C68.0568 99.8965 68.5562 100.299 69.1064 100.24L103.34 96.5727C103.891 96.5137 104.294 96.0143 104.235 95.464L103.476 88.3853C103.417 87.8351 102.919 87.4314 102.368 87.4905M97.7729 94.648C97.2301 94.7046 96.6869 94.5438 96.2622 94.2009C95.8375 93.8581 95.566 93.3609 95.507 92.8183C95.478 92.5495 95.5022 92.2776 95.5784 92.0182C95.6545 91.7589 95.7811 91.517 95.9508 91.3066C96.1205 91.0961 96.33 90.9212 96.5674 90.7919C96.8048 90.6625 97.0654 90.5812 97.3342 90.5526C98.466 90.4313 99.4807 91.2444 99.6023 92.3795C99.6312 92.6486 99.6067 92.9207 99.5304 93.1803C99.454 93.4399 99.3273 93.682 99.1574 93.8926C98.9876 94.1033 98.7779 94.2784 98.5403 94.408C98.3028 94.5376 98.042 94.6191 97.7729 94.648ZM103.824 101.095L69.5911 104.765C69.0401 104.824 68.6381 105.323 68.6973 105.875L69.4554 112.951C69.5143 113.501 70.0138 113.905 70.5641 113.846L104.798 110.178C105.349 110.119 105.751 109.619 105.692 109.069L104.934 101.991C104.875 101.441 104.375 101.036 103.824 101.095ZM99.2305 108.253C98.6876 108.309 98.1443 108.149 97.7195 107.806C97.2948 107.463 97.0233 106.966 96.9645 106.423C96.9355 106.154 96.9598 105.882 97.0359 105.623C97.1121 105.364 97.2386 105.122 97.4084 104.911C97.5781 104.701 97.7876 104.526 98.025 104.397C98.2623 104.267 98.5229 104.186 98.7917 104.157C99.0663 104.117 99.3463 104.132 99.6148 104.202C99.8833 104.272 100.135 104.396 100.354 104.566C100.574 104.736 100.757 104.948 100.892 105.191C101.028 105.433 101.113 105.7 101.142 105.976C101.172 106.252 101.145 106.531 101.064 106.797C100.983 107.062 100.85 107.309 100.671 107.521C100.493 107.734 100.273 107.908 100.025 108.034C99.7777 108.159 99.5074 108.234 99.2305 108.253Z" fill="white"/>
</g>
<defs>
<linearGradient id="paint0_linear_1_8736" x1="81.4381" y1="53.6025" x2="91.507" y2="147.584" gradientUnits="userSpaceOnUse">
<stop stop-color="#4387FD"/>
<stop offset="1" stop-color="#4683EA"/>
</linearGradient>
<clipPath id="clip0_1_8736">
<rect x="0.585938" y="16.7285" width="154" height="185" rx="12" transform="rotate(-6.11511 0.585938 16.7285)" fill="white"/>
</clipPath>
</defs>
</svg>
