<svg width="24" height="24" viewBox="0 0 24 24" fill="none" xmlns="http://www.w3.org/2000/svg">
<g clip-path="url(#clip0_247_2933)">
<path d="M23.3106 3.2813C22.9575 2.92762 22.3847 2.92701 22.0316 3.2798L11.1804 14.1024L7.26526 9.85022C6.92696 9.483 6.355 9.45919 5.98717 9.79744C5.61962 10.1357 5.59609 10.708 5.93439 11.0755L10.4872 16.02C10.6539 16.2012 10.8872 16.3064 11.1333 16.3115C11.1399 16.3118 11.1463 16.3118 11.1526 16.3118C11.3917 16.3118 11.6217 16.2168 11.7912 16.048L23.3088 4.56056C23.6627 4.20783 23.6634 3.63497 23.3106 3.2813Z" fill="#CC2127"/>
<path d="M23.0955 11.0955C22.5959 11.0955 22.191 11.5004 22.191 12C22.191 17.6195 17.6195 22.191 12 22.191C6.38081 22.191 1.80905 17.6195 1.80905 12C1.80905 6.38081 6.38081 1.80905 12 1.80905C12.4996 1.80905 12.9045 1.40414 12.9045 0.904547C12.9045 0.404906 12.4996 0 12 0C5.38312 0 0 5.38312 0 12C0 18.6166 5.38312 24 12 24C18.6166 24 24 18.6166 24 12C24 11.5004 23.5951 11.0955 23.0955 11.0955Z" fill="#CC2127"/>
</g>
<defs>
<clipPath id="clip0_247_2933">
<rect width="24" height="24" fill="white"/>
</clipPath>
</defs>
</svg>
