<svg width="24" height="24" viewBox="0 0 24 24" fill="none" xmlns="http://www.w3.org/2000/svg">
<path d="M19.1988 14.78C18.3388 15.57 17.1988 16.01 16.0288 16H6.36875C2.29875 15.71 2.28875 9.80005 6.36875 9.51005H6.40876C3.61876 1.75005 15.4088 -1.33997 16.7588 6.80003C20.5288 7.28003 22.0588 12.29 19.1988 14.78Z" fill="#0B1621"/>
<path d="M18.75 21C18.75 21.41 18.41 21.75 18 21.75H14C13.95 21.75 13.91 21.75 13.86 21.73C13.57 22.47 12.84 23 12 23C11.16 23 10.43 22.47 10.14 21.73C10.09 21.75 10.05 21.75 10 21.75H6C5.59 21.75 5.25 21.41 5.25 21C5.25 20.59 5.59 20.25 6 20.25H10C10.05 20.25 10.09 20.25 10.14 20.27C10.34 19.75 10.75 19.34 11.27 19.14C11.25 19.09 11.25 19.05 11.25 19V16H12.75V19C12.75 19.05 12.75 19.09 12.73 19.14C13.25 19.34 13.66 19.75 13.86 20.27C13.91 20.25 13.95 20.25 14 20.25H18C18.41 20.25 18.75 20.59 18.75 21Z" fill="#0B1621"/>
</svg>
