<svg width="64" height="64" viewBox="0 0 64 64" fill="none" xmlns="http://www.w3.org/2000/svg">
<g clip-path="url(#clip0_1744_47626)">
<rect x="12" y="12" width="52" height="52" rx="6" fill="#F7F8FA"/>
<rect opacity="0.5" width="52" height="52" rx="6" fill="#F5D3D4"/>
<path d="M27.9587 29.1867H24.0387C22.3454 29.1867 21.332 30.2 21.332 31.8933V35.8133C21.332 37.5067 22.3454 38.52 24.0387 38.52H27.9587C29.652 38.52 30.6654 37.5067 30.6654 35.8133V31.8933C30.6654 30.2 29.652 29.1867 27.9587 29.1867ZM29.212 34.4267C29.0787 34.56 28.8787 34.6533 28.6654 34.6667H26.7854L26.7987 36.52C26.7854 36.7467 26.7054 36.9333 26.5454 37.0933C26.412 37.2267 26.212 37.32 25.9987 37.32C25.5587 37.32 25.1987 36.96 25.1987 36.52V34.6533L23.332 34.6667C22.892 34.6667 22.532 34.2933 22.532 33.8533C22.532 33.4133 22.892 33.0533 23.332 33.0533L25.1987 33.0667V31.2C25.1987 30.76 25.5587 30.3867 25.9987 30.3867C26.4387 30.3867 26.7987 30.76 26.7987 31.2L26.7854 33.0533H28.6654C29.1054 33.0533 29.4654 33.4133 29.4654 33.8533C29.452 34.08 29.3587 34.2667 29.212 34.4267Z" fill="#CC2127"/>
<path d="M36.8946 33.4267C36.188 34.08 35.3746 34.5733 34.4946 34.9067C33.6146 35.24 32.668 34.6 32.668 33.6533V31.8933C32.668 29.2933 30.5613 27.1867 27.9613 27.1867H24.0413C21.4413 27.1867 19.3346 29.2933 19.3346 31.8933V34C19.3346 34.7333 18.7346 35.3333 18.0013 35.3333H17.4013C14.1346 34.84 12.668 32.1867 12.668 29.8133C12.668 27.5733 13.9746 25.0933 16.8146 24.4C16.028 21.2933 16.6946 18.3733 18.7213 16.2533C21.028 13.84 24.708 12.88 27.8813 13.8667C30.8013 14.76 32.8546 17.16 33.588 20.4933C36.1346 21.0667 38.1746 22.9867 38.988 25.6533C39.868 28.5467 39.068 31.52 36.8946 33.4267Z" fill="#CC2127"/>
</g>
<defs>
<clipPath id="clip0_1744_47626">
<rect width="64" height="64" fill="white"/>
</clipPath>
</defs>
</svg>
