<svg width="64" height="64" viewBox="0 0 64 64" fill="none" xmlns="http://www.w3.org/2000/svg">
<g id="vuesax/bold/code">
<g id="code">
<path id="Vector" d="M55.9999 26.6666H7.99992C6.53325 26.6666 5.33325 27.8666 5.33325 29.3333V43.1733C5.33325 43.7066 5.35992 44.24 5.41325 44.7733C5.94659 52.9866 11.0133 58.0533 19.2266 58.5866C19.7599 58.64 20.2933 58.6666 20.8266 58.6666H43.1733C43.7066 58.6666 44.2399 58.64 44.7733 58.5866C52.9866 58.0533 58.0533 52.9866 58.5866 44.7733C58.6399 44.24 58.6666 43.7066 58.6666 43.1733V29.3333C58.6666 27.8666 57.4666 26.6666 55.9999 26.6666ZM21.3333 43.0666C22.2399 44.4 23.4666 45.4933 24.8799 46.2133C25.8933 46.6933 26.2933 47.8933 25.7866 48.9066C25.4399 49.6 24.7199 50 23.9999 50C23.7066 50 23.3866 49.92 23.1199 49.7866C21.0399 48.7733 19.2799 47.2 18.0266 45.3066C16.9599 43.7066 16.9599 41.6266 18.0266 40.0266C19.2799 38.1333 21.0399 36.56 23.1199 35.5466C24.1066 35.04 25.3066 35.44 25.7866 36.4266C26.2933 37.44 25.8933 38.64 24.8799 39.12C23.4666 39.84 22.2399 40.9333 21.3333 42.2666C21.1733 42.5066 21.1733 42.8266 21.3333 43.0666ZM46.5333 45.3066C45.2533 47.2 43.4933 48.7733 41.4399 49.7866C41.1466 49.92 40.8533 50 40.5599 50C39.8133 50 39.1199 49.6 38.7733 48.9066C38.2666 47.8933 38.6666 46.6933 39.6533 46.2133C41.0933 45.4933 42.3199 44.4 43.1999 43.0666C43.3866 42.8266 43.3866 42.5066 43.1999 42.2666C42.3199 40.9333 41.0933 39.84 39.6533 39.12C38.6666 38.64 38.2666 37.44 38.7733 36.4266C39.2533 35.44 40.4533 35.04 41.4399 35.5466C43.4933 36.56 45.2533 38.1333 46.5333 40.0266C47.5999 41.6266 47.5999 43.7066 46.5333 45.3066Z" fill="#0B1621"/>
<path id="Vector_2" d="M58.6666 20.8267V21.3334C58.6666 22.8 57.4666 24 55.9999 24L7.99992 24.0267C6.53325 24.0267 5.33325 22.8267 5.33325 21.36V20.8267C5.33325 20.2934 5.35992 19.76 5.41325 19.2267C5.94659 11.0134 11.0133 5.94671 19.2266 5.41337C19.7599 5.36004 20.2933 5.33337 20.8266 5.33337H43.1733C43.7066 5.33337 44.2399 5.36004 44.7733 5.41337C52.9866 5.94671 58.0533 11.0134 58.5866 19.2267C58.6399 19.76 58.6666 20.2934 58.6666 20.8267Z" fill="#0B1621"/>
</g>
</g>
</svg>
