<svg width="157" height="156" viewBox="0 0 157 156" fill="none" xmlns="http://www.w3.org/2000/svg">
<rect x="0.5" width="156" height="156" rx="6" fill="#F7F8FA"/>
<path d="M96.5 67.3334V72.9334C95.3267 72.7734 93.9933 72.6934 92.5 72.6667V67.3334C92.5 58.9334 90.1267 53.3334 78.5 53.3334C66.8733 53.3334 64.5 58.9334 64.5 67.3334V72.6667C63.0067 72.6934 61.6733 72.7734 60.5 72.9334V67.3334C60.5 59.6 62.3667 49.3334 78.5 49.3334C94.6333 49.3334 96.5 59.6 96.5 67.3334Z" fill="#CC2127"/>
<path d="M96.4987 72.9333C95.3254 72.7733 93.992 72.6933 92.4987 72.6666H64.4987C63.0054 72.6933 61.672 72.7733 60.4987 72.9333C53.6987 73.76 51.832 77.0933 51.832 86V91.3333C51.832 102 54.4987 104.667 65.1654 104.667H91.832C102.499 104.667 105.165 102 105.165 91.3333V86C105.165 77.0933 103.299 73.76 96.4987 72.9333ZM69.7254 90.56C69.2187 91.04 68.5254 91.3333 67.832 91.3333C67.4854 91.3333 67.1387 91.2533 66.8187 91.12C66.472 90.9866 66.2054 90.8 65.9387 90.56C65.4587 90.0533 65.1654 89.36 65.1654 88.6666C65.1654 88.32 65.2454 87.9733 65.3787 87.6533C65.512 87.3333 65.6987 87.04 65.9387 86.7733C66.2054 86.5333 66.472 86.3466 66.8187 86.2133C67.8054 85.7866 68.9787 86.0266 69.7254 86.7733C69.9654 87.04 70.152 87.3333 70.2854 87.6533C70.4187 87.9733 70.4987 88.32 70.4987 88.6666C70.4987 89.36 70.2054 90.0533 69.7254 90.56ZM80.952 89.68C80.8187 90 80.632 90.2933 80.392 90.56C79.8854 91.04 79.192 91.3333 78.4987 91.3333C77.7787 91.3333 77.112 91.04 76.6054 90.56C76.3654 90.2933 76.1787 90 76.0454 89.68C75.912 89.36 75.832 89.0133 75.832 88.6666C75.832 87.9466 76.1254 87.28 76.6054 86.7733C77.592 85.7866 79.3787 85.7866 80.392 86.7733C80.872 87.28 81.1654 87.9466 81.1654 88.6666C81.1654 89.0133 81.0854 89.36 80.952 89.68ZM91.0587 90.56C90.552 91.04 89.8587 91.3333 89.1654 91.3333C88.472 91.3333 87.7787 91.04 87.272 90.56C86.792 90.0533 86.4987 89.3866 86.4987 88.6666C86.4987 87.9466 86.792 87.28 87.272 86.7733C88.2854 85.7866 90.072 85.7866 91.0587 86.7733C91.1654 86.9066 91.272 87.04 91.3787 87.2C91.4854 87.3333 91.5654 87.4933 91.6187 87.6533C91.6987 87.8133 91.752 87.9733 91.7787 88.1333C91.8054 88.32 91.832 88.5066 91.832 88.6666C91.832 89.36 91.5387 90.0533 91.0587 90.56Z" fill="#CC2127"/>
</svg>
