<svg width="25" height="24" viewBox="0 0 25 24" fill="none" xmlns="http://www.w3.org/2000/svg">
<path d="M21.3967 7.62047H15.8567C15.4767 7.62047 15.1667 7.31047 15.1667 6.92047C15.1667 6.54047 15.4767 6.23047 15.8567 6.23047H21.3967C21.7767 6.23047 22.0867 6.54047 22.0867 6.92047C22.0867 7.31047 21.7767 7.62047 21.3967 7.62047Z" fill="#0B1621"/>
<path d="M6.62683 7.61999H2.93683C2.55683 7.61999 2.24683 7.30999 2.24683 6.92999C2.24683 6.54999 2.55683 6.23999 2.93683 6.23999H6.62683C7.00683 6.23999 7.31683 6.54999 7.31683 6.92999C7.31683 7.30999 7.00683 7.61999 6.62683 7.61999Z" fill="#0B1621"/>
<path d="M10.3172 10.84C12.4822 10.84 14.2372 9.08496 14.2372 6.92C14.2372 4.75504 12.4822 3 10.3172 3C8.15226 3 6.39722 4.75504 6.39722 6.92C6.39722 9.08496 8.15226 10.84 10.3172 10.84Z" fill="#0B1621"/>
<path d="M21.3964 17.7696H17.7064C17.3264 17.7696 17.0164 17.4596 17.0164 17.0796C17.0164 16.6996 17.3264 16.3896 17.7064 16.3896H21.3964C21.7764 16.3896 22.0864 16.6996 22.0864 17.0796C22.0864 17.4596 21.7764 17.7696 21.3964 17.7696Z" fill="#0B1621"/>
<path d="M8.47683 17.7696H2.93683C2.55683 17.7696 2.24683 17.4596 2.24683 17.0796C2.24683 16.6996 2.55683 16.3896 2.93683 16.3896H8.47683C8.85683 16.3896 9.16683 16.6996 9.16683 17.0796C9.16683 17.4596 8.85683 17.7696 8.47683 17.7696Z" fill="#0B1621"/>
<path d="M14.0164 21.0002C16.1814 21.0002 17.9364 19.2451 17.9364 17.0802C17.9364 14.9152 16.1814 13.1602 14.0164 13.1602C11.8515 13.1602 10.0964 14.9152 10.0964 17.0802C10.0964 19.2451 11.8515 21.0002 14.0164 21.0002Z" fill="#0B1621"/>
</svg>
