<svg width="25" height="24" viewBox="0 0 25 24" fill="none" xmlns="http://www.w3.org/2000/svg">
<path d="M21.3941 7.62047H15.8541C15.4741 7.62047 15.1641 7.31047 15.1641 6.92047C15.1641 6.54047 15.4741 6.23047 15.8541 6.23047H21.3941C21.7741 6.23047 22.0841 6.54047 22.0841 6.92047C22.0841 7.31047 21.7741 7.62047 21.3941 7.62047Z" fill="#0B1621"/>
<path d="M6.62219 7.61999H2.93219C2.55219 7.61999 2.24219 7.30999 2.24219 6.92999C2.24219 6.54999 2.55219 6.23999 2.93219 6.23999H6.62219C7.00219 6.23999 7.31219 6.54999 7.31219 6.92999C7.31219 7.30999 7.00219 7.61999 6.62219 7.61999Z" fill="#0B1621"/>
<path d="M10.3145 10.84C12.4795 10.84 14.2345 9.08496 14.2345 6.92C14.2345 4.75504 12.4795 3 10.3145 3C8.14957 3 6.39453 4.75504 6.39453 6.92C6.39453 9.08496 8.14957 10.84 10.3145 10.84Z" fill="#0B1621"/>
<path d="M21.3956 17.7696H17.7056C17.3256 17.7696 17.0156 17.4596 17.0156 17.0796C17.0156 16.6996 17.3256 16.3896 17.7056 16.3896H21.3956C21.7756 16.3896 22.0856 16.6996 22.0856 17.0796C22.0856 17.4596 21.7756 17.7696 21.3956 17.7696Z" fill="#0B1621"/>
<path d="M8.47219 17.7696H2.93219C2.55219 17.7696 2.24219 17.4596 2.24219 17.0796C2.24219 16.6996 2.55219 16.3896 2.93219 16.3896H8.47219C8.85219 16.3896 9.16219 16.6996 9.16219 17.0796C9.16219 17.4596 8.85219 17.7696 8.47219 17.7696Z" fill="#0B1621"/>
<path d="M14.0138 21.0002C16.1787 21.0002 17.9338 19.2451 17.9338 17.0802C17.9338 14.9152 16.1787 13.1602 14.0138 13.1602C11.8488 13.1602 10.0938 14.9152 10.0938 17.0802C10.0938 19.2451 11.8488 21.0002 14.0138 21.0002Z" fill="#0B1621"/>
</svg>
