<svg width="64" height="64" viewBox="0 0 64 64" fill="none" xmlns="http://www.w3.org/2000/svg">
<g clip-path="url(#clip0_783_451)">
<rect opacity="0.05" x="12" y="12" width="52" height="52" rx="6" fill="white"/>
<rect width="52" height="52" rx="6" fill="#232D37"/>
<path d="M31.586 12.6667H20.4127C15.5593 12.6667 12.666 15.56 12.666 20.4133V31.5733C12.666 36.44 15.5593 39.3333 20.4127 39.3333H31.5727C36.426 39.3333 39.3193 36.44 39.3193 31.5867V20.4133C39.3327 15.56 36.4394 12.6667 31.586 12.6667ZM20.226 17.3333C20.226 16.7867 20.6793 16.3333 21.226 16.3333C21.7727 16.3333 22.226 16.7867 22.226 17.3333V22.5333C22.226 23.08 21.7727 23.5333 21.226 23.5333C20.6793 23.5333 20.226 23.08 20.226 22.5333V17.3333ZM22.5811 31.9572C22.3747 32.0406 22.226 32.2332 22.226 32.4558V34.6667C22.226 35.2133 21.7727 35.6667 21.226 35.6667C20.6793 35.6667 20.226 35.2133 20.226 34.6667V32.4558C20.226 32.2332 20.0773 32.0406 19.8709 31.9571C18.5367 31.4173 17.5993 30.1216 17.5993 28.6C17.5993 26.6 19.226 24.96 21.226 24.96C23.226 24.96 24.866 26.5867 24.866 28.6C24.866 30.1217 23.9173 31.4175 22.5811 31.9572ZM31.7727 34.6667C31.7727 35.2133 31.3193 35.6667 30.7727 35.6667C30.226 35.6667 29.7727 35.2133 29.7727 34.6667V29.4667C29.7727 28.92 30.226 28.4667 30.7727 28.4667C31.3193 28.4667 31.7727 28.92 31.7727 29.4667V34.6667ZM30.7727 27.0267C28.7727 27.0267 27.1327 25.4 27.1327 23.3867C27.1327 21.865 28.0814 20.5692 29.4176 20.0294C29.624 19.946 29.7727 19.7535 29.7727 19.5309V17.3333C29.7727 16.7867 30.226 16.3333 30.7727 16.3333C31.3193 16.3333 31.7727 16.7867 31.7727 17.3333V19.5442C31.7727 19.7668 31.9214 19.9594 32.1278 20.0428C33.462 20.5826 34.3993 21.8784 34.3993 23.4C34.3993 25.4 32.7727 27.0267 30.7727 27.0267Z" fill="#CC2127"/>
</g>
<defs>
<clipPath id="clip0_783_451">
<rect width="64" height="64" fill="white"/>
</clipPath>
</defs>
</svg>
