<svg width="65" height="64" viewBox="0 0 65 64" fill="none" xmlns="http://www.w3.org/2000/svg">
<g clip-path="url(#clip0_1_13577)">
<rect x="12.333" y="12" width="52" height="52" rx="6" fill="#F7F8FA"/>
<rect opacity="0.5" x="0.333008" width="52" height="52" rx="6" fill="#F5D3D4"/>
<path d="M32.668 13.2402H19.3346C15.3346 13.2402 12.668 15.9069 12.668 19.9069V27.9069C12.668 31.9069 15.3346 34.5736 19.3346 34.5736V37.4136C19.3346 38.4802 20.5213 39.1202 21.4013 38.5202L27.3346 34.5736H32.668C36.668 34.5736 39.3346 31.9069 39.3346 27.9069V19.9069C39.3346 15.9069 36.668 13.2402 32.668 13.2402ZM26.0013 29.4669C25.4413 29.4669 25.0013 29.0136 25.0013 28.4669C25.0013 27.9202 25.4413 27.4669 26.0013 27.4669C26.5613 27.4669 27.0013 27.9202 27.0013 28.4669C27.0013 29.0136 26.5613 29.4669 26.0013 29.4669ZM27.6813 23.9336C27.1613 24.2802 27.0013 24.5069 27.0013 24.8802V25.1602C27.0013 25.7069 26.548 26.1602 26.0013 26.1602C25.4546 26.1602 25.0013 25.7069 25.0013 25.1602V24.8802C25.0013 23.3336 26.1346 22.5736 26.5613 22.2802C27.0546 21.9469 27.2146 21.7202 27.2146 21.3736C27.2146 20.7069 26.668 20.1602 26.0013 20.1602C25.3346 20.1602 24.788 20.7069 24.788 21.3736C24.788 21.9202 24.3346 22.3736 23.788 22.3736C23.2413 22.3736 22.788 21.9202 22.788 21.3736C22.788 19.6002 24.228 18.1602 26.0013 18.1602C27.7746 18.1602 29.2146 19.6002 29.2146 21.3736C29.2146 22.8936 28.0946 23.6536 27.6813 23.9336Z" fill="#CC2127"/>
</g>
<defs>
<clipPath id="clip0_1_13577">
<rect width="64" height="64" fill="white" transform="translate(0.333008)"/>
</clipPath>
</defs>
</svg>
