<svg width="16" height="32" viewBox="0 0 16 32" fill="none" xmlns="http://www.w3.org/2000/svg">
<path d="M7.246 4.91273C7.20733 4.9504 7.042 5.09263 6.906 5.22512C6.05067 6.00187 4.65067 8.02817 4.22333 9.08873C4.15467 9.2498 4.00933 9.65701 4 9.87457C4 10.083 4.048 10.2818 4.14533 10.4714C4.28133 10.7078 4.49533 10.8975 4.748 11.0014C4.92333 11.0683 5.448 11.1722 5.45733 11.1722C6.03133 11.2761 6.964 11.3333 7.99467 11.3333C8.97667 11.3333 9.87133 11.2761 10.454 11.191C10.4633 11.1813 11.1153 11.0774 11.3387 10.9637C11.7467 10.7552 12 10.348 12 9.91224V9.87457C11.99 9.59076 11.7367 8.99391 11.7273 8.99391C11.2993 7.9905 9.968 6.01096 9.08333 5.21538C9.08333 5.21538 8.856 4.99131 8.714 4.8939C8.51 4.74192 8.25733 4.66659 8.00467 4.66659C7.72267 4.66659 7.46 4.75166 7.246 4.91273Z" fill="#0B1621"/>
<path d="M7.246 27.0873C7.20733 27.0496 7.042 26.9074 6.906 26.7749C6.05067 25.9981 4.65067 23.9718 4.22333 22.9113C4.15467 22.7502 4.00933 22.343 4 22.1254C4 21.917 4.048 21.7182 4.14533 21.5286C4.28133 21.2922 4.49533 21.1025 4.748 20.9986C4.92333 20.9317 5.448 20.8278 5.45733 20.8278C6.03133 20.7239 6.964 20.6667 7.99467 20.6667C8.97667 20.6667 9.87133 20.7239 10.454 20.809C10.4633 20.8187 11.1153 20.9226 11.3387 21.0363C11.7467 21.2448 12 21.652 12 22.0878V22.1254C11.99 22.4092 11.7367 23.0061 11.7273 23.0061C11.2993 24.0095 9.968 25.989 9.08333 26.7846C9.08333 26.7846 8.856 27.0087 8.714 27.1061C8.51 27.2581 8.25733 27.3334 8.00467 27.3334C7.72267 27.3334 7.46 27.2483 7.246 27.0873Z" fill="#0B1621"/>
</svg>
