<svg width="16" height="16" viewBox="0 0 16 16" fill="none" xmlns="http://www.w3.org/2000/svg">
<g id="Iconly/Bold/Arrow - Right 2">
<g id="Arrow - Right 2">
<path id="Arrow - Right 2_2" d="M4.91151 7.246C4.94918 7.20733 5.09141 7.042 5.2239 6.906C6.00065 6.05067 8.02695 4.65067 9.08751 4.22333C9.24858 4.15467 9.65579 4.00933 9.87335 4C10.0818 4 10.2806 4.048 10.4702 4.14533C10.7066 4.28133 10.8962 4.49533 11.0002 4.748C11.0671 4.92333 11.171 5.448 11.171 5.45733C11.2749 6.03133 11.332 6.964 11.332 7.99467C11.332 8.97667 11.2749 9.87133 11.1898 10.454C11.1801 10.4633 11.0761 11.1153 10.9625 11.3387C10.754 11.7467 10.3468 12 9.91102 12H9.87335C9.58954 11.99 8.99269 11.7367 8.99269 11.7273C7.98928 11.2993 6.00974 9.968 5.21416 9.08333C5.21416 9.08333 4.99009 8.856 4.89267 8.714C4.7407 8.51 4.66537 8.25733 4.66537 8.00467C4.66537 7.72267 4.75044 7.46 4.91151 7.246Z" fill="#0B1621"/>
</g>
</g>
</svg>
