<svg width="16" height="16" viewBox="0 0 16 16" fill="none" xmlns="http://www.w3.org/2000/svg">
<g id="Iconly/Bold/Arrow - Right 2">
<g id="Arrow - Right 2">
<path id="Arrow - Right 2_2" d="M11.0885 7.246C11.0508 7.20733 10.9086 7.042 10.7761 6.906C9.99935 6.05067 7.97305 4.65067 6.91249 4.22333C6.75142 4.15467 6.34421 4.00933 6.12665 4C5.91817 4 5.71944 4.048 5.5298 4.14533C5.29339 4.28133 5.10375 4.49533 4.99984 4.748C4.93295 4.92333 4.82903 5.448 4.82903 5.45733C4.72512 6.03133 4.66797 6.964 4.66797 7.99467C4.66797 8.97667 4.72512 9.87133 4.8102 10.454C4.81994 10.4633 4.92385 11.1153 5.03751 11.3387C5.24598 11.7467 5.65319 12 6.08898 12H6.12665C6.41046 11.99 7.00731 11.7367 7.00731 11.7273C8.01072 11.2993 9.99026 9.968 10.7858 9.08333C10.7858 9.08333 11.0099 8.856 11.1073 8.714C11.2593 8.51 11.3346 8.25733 11.3346 8.00467C11.3346 7.72267 11.2496 7.46 11.0885 7.246Z" fill="#0B1621"/>
</g>
</g>
</svg>
