<svg width="65" height="64" viewBox="0 0 65 64" fill="none" xmlns="http://www.w3.org/2000/svg">
<g clip-path="url(#clip0_622_1500)">
<rect x="12.666" y="12" width="52" height="52" rx="6" fill="#F7F8FA"/>
<rect opacity="0.5" x="0.666016" width="52" height="52" rx="6" fill="#F5D3D4"/>
<path d="M36.4254 12.6667H16.9054C14.9454 12.6667 13.332 14.2801 13.332 16.2401V19.7467C13.332 21.7201 14.9454 23.3334 16.9054 23.3334H36.412C38.3854 23.3334 39.9987 21.7201 39.9987 19.7601V16.2401C39.9987 14.2801 38.3854 12.6667 36.4254 12.6667ZM19.6654 19.3334C19.6654 19.8801 19.212 20.3334 18.6654 20.3334C18.1187 20.3334 17.6654 19.8801 17.6654 19.3334V16.6667C17.6654 16.1201 18.1187 15.6667 18.6654 15.6667C19.212 15.6667 19.6654 16.1201 19.6654 16.6667V19.3334ZM24.9987 19.3334C24.9987 19.8801 24.5454 20.3334 23.9987 20.3334C23.452 20.3334 22.9987 19.8801 22.9987 19.3334V16.6667C22.9987 16.1201 23.452 15.6667 23.9987 15.6667C24.5454 15.6667 24.9987 16.1201 24.9987 16.6667V19.3334ZM34.6654 19.0001H29.332C28.7854 19.0001 28.332 18.5467 28.332 18.0001C28.332 17.4534 28.7854 17.0001 29.332 17.0001H34.6654C35.212 17.0001 35.6654 17.4534 35.6654 18.0001C35.6654 18.5467 35.212 19.0001 34.6654 19.0001Z" fill="#CC2127"/>
<path d="M36.4254 28.6667H16.9054C14.9454 28.6667 13.332 30.2801 13.332 32.2401V35.7467C13.332 37.7201 14.9454 39.3334 16.9054 39.3334H36.412C38.3854 39.3334 39.9854 37.7201 39.9854 35.7601V32.2534C39.9987 30.2801 38.3854 28.6667 36.4254 28.6667ZM19.6654 35.3334C19.6654 35.8801 19.212 36.3334 18.6654 36.3334C18.1187 36.3334 17.6654 35.8801 17.6654 35.3334V32.6667C17.6654 32.1201 18.1187 31.6667 18.6654 31.6667C19.212 31.6667 19.6654 32.1201 19.6654 32.6667V35.3334ZM24.9987 35.3334C24.9987 35.8801 24.5454 36.3334 23.9987 36.3334C23.452 36.3334 22.9987 35.8801 22.9987 35.3334V32.6667C22.9987 32.1201 23.452 31.6667 23.9987 31.6667C24.5454 31.6667 24.9987 32.1201 24.9987 32.6667V35.3334ZM34.6654 35.0001H29.332C28.7854 35.0001 28.332 34.5467 28.332 34.0001C28.332 33.4534 28.7854 33.0001 29.332 33.0001H34.6654C35.212 33.0001 35.6654 33.4534 35.6654 34.0001C35.6654 34.5467 35.212 35.0001 34.6654 35.0001Z" fill="#CC2127"/>
</g>
<defs>
<clipPath id="clip0_622_1500">
<rect width="64" height="64" fill="white" transform="translate(0.666016)"/>
</clipPath>
</defs>
</svg>
