<svg width="64" height="64" viewBox="0 0 64 64" fill="none" xmlns="http://www.w3.org/2000/svg">
<g clip-path="url(#clip0_622_1523)">
<rect x="12" y="12" width="52" height="52" rx="6" fill="#F7F8FA"/>
<rect opacity="0.5" width="52" height="52" rx="6" fill="#F5D3D4"/>
<path d="M20.813 25.8C17.053 26.0667 17.0664 31.5333 20.813 31.8H29.7064C30.7864 31.8133 31.8264 31.4 32.6264 30.68C35.2664 28.3733 33.8531 23.7467 30.3864 23.3067C29.1464 15.7867 18.2797 18.64 20.853 25.8" fill="#CC2127"/>
<path d="M21.9993 40.3333C16.306 40.3333 11.666 35.6933 11.666 30C11.666 29.4533 12.1193 29 12.666 29C13.2127 29 13.666 29.4533 13.666 30C13.666 33.9467 16.4127 37.2533 20.106 38.12L19.746 37.52C19.466 37.04 19.6127 36.4267 20.0927 36.1467C20.5593 35.8667 21.186 36.0133 21.466 36.4933L22.866 38.8267C23.0527 39.1333 23.0527 39.52 22.8793 39.8267C22.6927 40.1333 22.3593 40.3333 21.9993 40.3333Z" fill="#CC2127"/>
<path d="M39.3339 23.0001C38.7872 23.0001 38.3339 22.5467 38.3339 22.0001C38.3339 18.0534 35.5872 14.7467 31.8939 13.8801L32.2539 14.4801C32.5339 14.9601 32.3872 15.5734 31.9072 15.8534C31.4406 16.1334 30.8139 15.9867 30.5339 15.5067L29.1339 13.1734C28.9472 12.8667 28.9472 12.4801 29.1206 12.1734C29.3072 11.8667 29.6406 11.6667 30.0006 11.6667C35.6939 11.6667 40.3339 16.3067 40.3339 22.0001C40.3339 22.5467 39.8806 23.0001 39.3339 23.0001Z" fill="#CC2127"/>
</g>
<defs>
<clipPath id="clip0_622_1523">
<rect width="64" height="64" fill="white"/>
</clipPath>
</defs>
</svg>
