<svg width="64" height="64" viewBox="0 0 64 64" fill="none" xmlns="http://www.w3.org/2000/svg">
<g clip-path="url(#clip0_622_1489)">
<rect x="12" y="12" width="52" height="52" rx="6" fill="#F7F8FA"/>
<rect opacity="0.5" width="52" height="52" rx="6" fill="#F5D3D4"/>
<path d="M37.8791 24.8268V18.9734C37.8791 17.8801 37.0525 16.6401 36.0258 16.2268L28.5991 13.1868C26.9325 12.5068 25.0525 12.5068 23.3858 13.1868L15.9591 16.2268C14.9458 16.6401 14.1191 17.8801 14.1191 18.9734V24.8268C14.1191 31.3468 18.8525 37.4534 25.3191 39.2401C25.7591 39.3601 26.2391 39.3601 26.6791 39.2401C33.1458 37.4534 37.8791 31.3468 37.8791 24.8268ZM26.9991 27.1601V30.6668C26.9991 31.2134 26.5458 31.6668 25.9991 31.6668C25.4525 31.6668 24.9991 31.2134 24.9991 30.6668V27.1601C23.6525 26.7334 22.6658 25.4801 22.6658 24.0001C22.6658 22.1601 24.1591 20.6668 25.9991 20.6668C27.8391 20.6668 29.3325 22.1601 29.3325 24.0001C29.3325 25.4934 28.3458 26.7334 26.9991 27.1601Z" fill="#CC2127"/>
</g>
<defs>
<clipPath id="clip0_622_1489">
<rect width="64" height="64" fill="white"/>
</clipPath>
</defs>
</svg>
