<svg width="65" height="64" viewBox="0 0 65 64" fill="none" xmlns="http://www.w3.org/2000/svg">
<g clip-path="url(#clip0_622_1512)">
<rect x="12.334" y="12" width="52" height="52" rx="6" fill="#F7F8FA"/>
<rect opacity="0.5" x="0.333984" width="52" height="52" rx="6" fill="#F5D3D4"/>
<path d="M37.5478 19.2799V21.7199C37.5478 22.5733 37.1478 23.3733 36.4544 23.8666L21.7878 34.6133C20.8411 35.3066 19.5478 35.3066 18.6144 34.5999L16.6944 33.1599C15.8278 32.5066 15.1211 31.0933 15.1211 30.0133V19.2799C15.1211 17.7866 16.2678 16.1333 17.6678 15.6133L24.9611 12.8799C25.7211 12.5999 26.9478 12.5999 27.7078 12.8799L35.0011 15.6133C36.4011 16.1333 37.5478 17.7866 37.5478 19.2799Z" fill="#CC2127"/>
<path d="M35.4268 26.4533C36.3068 25.8133 37.5468 26.44 37.5468 27.5333V30.04C37.5468 31.12 36.8401 32.52 35.9735 33.1733L28.6801 38.6267C28.0401 39.0933 27.1868 39.3333 26.3335 39.3333C25.4801 39.3333 24.6268 39.0933 23.9868 38.6133L22.8801 37.7867C22.1601 37.2533 22.1601 36.1733 22.8935 35.64L35.4268 26.4533Z" fill="#CC2127"/>
</g>
<defs>
<clipPath id="clip0_622_1512">
<rect width="64" height="64" fill="white" transform="translate(0.333984)"/>
</clipPath>
</defs>
</svg>
