<svg width="64" height="64" viewBox="0 0 64 64" fill="none" xmlns="http://www.w3.org/2000/svg">
<g clip-path="url(#clip0_617_1194)">
<rect x="12" y="12" width="52" height="52" rx="6" fill="#F7F8FA"/>
<rect opacity="0.5" width="52" height="52" rx="6" fill="#F5D3D4"/>
<path d="M36.3875 15.6266C32.4408 11.6933 26.0408 11.6933 22.1208 15.6266C19.3608 18.36 18.5342 22.2933 19.6008 25.76L13.3342 32.0266C12.8942 32.48 12.5875 33.3733 12.6808 34.0133L13.0808 36.92C13.2275 37.88 14.1208 38.7866 15.0808 38.92L17.9875 39.32C18.6275 39.4133 19.5208 39.12 19.9742 38.6533L21.0675 37.56C21.3342 37.3066 21.3342 36.88 21.0675 36.6133L18.4808 34.0266C18.0942 33.64 18.0942 33 18.4808 32.6133C18.8675 32.2266 19.5075 32.2266 19.8942 32.6133L22.4942 35.2133C22.7475 35.4666 23.1742 35.4666 23.4275 35.2133L26.2542 32.4C29.7075 33.48 33.6408 32.64 36.3875 29.9066C40.3208 25.9733 40.3208 19.56 36.3875 15.6266ZM29.3342 26C27.4942 26 26.0008 24.5066 26.0008 22.6666C26.0008 20.8266 27.4942 19.3333 29.3342 19.3333C31.1742 19.3333 32.6675 20.8266 32.6675 22.6666C32.6675 24.5066 31.1742 26 29.3342 26Z" fill="#CC2127"/>
</g>
<defs>
<clipPath id="clip0_617_1194">
<rect width="64" height="64" fill="white"/>
</clipPath>
</defs>
</svg>
