<svg width="65" height="64" viewBox="0 0 65 64" fill="none" xmlns="http://www.w3.org/2000/svg">
<g clip-path="url(#clip0_622_1547)">
<rect x="12.334" y="12" width="52" height="52" rx="6" fill="#F7F8FA"/>
<rect opacity="0.5" x="0.333984" width="52" height="52" rx="6" fill="#F5D3D4"/>
<path d="M33 13.24H19.6667C15.6667 13.24 13 15.9067 13 19.9067V27.9067C13 31.9067 15.6667 34.5733 19.6667 34.5733V37.4133C19.6667 38.48 20.8533 39.12 21.7333 38.52L27.6667 34.5733H33C37 34.5733 39.6667 31.9067 39.6667 27.9067V19.9067C39.6667 15.9067 37 13.24 33 13.24ZM26.3333 29.4667C25.7733 29.4667 25.3333 29.0133 25.3333 28.4667C25.3333 27.92 25.7733 27.4667 26.3333 27.4667C26.8933 27.4667 27.3333 27.92 27.3333 28.4667C27.3333 29.0133 26.8933 29.4667 26.3333 29.4667ZM28.0133 23.9333C27.4933 24.28 27.3333 24.5067 27.3333 24.88V25.16C27.3333 25.7067 26.88 26.16 26.3333 26.16C25.7867 26.16 25.3333 25.7067 25.3333 25.16V24.88C25.3333 23.3333 26.4667 22.5733 26.8933 22.28C27.3867 21.9467 27.5467 21.72 27.5467 21.3733C27.5467 20.7067 27 20.16 26.3333 20.16C25.6667 20.16 25.12 20.7067 25.12 21.3733C25.12 21.92 24.6667 22.3733 24.12 22.3733C23.5733 22.3733 23.12 21.92 23.12 21.3733C23.12 19.6 24.56 18.16 26.3333 18.16C28.1067 18.16 29.5467 19.6 29.5467 21.3733C29.5467 22.8933 28.4267 23.6533 28.0133 23.9333Z" fill="#CC2127"/>
</g>
<defs>
<clipPath id="clip0_622_1547">
<rect width="64" height="64" fill="white" transform="translate(0.333984)"/>
</clipPath>
</defs>
</svg>
