<svg width="65" height="64" viewBox="0 0 65 64" fill="none" xmlns="http://www.w3.org/2000/svg">
<g clip-path="url(#clip0_622_1536)">
<rect x="12.666" y="12" width="52" height="52" rx="6" fill="#F7F8FA"/>
<rect opacity="0.5" x="0.666016" width="52" height="52" rx="6" fill="#F5D3D4"/>
<path d="M32.252 12.6667H21.0787C16.2254 12.6667 13.332 15.5601 13.332 20.4134V31.5734C13.332 36.4401 16.2254 39.3334 21.0787 39.3334H32.2387C37.092 39.3334 39.9854 36.4401 39.9854 31.5868V20.4134C39.9987 15.5601 37.1054 12.6667 32.252 12.6667ZM23.9187 27.6934C23.012 29.0534 21.7587 30.1601 20.292 30.8934C20.1587 30.9601 19.9987 31.0001 19.852 31.0001C19.4787 31.0001 19.132 30.8001 18.9587 30.4534C18.7054 29.9601 18.9054 29.3601 19.412 29.1067C20.572 28.5334 21.5587 27.6534 22.2654 26.5867C22.5054 26.2267 22.5054 25.7734 22.2654 25.4134C21.5454 24.3467 20.5587 23.4667 19.412 22.8934C18.9054 22.6534 18.7054 22.0534 18.9587 21.5467C19.1987 21.0534 19.7987 20.8534 20.292 21.1067C21.7587 21.8401 23.012 22.9467 23.9187 24.3067C24.612 25.3334 24.612 26.6667 23.9187 27.6934ZM33.332 31.0001H27.9987C27.452 31.0001 26.9987 30.5467 26.9987 30.0001C26.9987 29.4534 27.452 29.0001 27.9987 29.0001H33.332C33.8787 29.0001 34.332 29.4534 34.332 30.0001C34.332 30.5467 33.8787 31.0001 33.332 31.0001Z" fill="#CC2127"/>
</g>
<defs>
<clipPath id="clip0_622_1536">
<rect width="64" height="64" fill="white" transform="translate(0.666016)"/>
</clipPath>
</defs>
</svg>
