<svg width="64" height="64" viewBox="0 0 64 64" fill="none" xmlns="http://www.w3.org/2000/svg">
<g clip-path="url(#clip0_1_13644)">
<rect x="12" y="12" width="52" height="52" rx="6" fill="#F7F8FA"/>
<rect opacity="0.5" width="52" height="52" rx="6" fill="#F5D3D4"/>
<path d="M33.4137 12.6667H18.547C15.307 12.6667 12.667 15.3067 12.667 18.5467V27.2134V27.4801C12.667 30.7334 15.307 33.3601 18.547 33.3601H23.667C24.4003 33.3601 25.0003 33.9601 25.0003 34.6934V35.9867C25.0003 36.7201 24.4003 37.3201 23.667 37.3201H20.4403C19.8937 37.3201 19.4403 37.7734 19.4403 38.3201C19.4403 38.8667 19.8803 39.3334 20.4403 39.3334H31.5737C32.1203 39.3334 32.5737 38.8801 32.5737 38.3334C32.5737 37.7867 32.1203 37.3334 31.5737 37.3334H28.347C27.6137 37.3334 27.0137 36.7334 27.0137 36.0001V34.7067C27.0137 33.9734 27.6137 33.3734 28.347 33.3734H33.427C36.6803 33.3734 39.307 30.7334 39.307 27.4934V27.2267V18.5601C39.2937 15.3067 36.6537 12.6667 33.4137 12.6667Z" fill="#CC2127"/>
</g>
<defs>
<clipPath id="clip0_1_13644">
<rect width="64" height="64" fill="white"/>
</clipPath>
</defs>
</svg>
