<svg width="64" height="64" viewBox="0 0 64 64" fill="none" xmlns="http://www.w3.org/2000/svg">
<g clip-path="url(#clip0_617_1205)">
<rect x="12" y="12" width="52" height="52" rx="6" fill="#F7F8FA"/>
<rect opacity="0.5" width="52" height="52" rx="6" fill="#F5D3D4"/>
<path d="M30.0009 40.3334C29.6409 40.3334 29.3076 40.1334 29.1342 39.8267C28.9609 39.5067 28.9609 39.1334 29.1476 38.8134L30.5476 36.48C30.8276 36 31.4542 35.8534 31.9209 36.1334C32.4009 36.4134 32.5476 37.0267 32.2676 37.5067L31.9076 38.1067C35.5876 37.24 38.3476 33.9334 38.3476 29.9867C38.3476 29.44 38.8009 28.9867 39.3476 28.9867C39.8942 28.9867 40.3476 29.44 40.3476 29.9867C40.3342 35.6934 35.6942 40.3334 30.0009 40.3334Z" fill="#CC2127"/>
<path d="M12.666 23C12.1193 23 11.666 22.5466 11.666 22C11.666 16.3066 16.306 11.6666 21.9993 11.6666C22.3593 11.6666 22.6927 11.8666 22.866 12.1733C23.0393 12.4933 23.0393 12.8666 22.8527 13.1866L21.4527 15.52C21.1727 15.9866 20.5593 16.1466 20.0793 15.8533C19.6127 15.5733 19.4527 14.96 19.746 14.48L20.106 13.88C16.4127 14.7466 13.666 18.0533 13.666 22C13.666 22.5466 13.2127 23 12.666 23Z" fill="#CC2127"/>
<path d="M29.7327 26.8401V30.7601C29.7327 34.0267 28.426 35.3334 25.1593 35.3334H21.2393C17.9727 35.3334 16.666 34.0267 16.666 30.7601V26.8401C16.666 23.5734 17.9727 22.2667 21.2393 22.2667H25.1593C28.426 22.2667 29.7327 23.5734 29.7327 26.8401Z" fill="#CC2127"/>
<path d="M30.7593 16.6666H26.8393C23.626 16.6666 22.3193 17.9466 22.2793 21.0933H25.1593C29.0793 21.0933 30.8926 22.92 30.8926 26.8266V29.7066C34.0526 29.6666 35.3193 28.36 35.3193 25.1466V21.24C35.3326 17.9733 34.026 16.6666 30.7593 16.6666Z" fill="#CC2127"/>
</g>
<defs>
<clipPath id="clip0_617_1205">
<rect width="64" height="64" fill="white"/>
</clipPath>
</defs>
</svg>
