<svg width="48" height="48" viewBox="0 0 48 48" fill="none" xmlns="http://www.w3.org/2000/svg">
<rect width="48" height="48" rx="24" fill="white"/>
<path d="M32.6786 17.33C31.1824 16.71 29.5624 16.26 27.8749 16C27.8601 15.9996 27.8454 16.0021 27.8318 16.0073C27.8182 16.0125 27.806 16.0202 27.7961 16.03C27.5936 16.36 27.3574 16.79 27.1999 17.12C25.41 16.88 23.5898 16.88 21.7999 17.12C21.6424 16.78 21.4061 16.36 21.1924 16.03C21.1811 16.01 21.1474 16 21.1136 16C19.4261 16.26 17.8174 16.71 16.3099 17.33C16.2986 17.33 16.2874 17.34 16.2761 17.35C13.2161 21.42 12.3724 25.38 12.7886 29.3C12.7886 29.32 12.7999 29.34 12.8224 29.35C14.8474 30.67 16.7936 31.47 18.7174 32C18.7511 32.01 18.7849 32 18.7961 31.98C19.2461 31.43 19.6511 30.85 19.9999 30.24C20.0224 30.2 19.9999 30.16 19.9549 30.15C19.3136 29.93 18.7061 29.67 18.1099 29.37C18.0649 29.35 18.0649 29.29 18.0986 29.26C18.2224 29.18 18.3461 29.09 18.4699 29.01C18.4924 28.99 18.5261 28.99 18.5486 29C22.4186 30.57 26.5924 30.57 30.4174 29C30.4399 28.99 30.4736 28.99 30.4961 29.01C30.6199 29.1 30.7436 29.18 30.8674 29.27C30.9124 29.3 30.9124 29.36 30.8561 29.38C30.2711 29.69 29.6524 29.94 29.0111 30.16C28.9661 30.17 28.9549 30.22 28.9661 30.25C29.3261 30.86 29.7311 31.44 30.1699 31.99C30.2036 32 30.2374 32.01 30.2711 32C32.2061 31.47 34.1524 30.67 36.1774 29.35C36.1999 29.34 36.2111 29.32 36.2111 29.3C36.7061 24.77 35.3899 20.84 32.7236 17.35C32.7124 17.34 32.7011 17.33 32.6786 17.33ZM20.5849 26.91C19.4261 26.91 18.4586 25.96 18.4586 24.79C18.4586 23.62 19.4036 22.67 20.5849 22.67C21.7774 22.67 22.7224 23.63 22.7111 24.79C22.7111 25.96 21.7661 26.91 20.5849 26.91ZM28.4261 26.91C27.2674 26.91 26.2999 25.96 26.2999 24.79C26.2999 23.62 27.2449 22.67 28.4261 22.67C29.6186 22.67 30.5636 23.63 30.5524 24.79C30.5524 25.96 29.6186 26.91 28.4261 26.91Z" fill="#0B1621"/>
</svg>
