<svg width="316" height="222" viewBox="0 0 316 222" fill="none" xmlns="http://www.w3.org/2000/svg">
<path d="M269.918 40.168H231.866C200.661 40.168 175.25 14.7563 175.25 -16.4487V-54.5003C175.25 -61.742 169.325 -67.667 162.083 -67.667H106.256C65.703 -67.667 32.918 -41.3337 32.918 5.67135V122.328C32.918 169.333 65.703 195.666 106.256 195.666H209.746C250.3 195.666 283.085 169.333 283.085 122.328V53.3347C283.085 46.093 277.16 40.168 269.918 40.168ZM161.688 113.77L135.355 140.103C134.433 141.025 133.248 141.815 132.063 142.21C130.878 142.736 129.693 143 128.376 143C127.06 143 125.875 142.736 124.69 142.21C123.636 141.815 122.583 141.025 121.793 140.235C121.661 140.103 121.53 140.103 121.53 139.971L95.1963 113.638C91.378 109.82 91.378 103.5 95.1963 99.6814C99.0146 95.863 105.335 95.863 109.153 99.6814L118.501 109.293V54.1247C118.501 48.7263 122.978 44.2497 128.376 44.2497C133.775 44.2497 138.251 48.7263 138.251 54.1247V109.293L147.731 99.813C151.55 95.9947 157.87 95.9947 161.688 99.813C165.506 103.631 165.506 109.951 161.688 113.77Z" fill="white"/>
<path d="M229.493 21.9988C242.002 22.1305 259.382 22.1305 274.26 22.1305C281.765 22.1305 285.715 13.3088 280.448 8.04214C261.488 -11.0495 227.518 -45.4145 208.032 -64.9012C202.633 -70.2995 193.285 -66.6129 193.285 -59.1079V-13.1562C193.285 6.06714 209.612 21.9988 229.493 21.9988Z" fill="white"/>
</svg>
