<svg width="65" height="64" viewBox="0 0 65 64" fill="none" xmlns="http://www.w3.org/2000/svg">
<g clip-path="url(#clip0_1_13621)">
<rect x="12.667" y="12" width="52" height="52" rx="6" fill="#F7F8FA"/>
<rect opacity="0.5" x="0.666992" width="52" height="52" rx="6" fill="#F5D3D4"/>
<path d="M27.9031 36.6093C28.2694 36.6945 28.3029 37.1743 27.9461 37.2932L25.8395 37.9866C20.5461 39.6932 17.7595 38.2666 16.0395 32.9732L14.3328 27.7066C12.6261 22.4132 14.0395 19.6132 19.3328 17.9066L20.3701 17.563C20.773 17.4296 21.1607 17.832 21.0383 18.2383C20.9262 18.6103 20.8211 19.0064 20.7195 19.4266L19.4128 25.0132C17.9461 31.2932 20.0928 34.7599 26.3728 36.2532L27.9031 36.6093Z" fill="#CC2127"/>
<path d="M33.8919 14.2799L31.6653 13.7599C27.2119 12.7066 24.5586 13.5733 22.9986 16.7999C22.5986 17.6133 22.2786 18.5999 22.0119 19.7333L20.7053 25.3199C19.3986 30.8933 21.1186 33.6399 26.6786 34.9599L28.9186 35.4933C29.6919 35.6799 30.4119 35.7999 31.0786 35.8533C35.2386 36.2533 37.4519 34.3066 38.5719 29.4933L39.8786 23.9199C41.1853 18.3466 39.4786 15.5866 33.8919 14.2799ZM31.3853 27.7733C31.2653 28.2266 30.8653 28.5199 30.4119 28.5199C30.3319 28.5199 30.2519 28.5066 30.1586 28.4933L26.2786 27.5066C25.7453 27.3733 25.4253 26.8266 25.5586 26.2933C25.6919 25.7599 26.2386 25.4399 26.7719 25.5733L30.6519 26.5599C31.1986 26.6933 31.5186 27.2399 31.3853 27.7733ZM35.2919 23.2666C35.1719 23.7199 34.7719 24.0133 34.3186 24.0133C34.2386 24.0133 34.1586 23.9999 34.0653 23.9866L27.5986 22.3466C27.0653 22.2133 26.7453 21.6666 26.8786 21.1333C27.0119 20.5999 27.5586 20.2799 28.0919 20.4133L34.5586 22.0533C35.1053 22.1733 35.4253 22.7199 35.2919 23.2666Z" fill="#CC2127"/>
</g>
<defs>
<clipPath id="clip0_1_13621">
<rect width="64" height="64" fill="white" transform="translate(0.666992)"/>
</clipPath>
</defs>
</svg>
