<svg width="64" height="64" viewBox="0 0 64 64" fill="none" xmlns="http://www.w3.org/2000/svg">
<g clip-path="url(#clip0_1_13555)">
<rect x="12" y="12" width="52" height="52" rx="6" fill="#F7F8FA"/>
<rect opacity="0.5" width="52" height="52" rx="6" fill="#F5D3D4"/>
<path d="M37.333 23.5865H33.4797C30.3197 23.5865 27.7463 21.0132 27.7463 17.8532V13.9998C27.7463 13.2665 27.1463 12.6665 26.413 12.6665H20.7597C16.653 12.6665 13.333 15.3332 13.333 20.0932V31.9065C13.333 36.6665 16.653 39.3332 20.7597 39.3332H31.2397C35.3463 39.3332 38.6663 36.6665 38.6663 31.9065V24.9198C38.6663 24.1865 38.0663 23.5865 37.333 23.5865ZM26.373 31.0398L23.7063 33.7065C23.613 33.7998 23.493 33.8798 23.373 33.9198C23.253 33.9732 23.133 33.9998 22.9997 33.9998C22.8663 33.9998 22.7463 33.9732 22.6263 33.9198C22.5197 33.8798 22.413 33.7998 22.333 33.7198C22.3197 33.7065 22.3063 33.7065 22.3063 33.6932L19.6397 31.0265C19.253 30.6398 19.253 29.9998 19.6397 29.6132C20.0263 29.2265 20.6663 29.2265 21.053 29.6132L21.9997 30.5865V24.9998C21.9997 24.4532 22.453 23.9998 22.9997 23.9998C23.5463 23.9998 23.9997 24.4532 23.9997 24.9998V30.5865L24.9597 29.6265C25.3463 29.2398 25.9863 29.2398 26.373 29.6265C26.7597 30.0132 26.7597 30.6532 26.373 31.0398Z" fill="#CC2127"/>
<path d="M33.2399 21.7468C34.5066 21.7602 36.2666 21.7602 37.7732 21.7602C38.5332 21.7602 38.9332 20.8668 38.3999 20.3335C36.4799 18.4002 33.0399 14.9202 31.0666 12.9468C30.5199 12.4002 29.5732 12.7735 29.5732 13.5335V18.1868C29.5732 20.1335 31.2266 21.7468 33.2399 21.7468Z" fill="#CC2127"/>
</g>
<defs>
<clipPath id="clip0_1_13555">
<rect width="64" height="64" fill="white"/>
</clipPath>
</defs>
</svg>
