<svg width="65" height="64" viewBox="0 0 65 64" fill="none" xmlns="http://www.w3.org/2000/svg">
<g clip-path="url(#clip0_629_5577)">
<rect x="12.6641" y="12" width="52" height="52" rx="6" fill="#F7F8FA"/>
<rect opacity="0.5" x="0.664062" width="52" height="52" rx="6" fill="#F5D3D4"/>
<path d="M33.6641 14.6667H20.3307C16.3307 14.6667 13.6641 16.6667 13.6641 21.3334V30.6667C13.6641 35.3334 16.3307 37.3334 20.3307 37.3334H33.6641C37.6641 37.3334 40.3307 35.3334 40.3307 30.6667V21.3334C40.3307 16.6667 37.6641 14.6667 33.6641 14.6667ZM34.2907 22.7867L30.1174 26.1201C29.2374 26.8267 28.1174 27.1734 26.9974 27.1734C25.8774 27.1734 24.7441 26.8267 23.8774 26.1201L19.7041 22.7867C19.2774 22.4401 19.2107 21.8001 19.5441 21.3734C19.8907 20.9467 20.5174 20.8667 20.9441 21.2134L25.1174 24.5467C26.1307 25.3601 27.8507 25.3601 28.8641 24.5467L33.0374 21.2134C33.4641 20.8667 34.1041 20.9334 34.4374 21.3734C34.7841 21.8001 34.7174 22.4401 34.2907 22.7867Z" fill="#CC2127"/>
</g>
<defs>
<clipPath id="clip0_629_5577">
<rect width="64" height="64" fill="white" transform="translate(0.664062)"/>
</clipPath>
</defs>
</svg>
