<svg width="64" height="64" viewBox="0 0 64 64" fill="none" xmlns="http://www.w3.org/2000/svg">
<g clip-path="url(#clip0_1744_47657)">
<rect x="12" y="12" width="52" height="52" rx="6" fill="#F7F8FA"/>
<rect opacity="0.5" width="52" height="52" rx="6" fill="#F5D3D4"/>
<path d="M25.9583 12.6667C18.5983 12.6667 12.625 18.64 12.625 26C12.625 33.36 18.5983 39.3333 25.9583 39.3333C33.3183 39.3333 39.2917 33.36 39.2917 26C39.2917 18.64 33.3317 12.6667 25.9583 12.6667ZM30.9583 26.4667L25.9983 32.1067L25.4117 32.7733C24.5983 33.6933 23.9317 33.4533 23.9317 32.2133V26.9333H21.665C20.6383 26.9333 20.3583 26.3067 21.0383 25.5333L25.9983 19.8933L26.585 19.2267C27.3983 18.3067 28.065 18.5467 28.065 19.7867V25.0667H30.3317C31.3583 25.0667 31.6383 25.6933 30.9583 26.4667Z" fill="#CC2127"/>
</g>
<defs>
<clipPath id="clip0_1744_47657">
<rect width="64" height="64" fill="white"/>
</clipPath>
</defs>
</svg>
