<svg width="156" height="156" viewBox="0 0 156 156" fill="none" xmlns="http://www.w3.org/2000/svg">
<rect width="156" height="156" rx="6" fill="#F7F8FA"/>
<path d="M88.6654 57.3335C88.6654 60.6402 85.972 63.3335 82.6654 63.3335H73.332C71.6787 63.3335 70.1854 62.6668 69.092 61.5735C67.9987 60.4802 67.332 58.9868 67.332 57.3335C67.332 54.0268 70.0254 51.3335 73.332 51.3335H82.6654C84.3187 51.3335 85.812 52.0002 86.9054 53.0935C87.9987 54.1868 88.6654 55.6802 88.6654 57.3335Z" fill="#0B1621"/>
<path d="M96.2146 59.4132C95.6013 58.9066 94.908 58.5066 94.1613 58.2132C93.388 57.9199 92.6146 58.5332 92.4546 59.3332C91.548 63.8932 87.5213 67.3332 82.668 67.3332H73.3346C70.668 67.3332 68.1613 66.2932 66.268 64.3999C64.8813 63.0132 63.9213 61.2532 63.548 59.3599C63.388 58.5599 62.588 57.9199 61.8146 58.2399C58.7213 59.4932 56.668 62.3199 56.668 67.9999V93.9999C56.668 102 61.4413 104.667 67.3346 104.667H88.668C94.5613 104.667 99.3346 102 99.3346 93.9999V67.9999C99.3346 63.6532 98.1346 60.9866 96.2146 59.4132ZM67.3346 78.6666H78.0013C79.0946 78.6666 80.0013 79.5732 80.0013 80.6666C80.0013 81.7599 79.0946 82.6666 78.0013 82.6666H67.3346C66.2413 82.6666 65.3346 81.7599 65.3346 80.6666C65.3346 79.5732 66.2413 78.6666 67.3346 78.6666ZM88.668 93.3332H67.3346C66.2413 93.3332 65.3346 92.4266 65.3346 91.3332C65.3346 90.2399 66.2413 89.3332 67.3346 89.3332H88.668C89.7613 89.3332 90.668 90.2399 90.668 91.3332C90.668 92.4266 89.7613 93.3332 88.668 93.3332Z" fill="#0B1621"/>
</svg>
