<svg width="64" height="64" viewBox="0 0 64 64" fill="none" xmlns="http://www.w3.org/2000/svg">
<g id="vuesax/bulk/folder-connection">
<g id="folder-connection">
<path id="Vector" d="M50 55.9993C50 57.0927 49.0933 57.9993 48 57.9993H37.3333C37.2 57.9993 37.0933 57.9459 36.96 57.9193C36.1866 59.9193 34.2667 61.3327 32 61.3327C29.7333 61.3327 27.8134 59.9193 27.04 57.9193C26.9067 57.9459 26.8 57.9993 26.6667 57.9993H16C14.9067 57.9993 14 57.0927 14 55.9993C14 54.906 14.9067 53.9993 16 53.9993H26.6667C26.8 53.9993 26.9067 54.0528 27.04 54.0794C27.5734 52.6928 28.6934 51.5727 30.0801 51.0394C30.0534 50.9061 30 50.7993 30 50.666V42.666H34V50.666C34 50.7993 33.9466 50.9061 33.9199 51.0394C35.3066 51.5727 36.4266 52.6928 36.96 54.0794C37.0933 54.0528 37.2 53.9993 37.3333 53.9993H48C49.0933 53.9993 50 54.906 50 55.9993Z" fill="#0B1621"/>
<path id="Vector_2" d="M50.6673 22.134V33.334C50.6673 40.8006 48.8006 42.6673 41.334 42.6673H22.6673C15.2007 42.6673 13.334 40.8006 13.334 33.334V14.6673C13.334 7.20065 15.2007 5.33398 22.6673 5.33398H25.4673C28.2673 5.33398 28.8806 6.16072 29.9473 7.57406L32.7474 11.3073C33.4674 12.2406 33.8674 12.8006 35.734 12.8006H41.334C48.8006 12.8006 50.6673 14.6673 50.6673 22.134Z" fill="#0B1621"/>
</g>
</g>
</svg>
