<svg width="65" height="64" viewBox="0 0 65 64" fill="none" xmlns="http://www.w3.org/2000/svg">
<g clip-path="url(#clip0_1_13655)">
<rect x="12.667" y="12" width="52" height="52" rx="6" fill="#F7F8FA"/>
<rect opacity="0.5" x="0.666992" width="52" height="52" rx="6" fill="#F5D3D4"/>
<path d="M34.3724 20.3601C34.2791 20.3467 34.1857 20.3467 34.0924 20.3601C32.0257 20.2934 30.3857 18.6001 30.3857 16.5201C30.3857 14.4001 32.1057 12.6667 34.2391 12.6667C36.3591 12.6667 38.0924 14.3867 38.0924 16.5201C38.0791 18.6001 36.4391 20.2934 34.3724 20.3601Z" fill="#CC2127"/>
<path d="M38.7195 29.6C37.2261 30.6 35.1328 30.9734 33.1995 30.72C33.7061 29.6267 33.9728 28.4134 33.9861 27.1334C33.9861 25.8001 33.6928 24.5334 33.1328 23.4267C35.1061 23.16 37.1995 23.5334 38.7061 24.5334C40.8128 25.92 40.8128 28.2 38.7195 29.6Z" fill="#CC2127"/>
<path d="M19.5856 20.3601C19.6789 20.3467 19.7722 20.3467 19.8656 20.3601C21.9322 20.2934 23.5722 18.6001 23.5722 16.5201C23.5722 14.3867 21.8522 12.6667 19.7189 12.6667C17.5989 12.6667 15.8789 14.3867 15.8789 16.5201C15.8789 18.6001 17.5189 20.2934 19.5856 20.3601Z" fill="#CC2127"/>
<path d="M19.7325 27.1334C19.7325 28.4267 20.0125 29.6534 20.5192 30.7601C18.6392 30.9601 16.6792 30.5601 15.2392 29.6134C13.1325 28.2134 13.1325 25.9334 15.2392 24.5334C16.6658 23.5734 18.6792 23.1867 20.5725 23.4001C20.0258 24.5201 19.7325 25.7867 19.7325 27.1334Z" fill="#CC2127"/>
<path d="M27.1594 31.16C27.0527 31.1467 26.9327 31.1467 26.8127 31.16C24.3594 31.08 22.3994 29.0667 22.3994 26.5867C22.4127 24.0533 24.4527 22 26.9994 22C29.5327 22 31.5861 24.0533 31.5861 26.5867C31.5727 29.0667 29.6261 31.08 27.1594 31.16Z" fill="#CC2127"/>
<path d="M22.8254 33.92C20.8121 35.2667 20.8121 37.48 22.8254 38.8134C25.1188 40.3467 28.8788 40.3467 31.1721 38.8134C33.1854 37.4667 33.1854 35.2534 31.1721 33.92C28.8921 32.3867 25.1321 32.3867 22.8254 33.92Z" fill="#CC2127"/>
</g>
<defs>
<clipPath id="clip0_1_13655">
<rect width="64" height="64" fill="white" transform="translate(0.666992)"/>
</clipPath>
</defs>
</svg>
