<svg width="156" height="156" viewBox="0 0 156 156" fill="none" xmlns="http://www.w3.org/2000/svg">
<rect width="156" height="156" rx="6" fill="#F7F8FA"/>
<path d="M97.9987 67.3333C101.681 67.3333 104.665 64.3486 104.665 60.6667C104.665 56.9848 101.681 54 97.9987 54C94.3168 54 91.332 56.9848 91.332 60.6667C91.332 64.3486 94.3168 67.3333 97.9987 67.3333Z" fill="#292D32"/>
<path d="M97.9987 67.3333C101.681 67.3333 104.665 64.3486 104.665 60.6667C104.665 56.9848 101.681 54 97.9987 54C94.3168 54 91.332 56.9848 91.332 60.6667C91.332 64.3486 94.3168 67.3333 97.9987 67.3333Z" fill="#292D32"/>
<path d="M101.252 70.8268C99.3854 71.4135 97.332 71.5202 95.1987 70.9868C91.6254 70.0535 88.7187 67.2002 87.732 63.6268C87.252 61.8935 87.2254 60.1868 87.5187 58.6402C87.8654 56.9335 86.6654 55.3335 84.9587 55.3335H64.6654C56.6654 55.3335 51.332 59.3335 51.332 68.6668V87.3335C51.332 96.6668 56.6654 100.667 64.6654 100.667H91.332C99.332 100.667 104.665 96.6668 104.665 87.3335V73.3602C104.665 71.6002 102.959 70.2668 101.252 70.8268ZM87.3854 75.7335L84.2387 78.2402C82.4787 79.6535 80.2387 80.3468 77.9987 80.3468C75.7587 80.3468 73.492 79.6535 71.7587 78.2402L63.412 71.5735C62.5587 70.8802 62.4254 69.6002 63.092 68.7468C63.7854 67.8935 65.0387 67.7335 65.892 68.4268L74.2387 75.0935C76.2654 76.7202 79.7054 76.7202 81.732 75.0935L84.8787 72.5868C85.732 71.8935 87.012 72.0268 87.6787 72.9068C88.372 73.7602 88.2387 75.0402 87.3854 75.7335Z" fill="#292D32"/>
</svg>
