<svg width="100" height="100" viewBox="0 0 100 100" fill="none" xmlns="http://www.w3.org/2000/svg">
<g id="vuesax/bold/emoji-sad">
<g id="emoji-sad">
<path id="Vector" d="M67.4609 8.33203H32.5443C17.3776 8.33203 8.33594 17.3737 8.33594 32.5404V67.4154C8.33594 82.6237 17.3776 91.6654 32.5443 91.6654H67.4193C82.5859 91.6654 91.6276 82.6237 91.6276 67.457V32.5404C91.6693 17.3737 82.6276 8.33203 67.4609 8.33203ZM26.9609 38.6654C25.7526 37.457 25.7526 35.457 26.9609 34.2487C32.3359 28.8737 41.1276 28.8737 46.5443 34.2487C47.7526 35.457 47.7526 37.457 46.5443 38.6654C45.9193 39.2904 45.1276 39.582 44.3359 39.582C43.5443 39.582 42.7526 39.2904 42.1276 38.6654C39.1693 35.707 34.3359 35.707 31.3776 38.6654C30.1693 39.9154 28.1693 39.9154 26.9609 38.6654ZM65.0026 75.332H35.0026C32.0859 75.332 29.7109 72.957 29.7109 69.9987C29.7109 58.7904 38.8359 49.6654 50.0443 49.6654C61.2526 49.6654 70.3776 58.7904 70.3776 69.9987C70.3359 72.9154 67.9193 75.332 65.0026 75.332ZM73.0443 38.6654C71.8359 39.8737 69.8359 39.8737 68.6276 38.6654C65.6693 35.707 60.8359 35.707 57.8776 38.6654C57.2526 39.2904 56.4609 39.582 55.6693 39.582C54.8776 39.582 54.0859 39.2904 53.4609 38.6654C52.2526 37.457 52.2526 35.457 53.4609 34.2487C58.8359 28.8737 67.6276 28.8737 73.0443 34.2487C74.2526 35.4987 74.2526 37.457 73.0443 38.6654Z" fill="#CC2127"/>
</g>
</g>
</svg>
