<svg width="64" height="64" viewBox="0 0 64 64" fill="none" xmlns="http://www.w3.org/2000/svg">
<g clip-path="url(#clip0_629_5493)">
<rect x="12" y="12" width="52" height="52" rx="6" fill="white"/>
<rect opacity="0.5" width="52" height="52" rx="6" fill="#F5D3D4"/>
<path d="M26.0013 12.6667C18.6546 12.6667 12.668 18.6534 12.668 26.0001C12.668 33.3467 18.6546 39.3334 26.0013 39.3334C33.348 39.3334 39.3346 33.3467 39.3346 26.0001C39.3346 18.6534 33.348 12.6667 26.0013 12.6667ZM31.8013 30.7601C31.6146 31.0801 31.2813 31.2534 30.9346 31.2534C30.7613 31.2534 30.588 31.2134 30.428 31.1067L26.2946 28.6401C25.268 28.0267 24.508 26.6801 24.508 25.4934V20.0267C24.508 19.4801 24.9613 19.0267 25.508 19.0267C26.0546 19.0267 26.508 19.4801 26.508 20.0267V25.4934C26.508 25.9734 26.908 26.6801 27.3213 26.9201L31.4546 29.3867C31.9346 29.6667 32.0946 30.2801 31.8013 30.7601Z" fill="#CC2127"/>
</g>
<defs>
<clipPath id="clip0_629_5493">
<rect width="64" height="64" fill="white"/>
</clipPath>
</defs>
</svg>
