<svg width="25" height="24" viewBox="0 0 25 24" fill="none" xmlns="http://www.w3.org/2000/svg">
<path d="M19.988 2H5.34797C3.87797 2 2.66797 3.21 2.66797 4.68V7.31C2.66797 8.79 3.87797 10 5.34797 10H19.978C21.458 10 22.668 8.79 22.668 7.32V4.68C22.668 3.21 21.458 2 19.988 2ZM7.41797 7C7.41797 7.41 7.07797 7.75 6.66797 7.75C6.25797 7.75 5.91797 7.41 5.91797 7V5C5.91797 4.59 6.25797 4.25 6.66797 4.25C7.07797 4.25 7.41797 4.59 7.41797 5V7ZM11.418 7C11.418 7.41 11.078 7.75 10.668 7.75C10.258 7.75 9.91797 7.41 9.91797 7V5C9.91797 4.59 10.258 4.25 10.668 4.25C11.078 4.25 11.418 4.59 11.418 5V7ZM18.668 6.75H14.668C14.258 6.75 13.918 6.41 13.918 6C13.918 5.59 14.258 5.25 14.668 5.25H18.668C19.078 5.25 19.418 5.59 19.418 6C19.418 6.41 19.078 6.75 18.668 6.75Z" fill="#0B1621"/>
<path d="M19.988 14H5.34797C3.87797 14 2.66797 15.21 2.66797 16.68V19.31C2.66797 20.79 3.87797 22 5.34797 22H19.978C21.458 22 22.658 20.79 22.658 19.32V16.69C22.668 15.21 21.458 14 19.988 14ZM7.41797 19C7.41797 19.41 7.07797 19.75 6.66797 19.75C6.25797 19.75 5.91797 19.41 5.91797 19V17C5.91797 16.59 6.25797 16.25 6.66797 16.25C7.07797 16.25 7.41797 16.59 7.41797 17V19ZM11.418 19C11.418 19.41 11.078 19.75 10.668 19.75C10.258 19.75 9.91797 19.41 9.91797 19V17C9.91797 16.59 10.258 16.25 10.668 16.25C11.078 16.25 11.418 16.59 11.418 17V19ZM18.668 18.75H14.668C14.258 18.75 13.918 18.41 13.918 18C13.918 17.59 14.258 17.25 14.668 17.25H18.668C19.078 17.25 19.418 17.59 19.418 18C19.418 18.41 19.078 18.75 18.668 18.75Z" fill="#0B1621"/>
<rect x="13" width="12" height="16" rx="6" fill="#CC2127"/>
<path d="M18.9545 12V5.25H17.5545V4.55H19.7545V12H18.9545Z" fill="white"/>
</svg>
