<svg width="24" height="24" viewBox="0 0 24 24" fill="none" xmlns="http://www.w3.org/2000/svg">
<path d="M17.56 2H6.41C3.98 2 2 3.98 2 6.41V12.91V13.11C2 15.55 3.98 17.52 6.41 17.52H10.25C10.8 17.52 11.25 17.97 11.25 18.52V19.49C11.25 20.04 10.8 20.49 10.25 20.49H7.83C7.42 20.49 7.08 20.83 7.08 21.24C7.08 21.65 7.41 22 7.83 22H16.18C16.59 22 16.93 21.66 16.93 21.25C16.93 20.84 16.59 20.5 16.18 20.5H13.76C13.21 20.5 12.76 20.05 12.76 19.5V18.53C12.76 17.98 13.21 17.53 13.76 17.53H17.57C20.01 17.53 21.98 15.55 21.98 13.12V12.92V6.42C21.97 3.98 19.99 2 17.56 2Z" fill="#0B1621"/>
<rect x="11" width="13" height="16" rx="6.5" fill="#CC2127"/>
<path d="M15.1529 10C14.7529 10 14.3882 9.91522 14.0588 9.74566C13.7373 9.5684 13.4784 9.32948 13.2824 9.0289C13.0941 8.72062 13 8.37765 13 8C13 7.61464 13.0941 7.27168 13.2824 6.9711C13.4784 6.67052 13.7373 6.43545 14.0588 6.2659C14.3882 6.08863 14.7529 6 15.1529 6C16.0784 6 16.8588 6.42004 17.4941 7.26012C17.8078 6.85164 18.1647 6.5395 18.5647 6.3237C18.9647 6.1079 19.3922 6 19.8471 6C20.2471 6 20.6078 6.08863 20.9294 6.2659C21.2588 6.43545 21.5176 6.67052 21.7059 6.9711C21.902 7.27168 22 7.61464 22 8C22 8.37765 21.902 8.72062 21.7059 9.0289C21.5176 9.32948 21.2588 9.5684 20.9294 9.74566C20.6078 9.91522 20.2471 10 19.8471 10C19.3843 10 18.9529 9.8921 18.5529 9.6763C18.1608 9.45279 17.8078 9.14066 17.4941 8.73988C17.1882 9.14066 16.8353 9.45279 16.4353 9.6763C16.0353 9.8921 15.6078 10 15.1529 10ZM15.1882 9.30636C15.5804 9.30636 15.9333 9.19075 16.2471 8.95954C16.5686 8.72832 16.851 8.40848 17.0941 8C16.851 7.58382 16.5686 7.26397 16.2471 7.04046C15.9333 6.80925 15.5804 6.69364 15.1882 6.69364C14.7725 6.69364 14.4314 6.81696 14.1647 7.06358C13.898 7.3025 13.7647 7.61464 13.7647 8C13.7647 8.37765 13.898 8.68979 14.1647 8.93642C14.4314 9.18304 14.7725 9.30636 15.1882 9.30636ZM19.8118 9.30636C20.2275 9.30636 20.5686 9.18304 20.8353 8.93642C21.102 8.68979 21.2353 8.37765 21.2353 8C21.2353 7.61464 21.102 7.3025 20.8353 7.06358C20.5686 6.81696 20.2275 6.69364 19.8118 6.69364C19.4039 6.69364 19.0392 6.8131 18.7176 7.05202C18.4039 7.28324 18.1333 7.59923 17.9059 8C18.1412 8.40848 18.4196 8.72832 18.7412 8.95954C19.0706 9.19075 19.4275 9.30636 19.8118 9.30636Z" fill="white"/>
</svg>
