<svg width="24" height="24" viewBox="0 0 24 24" fill="none" xmlns="http://www.w3.org/2000/svg">
<g clip-path="url(#clip0_1180_5322)">
<path d="M15.6078 13.6328L13.8575 11.8825C13.1377 11.1627 13.5776 10.4029 14.362 10.3568C15.654 10.2768 16.3799 8.89873 15.3248 7.75134C14.1774 6.69931 12.8055 7.4222 12.7255 8.71108C12.6763 9.49549 11.9103 9.93845 11.1936 9.22172L9.48022 7.50833C8.96651 6.99462 8.13289 6.99462 7.61918 7.50833L5.88425 9.24325C5.16445 9.96306 4.40157 9.51702 4.35236 8.73262C4.27238 7.44065 2.88813 6.70547 1.74075 7.76057C0.682566 8.91103 1.41775 10.2953 2.70972 10.3753C3.49412 10.4245 3.94016 11.1904 3.22343 11.9102L1.49466 13.6359C0.980948 14.1496 0.980948 14.9833 1.49466 15.497L3.20805 17.2104C3.92785 17.9271 3.50028 18.6746 2.71587 18.7238C1.42391 18.8038 0.701022 20.1788 1.75613 21.3262C2.90351 22.3813 4.27238 21.6615 4.35236 20.3695C4.40157 19.5851 5.15214 19.1545 5.87195 19.8712L7.60072 21.6C8.12366 22.1229 8.97881 22.1229 9.50175 21.603L10.7137 20.391L11.2336 19.8712C11.9134 19.1606 11.4735 18.4131 10.6984 18.3639C9.40639 18.2839 8.67428 16.8997 9.72938 15.7523C10.8768 14.6972 12.261 15.4324 12.341 16.7243C12.3902 17.4995 13.1346 17.9363 13.8452 17.2565L14.3159 16.7859L15.5832 15.5185C15.5863 15.5154 15.5863 15.5154 15.5894 15.5123L15.6078 15.4939C16.1215 14.9802 16.1215 14.1466 15.6078 13.6328Z" fill="#162C42"/>
</g>
<g clip-path="url(#clip1_1180_5322)">
<path d="M21.2336 12.0463L19.996 9.90264C19.487 9.02106 20.1085 8.401 20.8782 8.55945C22.1468 8.81659 23.2047 7.67334 22.4825 6.29197C21.6465 4.97883 20.1342 5.32199 19.7234 6.54626C19.4728 7.2912 18.6183 7.52083 18.1115 6.64301L16.9 4.54455C16.5367 3.91538 15.7315 3.69963 15.1023 4.06287L12.9775 5.28965C12.0959 5.79863 11.4745 5.17035 11.63 4.39993C11.8871 3.13129 10.7403 2.06288 9.35892 2.78507C8.03903 3.62245 8.3909 5.14981 9.61814 5.56145C10.3631 5.81201 10.5957 6.6673 9.71706 7.17708L7.60056 8.39653C6.9714 8.75978 6.75564 9.565 7.11889 10.1942L8.33044 12.2926C8.84021 13.1712 8.23374 13.7826 7.46332 13.6271C6.19468 13.37 5.14055 14.5111 5.86273 15.8924C6.69794 17.2085 8.20647 16.8675 8.6181 15.6403C8.86866 14.8954 9.70512 14.6737 10.2149 15.5523L11.4373 17.6696C11.8071 18.31 12.6331 18.5314 13.2728 18.1646L14.7572 17.3076L15.3938 16.94C16.2344 16.4295 16.003 15.5937 15.267 15.3455C14.0397 14.9339 13.6908 13.4073 15.0069 12.5721C16.3883 11.8499 17.5351 12.9183 17.278 14.1869C17.1249 14.9484 17.7309 15.563 18.5932 15.0903L19.1696 14.7575L20.7218 13.8613C20.7256 13.8592 20.7256 13.8592 20.7293 13.857L20.7519 13.8439C21.3811 13.4807 21.5969 12.6755 21.2336 12.0463Z" fill="#0B1621"/>
</g>
<defs>
<clipPath id="clip0_1180_5322">
<rect width="14.8837" height="14.8837" fill="white" transform="translate(1.10938 7.11621)"/>
</clipPath>
<clipPath id="clip1_1180_5322">
<rect width="14.8837" height="14.8837" fill="white" transform="translate(8.91406 1.99902) rotate(15)"/>
</clipPath>
</defs>
</svg>
