<svg width="64" height="64" viewBox="0 0 64 64" fill="none" xmlns="http://www.w3.org/2000/svg">
<g clip-path="url(#clip0_1_13610)">
<rect x="12" y="12" width="52" height="52" rx="6" fill="#F7F8FA"/>
<rect opacity="0.5" width="52" height="52" rx="6" fill="#F5D3D4"/>
<path d="M39.3333 16.4666V32.3199C39.3333 33.6132 38.28 34.7999 36.9867 34.9599L36.5733 35.0132C34.3867 35.3066 31.3067 36.2132 28.8267 37.2532C27.96 37.6132 27 36.9599 27 36.0132V17.4666C27 16.9732 27.28 16.5199 27.72 16.2799C30.16 14.9599 33.8533 13.7866 36.36 13.5732H36.44C38.04 13.5732 39.3333 14.8666 39.3333 16.4666Z" fill="#CC2127"/>
<path d="M24.28 16.2799C21.84 14.9599 18.1467 13.7866 15.64 13.5732H15.5467C13.9467 13.5732 12.6533 14.8666 12.6533 16.4666V32.3199C12.6533 33.6132 13.7067 34.7999 15 34.9599L15.4133 35.0132C17.6 35.3066 20.68 36.2132 23.16 37.2532C24.0267 37.6132 24.9867 36.9599 24.9867 36.0132V17.4666C24.9867 16.9599 24.72 16.5199 24.28 16.2799ZM16.6667 20.3199H19.6667C20.2133 20.3199 20.6667 20.7732 20.6667 21.3199C20.6667 21.8799 20.2133 22.3199 19.6667 22.3199H16.6667C16.12 22.3199 15.6667 21.8799 15.6667 21.3199C15.6667 20.7732 16.12 20.3199 16.6667 20.3199ZM20.6667 26.3199H16.6667C16.12 26.3199 15.6667 25.8799 15.6667 25.3199C15.6667 24.7732 16.12 24.3199 16.6667 24.3199H20.6667C21.2133 24.3199 21.6667 24.7732 21.6667 25.3199C21.6667 25.8799 21.2133 26.3199 20.6667 26.3199Z" fill="#CC2127"/>
</g>
<defs>
<clipPath id="clip0_1_13610">
<rect width="64" height="64" fill="white"/>
</clipPath>
</defs>
</svg>
