<svg width="187" height="211" viewBox="0 0 187 211" fill="none" xmlns="http://www.w3.org/2000/svg">
<rect x="34.0156" y="0.686523" width="154.902" height="183.934" rx="12" transform="rotate(10.6559 34.0156 0.686523)" fill="#232D37"/>
<g clip-path="url(#clip0_1_8734)">
<path fill-rule="evenodd" clip-rule="evenodd" d="M136.153 76.0763L110.247 108.883L122.458 148.862L131.088 145.954L143.136 81.9216L136.153 76.0763Z" fill="#E25444"/>
<path fill-rule="evenodd" clip-rule="evenodd" d="M136.153 76.0763L97.2131 73.2808L71.7865 101.646L85.165 137.313L122.458 148.862L136.153 76.0763Z" fill="#7B1D13"/>
<path fill-rule="evenodd" clip-rule="evenodd" d="M59.2314 61.6031L52.5117 63.2006L39.8568 130.458L45.5364 134.388L91.1889 105.297L59.2314 61.6031Z" fill="#58150D"/>
<path fill-rule="evenodd" clip-rule="evenodd" d="M59.1626 61.5107L96.0607 79.6887L86.2373 131.897L45.4484 134.398L59.1626 61.5107Z" fill="#E25444"/>
<path fill-rule="evenodd" clip-rule="evenodd" d="M95.0024 85.4253L78.969 79.6526L99.0474 63.9274L111.997 85.8669L95.0024 85.4253Z" fill="#58150D"/>
<path fill-rule="evenodd" clip-rule="evenodd" d="M111.997 85.8669L94.9743 85.4622L78.969 79.6526L82.5132 60.8164" fill="#58150D"/>
<path fill-rule="evenodd" clip-rule="evenodd" d="M87.5674 124.94L70.4553 124.9L83.9462 144.186L103.483 131.115L87.5674 124.94Z" fill="#58150D"/>
<path fill-rule="evenodd" clip-rule="evenodd" d="M101.634 49.7864L83.4545 55.4284L78.9039 79.6134L96.3689 78.0504L101.634 49.7864Z" fill="#7B1D13"/>
<path fill-rule="evenodd" clip-rule="evenodd" d="M93.8648 91.3591L77.012 90.0538L72.4685 114.202L88.6257 119.204L93.8648 91.3591Z" fill="#7B1D13"/>
<path fill-rule="evenodd" clip-rule="evenodd" d="M86.1988 132.103L70.4666 124.842L66 148.581L80.8826 160.357L86.1988 132.103Z" fill="#7B1D13"/>
<path fill-rule="evenodd" clip-rule="evenodd" d="M103.494 131.055L86.1985 132.103L80.8825 160.356L99.0274 154.794L103.494 131.055Z" fill="#E25444"/>
<path fill-rule="evenodd" clip-rule="evenodd" d="M93.8647 91.3584L110.039 96.2674L105.496 120.415L88.6256 119.203L93.8647 91.3584Z" fill="#E25444"/>
<path fill-rule="evenodd" clip-rule="evenodd" d="M101.634 49.7871L116.519 61.6504L111.968 85.8354L96.3029 78.1181L101.634 49.7871Z" fill="#E25444"/>
</g>
<defs>
<clipPath id="clip0_1_8734">
<rect width="100" height="120" fill="white" transform="translate(53.6484 36.9424) rotate(10.6559)"/>
</clipPath>
</defs>
</svg>
