<svg width="24" height="24" viewBox="0 0 24 24" fill="none" xmlns="http://www.w3.org/2000/svg">
<path d="M21.0001 16.0131C20.5079 17.134 20.2724 17.6352 19.6402 18.6258C18.757 20.0092 17.5099 21.7354 15.9681 21.7473C14.5967 21.7591 14.2427 20.827 12.3815 20.8423C10.5204 20.8516 10.1327 21.7642 8.75961 21.7498C7.21781 21.7354 6.03739 20.1802 5.15331 18.7994C2.68133 14.9261 2.42039 10.3865 3.94819 7.97105C5.02901 6.25833 6.73955 5.25254 8.34555 5.25254C9.98119 5.25254 11.0093 6.17705 12.3618 6.17705C13.6739 6.17705 14.4732 5.25 16.3649 5.25C17.7955 5.25 19.3085 6.05175 20.3893 7.43513C16.853 9.42808 17.4276 14.623 21.0001 16.0131Z" fill="#0B1621"/>
<path d="M16.4595 0C16.6559 1.32389 16.1145 2.62206 15.4006 3.54209C14.6371 4.52901 13.322 5.28956 12.0513 5.24841C11.8182 3.98282 12.416 2.67436 13.1367 1.79377C13.9326 0.826575 15.2947 0.0797421 16.4595 0Z" fill="#0B1621"/>
</svg>
