<svg width="24" height="24" viewBox="0 0 24 24" fill="none" xmlns="http://www.w3.org/2000/svg">
<path d="M21 16.0131C20.5077 17.134 20.2723 17.6352 19.6401 18.6258C18.7569 20.0092 17.5098 21.7354 15.968 21.7473C14.5966 21.7591 14.2426 20.827 12.3814 20.8423C10.5202 20.8516 10.1325 21.7642 8.75948 21.7498C7.21769 21.7354 6.03727 20.1802 5.15318 18.7994C2.68121 14.9261 2.42026 10.3865 3.94806 7.97105C5.02888 6.25833 6.73943 5.25254 8.34543 5.25254C9.98107 5.25254 11.0092 6.17705 12.3617 6.17705C13.6738 6.17705 14.4731 5.25 16.3647 5.25C17.7954 5.25 19.3084 6.05175 20.3892 7.43513C16.8529 9.42808 17.4274 14.623 21 16.0131Z" fill="#0B1621"/>
<path d="M16.4593 0C16.6557 1.32389 16.1143 2.62206 15.4004 3.54209C14.637 4.52901 13.3219 5.28956 12.0512 5.24841C11.8181 3.98282 12.4159 2.67436 13.1366 1.79377C13.9325 0.826575 15.2945 0.0797421 16.4593 0Z" fill="#0B1621"/>
</svg>
