<svg width="40" height="40" viewBox="0 0 40 40" fill="none" xmlns="http://www.w3.org/2000/svg">
<g clip-path="url(#clip0_1_4298)">
<rect x="8" y="8" width="32" height="32" rx="6" fill="#F7F8FA"/>
<rect opacity="0.5" width="32" height="32" rx="6" fill="#F5D3D4"/>
<path d="M21.4487 9.43337L16.8654 7.7167C16.3904 7.5417 15.6154 7.5417 15.1404 7.7167L10.557 9.43337C9.6737 9.7667 8.95703 10.8 8.95703 11.7417V18.4917C8.95703 19.1667 9.3987 20.0584 9.94036 20.4584L14.5237 23.8834C15.332 24.4917 16.657 24.4917 17.4654 23.8834L22.0487 20.4584C22.5904 20.05 23.032 19.1667 23.032 18.4917V11.7417C23.0404 10.8 22.3237 9.7667 21.4487 9.43337ZM18.8987 14.1L15.3154 17.6834C15.1904 17.8084 15.032 17.8667 14.8737 17.8667C14.7154 17.8667 14.557 17.8084 14.432 17.6834L13.0987 16.3334C12.857 16.0917 12.857 15.6917 13.0987 15.45C13.3404 15.2084 13.7404 15.2084 13.982 15.45L14.882 16.35L18.0237 13.2084C18.2654 12.9667 18.6654 12.9667 18.907 13.2084C19.1487 13.45 19.1487 13.8584 18.8987 14.1Z" fill="#CC2127"/>
</g>
<defs>
<clipPath id="clip0_1_4298">
<rect width="40" height="40" fill="white"/>
</clipPath>
</defs>
</svg>
