<svg width="156" height="156" viewBox="0 0 156 156" fill="none" xmlns="http://www.w3.org/2000/svg">
<rect width="156" height="156" rx="6" fill="#F7F8FA"/>
<path d="M69.3346 51.3334H45.3346C39.4413 51.3334 34.668 56.1067 34.668 62V81.3334C34.668 82.8 35.868 84 37.3346 84H77.3346C78.8013 84 80.0013 82.8 80.0013 81.3334V62C80.0013 56.1067 75.228 51.3334 69.3346 51.3334ZM45.3346 80H42.668C41.5746 80 40.668 79.0934 40.668 78C40.668 76.9067 41.5746 76 42.668 76H45.3346C46.428 76 47.3346 76.9067 47.3346 78C47.3346 79.0934 46.428 80 45.3346 80ZM45.3346 73.3334H42.668C41.5746 73.3334 40.668 72.4267 40.668 71.3334C40.668 70.24 41.5746 69.3334 42.668 69.3334H45.3346C46.428 69.3334 47.3346 70.24 47.3346 71.3334C47.3346 72.4267 46.428 73.3334 45.3346 73.3334ZM45.3346 66.6667H42.668C41.5746 66.6667 40.668 65.76 40.668 64.6667C40.668 63.5734 41.5746 62.6667 42.668 62.6667H45.3346C46.428 62.6667 47.3346 63.5734 47.3346 64.6667C47.3346 65.76 46.428 66.6667 45.3346 66.6667Z" fill="#0B1621"/>
<path d="M34.668 90.6667V94C34.668 99.8933 39.4413 104.667 45.3346 104.667H69.3346C75.228 104.667 80.0013 99.8933 80.0013 94V90.6667C80.0013 89.2 78.8013 88 77.3346 88H37.3346C35.868 88 34.668 89.2 34.668 90.6667ZM71.228 97.8933C70.7213 98.3733 70.028 98.6667 69.3346 98.6667C68.6413 98.6667 67.948 98.3733 67.4413 97.8933C66.9613 97.3867 66.668 96.6933 66.668 96C66.668 95.3067 66.9613 94.6133 67.4413 94.1067C68.428 93.12 70.2146 93.12 71.228 94.1067C71.708 94.6133 72.0013 95.3067 72.0013 96C72.0013 96.6933 71.708 97.3867 71.228 97.8933Z" fill="#0B1621"/>
<rect x="64" y="46" width="24" height="24" rx="8" fill="#CC2127"/>
<path d="M82.6695 53.8067V60.1933C82.6695 62.0333 81.1761 63.5267 79.3361 63.5267H72.6695C72.3628 63.5267 72.0695 63.4867 71.7828 63.4067C71.3695 63.2933 71.2361 62.7667 71.5428 62.46L78.6295 55.3733C78.7761 55.2267 78.9961 55.1933 79.2028 55.2333C79.4161 55.2733 79.6495 55.2133 79.8161 55.0533L81.5295 53.3333C82.1561 52.7067 82.6695 52.9133 82.6695 53.8067Z" fill="white"/>
<path d="M77.7626 54.9067L70.7826 61.8867C70.4626 62.2067 69.9293 62.1267 69.7159 61.7267C69.4693 61.2733 69.3359 60.7467 69.3359 60.1933V53.8067C69.3359 52.9133 69.8493 52.7067 70.4759 53.3333L72.1959 55.06C72.4559 55.3133 72.8826 55.3133 73.1426 55.06L75.5293 52.6667C75.7893 52.4067 76.2159 52.4067 76.4759 52.6667L77.7693 53.96C78.0226 54.22 78.0226 54.6467 77.7626 54.9067Z" fill="white"/>
<path d="M119.12 66H96.82C91.96 66 88 69.96 88 74.82V87.82V88.22C88 93.1 91.96 97.04 96.82 97.04H104.5C105.6 97.04 106.5 97.94 106.5 99.04V100.98C106.5 102.08 105.6 102.98 104.5 102.98H99.66C98.84 102.98 98.16 103.66 98.16 104.48C98.16 105.3 98.82 106 99.66 106H116.36C117.18 106 117.86 105.32 117.86 104.5C117.86 103.68 117.18 103 116.36 103H111.52C110.42 103 109.52 102.1 109.52 101V99.06C109.52 97.96 110.42 97.06 111.52 97.06H119.14C124.02 97.06 127.96 93.1 127.96 88.24V87.84V74.84C127.94 69.96 123.98 66 119.12 66Z" fill="#0B1621"/>
<rect x="111.762" y="62" width="20.24" height="24" rx="8" fill="#CC2127"/>
<path d="M118.69 76.7681C118.146 76.7681 117.65 76.6507 117.202 76.4161C116.764 76.1707 116.412 75.8401 116.146 75.4241C115.89 74.9974 115.762 74.5227 115.762 74.0001C115.762 73.4667 115.89 72.9921 116.146 72.5761C116.412 72.1601 116.764 71.8347 117.202 71.6001C117.65 71.3547 118.146 71.2321 118.69 71.2321C119.948 71.2321 121.01 71.8134 121.874 72.9761C122.3 72.4107 122.786 71.9787 123.33 71.6801C123.874 71.3814 124.455 71.2321 125.074 71.2321C125.618 71.2321 126.108 71.3547 126.546 71.6001C126.994 71.8347 127.346 72.1601 127.602 72.5761C127.868 72.9921 128.002 73.4667 128.002 74.0001C128.002 74.5227 127.868 74.9974 127.602 75.4241C127.346 75.8401 126.994 76.1707 126.546 76.4161C126.108 76.6507 125.618 76.7681 125.074 76.7681C124.444 76.7681 123.858 76.6187 123.314 76.3201C122.78 76.0107 122.3 75.5787 121.874 75.0241C121.458 75.5787 120.978 76.0107 120.434 76.3201C119.89 76.6187 119.308 76.7681 118.69 76.7681ZM118.738 75.8081C119.271 75.8081 119.751 75.6481 120.178 75.3281C120.615 75.0081 120.999 74.5654 121.33 74.0001C120.999 73.4241 120.615 72.9814 120.178 72.6721C119.751 72.3521 119.271 72.1921 118.738 72.1921C118.172 72.1921 117.708 72.3627 117.346 72.7041C116.983 73.0347 116.802 73.4667 116.802 74.0001C116.802 74.5227 116.983 74.9547 117.346 75.2961C117.708 75.6374 118.172 75.8081 118.738 75.8081ZM125.026 75.8081C125.591 75.8081 126.055 75.6374 126.418 75.2961C126.78 74.9547 126.962 74.5227 126.962 74.0001C126.962 73.4667 126.78 73.0347 126.418 72.7041C126.055 72.3627 125.591 72.1921 125.026 72.1921C124.471 72.1921 123.975 72.3574 123.538 72.6881C123.111 73.0081 122.743 73.4454 122.434 74.0001C122.754 74.5654 123.132 75.0081 123.57 75.3281C124.018 75.6481 124.503 75.8081 125.026 75.8081Z" fill="white"/>
<path d="M129.114 47.083H128.085C126.904 47.083 126.281 47.7059 126.281 48.8868V49.9159C126.281 51.0968 126.904 51.7197 128.085 51.7197H129.114C130.295 51.7197 130.918 51.0968 130.918 49.9159V48.8868C130.918 47.7059 130.295 47.083 129.114 47.083Z" fill="#CC2127"/>
<path d="M122.916 53.2744H121.887C120.701 53.2744 120.078 53.8973 120.078 55.0782V56.1073C120.078 57.2936 120.701 57.9165 121.882 57.9165H122.911C124.092 57.9165 124.715 57.2936 124.715 56.1127V55.0836C124.72 53.8973 124.097 53.2744 122.916 53.2744Z" fill="#CC2127"/>
<path d="M122.402 51.7305C123.685 51.7305 124.726 50.6901 124.726 49.4068C124.726 48.1234 123.685 47.083 122.402 47.083C121.119 47.083 120.078 48.1234 120.078 49.4068C120.078 50.6901 121.119 51.7305 122.402 51.7305Z" fill="#CC2127"/>
<path d="M128.589 57.917C129.873 57.917 130.913 56.8767 130.913 55.5933C130.913 54.3099 129.873 53.2695 128.589 53.2695C127.306 53.2695 126.266 54.3099 126.266 55.5933C126.266 56.8767 127.306 57.917 128.589 57.917Z" fill="#CC2127"/>
</svg>
