<svg width="156" height="156" viewBox="0 0 156 156" fill="none" xmlns="http://www.w3.org/2000/svg">
<rect width="156" height="156" rx="6" fill="#F7F8FA"/>
<path d="M69.3346 51.3334H45.3346C39.4413 51.3334 34.668 56.1067 34.668 62V81.3334C34.668 82.8 35.868 84 37.3346 84H77.3346C78.8013 84 80.0013 82.8 80.0013 81.3334V62C80.0013 56.1067 75.228 51.3334 69.3346 51.3334ZM45.3346 80H42.668C41.5746 80 40.668 79.0934 40.668 78C40.668 76.9067 41.5746 76 42.668 76H45.3346C46.428 76 47.3346 76.9067 47.3346 78C47.3346 79.0934 46.428 80 45.3346 80ZM45.3346 73.3334H42.668C41.5746 73.3334 40.668 72.4267 40.668 71.3334C40.668 70.24 41.5746 69.3334 42.668 69.3334H45.3346C46.428 69.3334 47.3346 70.24 47.3346 71.3334C47.3346 72.4267 46.428 73.3334 45.3346 73.3334ZM45.3346 66.6667H42.668C41.5746 66.6667 40.668 65.76 40.668 64.6667C40.668 63.5734 41.5746 62.6667 42.668 62.6667H45.3346C46.428 62.6667 47.3346 63.5734 47.3346 64.6667C47.3346 65.76 46.428 66.6667 45.3346 66.6667Z" fill="#0B1621"/>
<path d="M34.668 90.6667V94C34.668 99.8933 39.4413 104.667 45.3346 104.667H69.3346C75.228 104.667 80.0013 99.8933 80.0013 94V90.6667C80.0013 89.2 78.8013 88 77.3346 88H37.3346C35.868 88 34.668 89.2 34.668 90.6667ZM71.228 97.8933C70.7213 98.3733 70.028 98.6667 69.3346 98.6667C68.6413 98.6667 67.948 98.3733 67.4413 97.8933C66.9613 97.3867 66.668 96.6933 66.668 96C66.668 95.3067 66.9613 94.6133 67.4413 94.1067C68.428 93.12 70.2146 93.12 71.228 94.1067C71.708 94.6133 72.0013 95.3067 72.0013 96C72.0013 96.6933 71.708 97.3867 71.228 97.8933Z" fill="#0B1621"/>
<rect x="67.7617" y="46" width="20.24" height="24" rx="8" fill="#CC2127"/>
<path d="M74.6897 60.7681C74.1457 60.7681 73.6497 60.6507 73.2017 60.4161C72.7644 60.1707 72.4124 59.8401 72.1457 59.4241C71.8897 58.9974 71.7617 58.5227 71.7617 58.0001C71.7617 57.4667 71.8897 56.9921 72.1457 56.5761C72.4124 56.1601 72.7644 55.8347 73.2017 55.6001C73.6497 55.3547 74.1457 55.2321 74.6897 55.2321C75.9484 55.2321 77.0097 55.8134 77.8737 56.9761C78.3004 56.4107 78.7857 55.9787 79.3297 55.6801C79.8737 55.3814 80.4551 55.2321 81.0737 55.2321C81.6177 55.2321 82.1084 55.3547 82.5457 55.6001C82.9937 55.8347 83.3457 56.1601 83.6017 56.5761C83.8684 56.9921 84.0017 57.4667 84.0017 58.0001C84.0017 58.5227 83.8684 58.9974 83.6017 59.4241C83.3457 59.8401 82.9937 60.1707 82.5457 60.4161C82.1084 60.6507 81.6177 60.7681 81.0737 60.7681C80.4444 60.7681 79.8577 60.6187 79.3137 60.3201C78.7804 60.0107 78.3004 59.5787 77.8737 59.0241C77.4577 59.5787 76.9777 60.0107 76.4337 60.3201C75.8897 60.6187 75.3084 60.7681 74.6897 60.7681ZM74.7377 59.8081C75.2711 59.8081 75.7511 59.6481 76.1777 59.3281C76.6151 59.0081 76.9991 58.5654 77.3297 58.0001C76.9991 57.4241 76.6151 56.9814 76.1777 56.6721C75.7511 56.3521 75.2711 56.1921 74.7377 56.1921C74.1724 56.1921 73.7084 56.3627 73.3457 56.7041C72.9831 57.0347 72.8017 57.4667 72.8017 58.0001C72.8017 58.5227 72.9831 58.9547 73.3457 59.2961C73.7084 59.6374 74.1724 59.8081 74.7377 59.8081ZM81.0257 59.8081C81.5911 59.8081 82.0551 59.6374 82.4177 59.2961C82.7804 58.9547 82.9617 58.5227 82.9617 58.0001C82.9617 57.4667 82.7804 57.0347 82.4177 56.7041C82.0551 56.3627 81.5911 56.1921 81.0257 56.1921C80.4711 56.1921 79.9751 56.3574 79.5377 56.6881C79.1111 57.0081 78.7431 57.4454 78.4337 58.0001C78.7537 58.5654 79.1324 59.0081 79.5697 59.3281C80.0177 59.6481 80.5031 59.8081 81.0257 59.8081Z" fill="white"/>
<path d="M119.12 66H96.82C91.96 66 88 69.96 88 74.82V87.82V88.22C88 93.1 91.96 97.04 96.82 97.04H104.5C105.6 97.04 106.5 97.94 106.5 99.04V100.98C106.5 102.08 105.6 102.98 104.5 102.98H99.66C98.84 102.98 98.16 103.66 98.16 104.48C98.16 105.3 98.82 106 99.66 106H116.36C117.18 106 117.86 105.32 117.86 104.5C117.86 103.68 117.18 103 116.36 103H111.52C110.42 103 109.52 102.1 109.52 101V99.06C109.52 97.96 110.42 97.06 111.52 97.06H119.14C124.02 97.06 127.96 93.1 127.96 88.24V87.84V74.84C127.94 69.96 123.98 66 119.12 66Z" fill="#0B1621"/>
<rect x="111.762" y="62" width="20.24" height="24" rx="8" fill="#CC2127"/>
<path d="M118.69 76.7681C118.146 76.7681 117.65 76.6507 117.202 76.4161C116.764 76.1707 116.412 75.8401 116.146 75.4241C115.89 74.9974 115.762 74.5227 115.762 74.0001C115.762 73.4667 115.89 72.9921 116.146 72.5761C116.412 72.1601 116.764 71.8347 117.202 71.6001C117.65 71.3547 118.146 71.2321 118.69 71.2321C119.948 71.2321 121.01 71.8134 121.874 72.9761C122.3 72.4107 122.786 71.9787 123.33 71.6801C123.874 71.3814 124.455 71.2321 125.074 71.2321C125.618 71.2321 126.108 71.3547 126.546 71.6001C126.994 71.8347 127.346 72.1601 127.602 72.5761C127.868 72.9921 128.002 73.4667 128.002 74.0001C128.002 74.5227 127.868 74.9974 127.602 75.4241C127.346 75.8401 126.994 76.1707 126.546 76.4161C126.108 76.6507 125.618 76.7681 125.074 76.7681C124.444 76.7681 123.858 76.6187 123.314 76.3201C122.78 76.0107 122.3 75.5787 121.874 75.0241C121.458 75.5787 120.978 76.0107 120.434 76.3201C119.89 76.6187 119.308 76.7681 118.69 76.7681ZM118.738 75.8081C119.271 75.8081 119.751 75.6481 120.178 75.3281C120.615 75.0081 120.999 74.5654 121.33 74.0001C120.999 73.4241 120.615 72.9814 120.178 72.6721C119.751 72.3521 119.271 72.1921 118.738 72.1921C118.172 72.1921 117.708 72.3627 117.346 72.7041C116.983 73.0347 116.802 73.4667 116.802 74.0001C116.802 74.5227 116.983 74.9547 117.346 75.2961C117.708 75.6374 118.172 75.8081 118.738 75.8081ZM125.026 75.8081C125.591 75.8081 126.055 75.6374 126.418 75.2961C126.78 74.9547 126.962 74.5227 126.962 74.0001C126.962 73.4667 126.78 73.0347 126.418 72.7041C126.055 72.3627 125.591 72.1921 125.026 72.1921C124.471 72.1921 123.975 72.3574 123.538 72.6881C123.111 73.0081 122.743 73.4454 122.434 74.0001C122.754 74.5654 123.132 75.0081 123.57 75.3281C124.018 75.6481 124.503 75.8081 125.026 75.8081Z" fill="white"/>
</svg>
