<svg width="64" height="64" viewBox="0 0 64 64" fill="none" xmlns="http://www.w3.org/2000/svg">
<g clip-path="url(#clip0_1744_47636)">
<rect x="12" y="12" width="52" height="52" rx="6" fill="#F7F8FA"/>
<rect opacity="0.5" width="52" height="52" rx="6" fill="#F5D3D4"/>
<path d="M28.1731 30.96C28.1731 32.16 27.1997 33.1333 25.9997 33.1333C25.1464 33.1333 24.4131 32.64 24.0664 31.9333L26.9731 29.0267C27.6797 29.3733 28.1731 30.1067 28.1731 30.96Z" fill="#CC2127"/>
<path d="M39.0268 12.9733C38.6268 12.5733 37.9735 12.5733 37.5735 12.9733L33.8268 16.72C32.8002 14.0267 30.1735 12.6667 26.0002 12.6667C18.4935 12.6667 17.6268 17.44 17.6268 21.04V22.7067C17.6402 22.7067 17.6535 22.7067 17.6668 22.7067C13.8935 23.16 12.6668 25.04 12.6668 29.72V32.2C12.6668 34.3333 12.9202 35.88 13.5602 36.9867L12.9602 37.5867C12.5602 37.9867 12.5602 38.64 12.9602 39.04C13.1735 39.2267 13.4268 39.3333 13.6935 39.3333C13.9602 39.3333 14.2135 39.2267 14.4135 39.0267L39.0268 14.4133C39.4402 14.0133 39.4402 13.3733 39.0268 12.9733ZM19.8002 22.5867C19.6935 22.5867 19.6002 22.5867 19.4935 22.5867V21.04C19.4935 17.1333 20.6002 14.5333 26.0002 14.5333C30.5335 14.5333 31.9602 16.2667 32.3602 18.2L27.9735 22.5867H19.8002Z" fill="#CC2127"/>
<path d="M39.3328 29.72V32.2C39.3328 37.6667 37.6661 39.3333 32.1994 39.3333H19.8794C18.6928 39.3333 18.1061 37.8933 18.9461 37.0533L22.7061 33.2933C22.7994 33.4267 22.9061 33.5467 23.0128 33.6667C23.9461 34.68 25.3327 35.2133 26.8661 34.8933C26.9861 34.8667 27.1061 34.84 27.2261 34.7867C27.3461 34.76 27.4528 34.72 27.5594 34.6667C27.8261 34.5733 28.0794 34.4267 28.3194 34.2533C28.4128 34.2 28.4928 34.1333 28.5594 34.0667C28.7594 33.9067 28.9461 33.72 29.1061 33.52C29.1728 33.4533 29.2394 33.3733 29.2928 33.28C29.4661 33.04 29.6128 32.7867 29.7061 32.52C29.7594 32.4133 29.7994 32.3067 29.8261 32.1867C29.8794 32.0667 29.9061 31.9467 29.9327 31.8267C30.2528 30.2933 29.7194 28.9067 28.7061 27.9733C28.5994 27.8667 28.4661 27.76 28.3328 27.6667L32.4928 23.5067C32.5594 23.44 32.6128 23.3867 32.6794 23.3333C33.2128 22.8933 33.8928 22.68 34.5728 22.7333C34.6928 22.7467 34.8261 22.76 34.9461 22.7867C35.1727 22.8267 35.3994 22.88 35.6127 22.9333C35.8261 22.9867 36.0261 23.0533 36.2261 23.12C36.6127 23.2667 36.9461 23.44 37.2528 23.64C37.5594 23.84 37.8128 24.08 38.0528 24.36C38.1728 24.5067 38.2928 24.6667 38.3861 24.84C38.4794 24.9867 38.5594 25.1467 38.6394 25.32C38.7194 25.4933 38.7861 25.68 38.8527 25.8667C38.9327 26.0933 38.9994 26.3467 39.0528 26.6133C39.1061 26.8 39.1327 27 39.1727 27.2133C39.1994 27.4133 39.2261 27.6267 39.2528 27.8533C39.3061 28.4133 39.3328 29.04 39.3328 29.72Z" fill="#CC2127"/>
</g>
<defs>
<clipPath id="clip0_1744_47636">
<rect width="64" height="64" fill="white"/>
</clipPath>
</defs>
</svg>
