<svg width="64" height="64" viewBox="0 0 64 64" fill="none" xmlns="http://www.w3.org/2000/svg">
<path d="M42.6667 11.3334C42.6667 14.64 39.9734 17.3334 36.6667 17.3334H27.3334C25.68 17.3334 24.1867 16.6667 23.0934 15.5734C22 14.48 21.3334 12.9867 21.3334 11.3334C21.3334 8.02671 24.0267 5.33337 27.3334 5.33337H36.6667C38.32 5.33337 39.8134 6.00004 40.9067 7.09337C42 8.18671 42.6667 9.68004 42.6667 11.3334Z" fill="#0B1621"/>
<path d="M50.2133 13.4134C49.6 12.9067 48.9066 12.5067 48.16 12.2134C47.3866 11.92 46.6133 12.5334 46.4533 13.3334C45.5466 17.8934 41.52 21.3334 36.6666 21.3334H27.3333C24.6666 21.3334 22.16 20.2934 20.2666 18.4C18.88 17.0134 17.92 15.2534 17.5466 13.36C17.3866 12.56 16.5866 11.92 15.8133 12.24C12.72 13.4934 10.6666 16.32 10.6666 22V48C10.6666 56 15.44 58.6667 21.3333 58.6667H42.6666C48.56 58.6667 53.3333 56 53.3333 48V22C53.3333 17.6534 52.1333 14.9867 50.2133 13.4134ZM21.3333 32.6667H32C33.0933 32.6667 34 33.5734 34 34.6667C34 35.76 33.0933 36.6667 32 36.6667H21.3333C20.24 36.6667 19.3333 35.76 19.3333 34.6667C19.3333 33.5734 20.24 32.6667 21.3333 32.6667ZM42.6666 47.3334H21.3333C20.24 47.3334 19.3333 46.4267 19.3333 45.3334C19.3333 44.24 20.24 43.3334 21.3333 43.3334H42.6666C43.76 43.3334 44.6666 44.24 44.6666 45.3334C44.6666 46.4267 43.76 47.3334 42.6666 47.3334Z" fill="#0B1621"/>
</svg>
