<svg width="157" height="156" viewBox="0 0 157 156" fill="none" xmlns="http://www.w3.org/2000/svg">
<rect x="0.5" width="156" height="156" rx="6" fill="#F7F8FA"/>
<path d="M78.5013 76.7466C71.1413 76.7466 65.168 82.7199 65.168 90.0799C65.168 92.0533 65.5946 93.9199 66.3946 95.5732C66.608 96.0533 66.848 96.5066 67.1146 96.9333C69.408 100.8 73.648 103.413 78.5013 103.413C83.3546 103.413 87.5946 100.8 89.888 96.9333C90.1546 96.5066 90.3946 96.0533 90.608 95.5732C91.408 93.9199 91.8346 92.0533 91.8346 90.0799C91.8346 82.7199 85.8613 76.7466 78.5013 76.7466ZM82.5013 94.3732C82.1013 94.7732 81.5946 94.9599 81.088 94.9599C80.5813 94.9599 80.0746 94.7732 79.6746 94.3732L78.2613 92.9599L76.7946 94.4266C76.3946 94.8266 75.888 95.0132 75.3813 95.0132C74.8746 95.0132 74.368 94.8266 73.968 94.4266C73.1946 93.6532 73.1946 92.3733 73.968 91.5999L75.4346 90.1332L74.0213 88.7199C73.248 87.9466 73.248 86.6666 74.0213 85.8932C74.7946 85.1199 76.0746 85.1199 76.848 85.8932L78.2613 87.3066L79.5946 85.9732C80.368 85.1999 81.648 85.1999 82.4213 85.9732C83.1946 86.7466 83.1946 88.0266 82.4213 88.7999L81.088 90.1332L82.5013 91.5466C83.2746 92.3466 83.2746 93.5999 82.5013 94.3732Z" fill="#CC2127"/>
<path d="M100.365 92.1066C99.4049 92.9599 98.3649 93.6799 97.2449 94.2666C96.2849 94.7466 95.3249 93.8132 95.4849 92.7466C95.5916 91.9732 95.6449 91.1732 95.6449 90.3466C95.6449 80.7999 87.8582 73.0132 78.3116 73.0132C68.7649 73.0132 60.9782 80.7999 60.9782 90.3466C60.9782 91.5732 61.1116 92.7466 61.3516 93.8932C61.5382 94.8266 60.8182 95.7599 59.8849 95.5199C49.3516 92.9599 49.2982 76.7466 61.0849 75.8932H61.2182C52.6582 52.1066 88.7649 42.5866 92.8982 67.5999C104.445 69.0666 109.112 84.4532 100.365 92.1066Z" fill="#CC2127"/>
</svg>
