<svg width="157" height="156" viewBox="0 0 157 156" fill="none" xmlns="http://www.w3.org/2000/svg">
<rect x="0.5" width="156" height="156" rx="6" fill="#F7F8FA"/>
<path d="M60.7136 97.7867C60.4203 97.7867 60.1003 97.7067 59.8336 97.5733L53.9136 94.6133C53.247 94.2667 52.8203 93.5733 52.8203 92.8267V85.4133C52.8203 84.32 53.727 83.4133 54.8203 83.4133C55.9136 83.4133 56.8203 84.32 56.8203 85.4133V91.5733L61.6203 94C62.607 94.48 63.007 95.68 62.5003 96.6667C62.1536 97.36 61.4603 97.7867 60.7136 97.7867Z" fill="#CC2127"/>
<path d="M78.4986 106.667C78.3386 106.667 78.1786 106.64 78.0453 106.613C77.8853 106.587 77.7253 106.507 77.5653 106.427L71.6719 103.493C70.6853 102.987 70.2853 101.787 70.7653 100.8C71.2719 99.8134 72.4719 99.4134 73.4586 99.8934L76.4986 101.413V97.2534C76.4986 96.1601 77.4053 95.2534 78.4986 95.2534C79.5919 95.2534 80.4986 96.1601 80.4986 97.2534V101.413L83.5386 99.8934C84.5253 99.4134 85.7253 99.8134 86.2319 100.8C86.7386 101.787 86.3386 102.987 85.3253 103.493L79.4319 106.427C79.2719 106.507 79.1119 106.56 78.9519 106.613C78.7919 106.64 78.6586 106.667 78.4986 106.667Z" fill="#CC2127"/>
<path d="M96.2871 97.7866C95.5671 97.7866 94.8471 97.3866 94.5005 96.6933C93.9938 95.7066 94.3938 94.5066 95.4071 93.9999L100.234 91.5999V85.4399C100.234 84.3466 101.14 83.4399 102.234 83.4399C103.327 83.4399 104.234 84.3466 104.234 85.4399V92.8533C104.234 93.5999 103.807 94.2933 103.14 94.6399L97.1671 97.5733C96.8738 97.7066 96.5805 97.7866 96.2871 97.7866Z" fill="#CC2127"/>
<path d="M78.4986 84.4535C77.4053 84.4535 76.4986 83.5468 76.4986 82.4535V76.2935L71.6719 73.8935C70.6853 73.3868 70.2853 72.1868 70.7653 71.2001C71.2719 70.2135 72.4719 69.8135 73.4586 70.2935L78.4986 72.8001L83.5386 70.2935C84.5253 69.8135 85.7253 70.1868 86.2319 71.2001C86.7386 72.1868 86.3386 73.3868 85.3253 73.8935L80.4986 76.2935V82.4535C80.4986 83.5468 79.5919 84.4535 78.4986 84.4535Z" fill="#CC2127"/>
<path d="M54.793 72.5866C53.6996 72.5866 52.793 71.68 52.793 70.5866V63.2266V63.2C52.793 63.04 52.8196 62.88 52.8463 62.7466C52.8996 62.5066 52.9796 62.32 53.0863 62.1333C53.1663 62 53.273 61.8933 53.3796 61.7866C53.4863 61.68 53.6196 61.5733 53.753 61.4933C53.8063 61.4666 53.8863 61.4133 53.9396 61.3866L59.833 58.4266C60.8196 57.9466 62.0196 58.3466 62.4996 59.3333C63.0063 60.32 62.6063 61.52 61.6196 62L59.273 63.1733L61.6196 64.3466C62.6063 64.8533 63.0063 66.0533 62.4996 67.04C62.0196 68.0266 60.8196 68.4266 59.833 67.9466L56.793 66.4266V70.5866C56.793 71.7066 55.913 72.5866 54.793 72.5866Z" fill="#CC2127"/>
<path d="M84.4208 56.2933C84.1275 56.2933 83.8075 56.2133 83.5408 56.08L78.5008 53.5733L73.4608 56.08C72.4741 56.5867 71.2741 56.1867 70.7941 55.2C70.2875 54.2133 70.6875 53.0133 71.6741 52.5067L77.5941 49.5467C78.1541 49.2533 78.8208 49.2533 79.3808 49.5467L85.3008 52.5067C86.2875 53.0133 86.6875 54.2133 86.2075 55.2C85.8608 55.8933 85.1675 56.2933 84.4208 56.2933Z" fill="#CC2127"/>
<path d="M102.208 72.5866C101.114 72.5866 100.208 71.68 100.208 70.5866V66.4266L97.1678 67.9466C96.1812 68.4266 94.9812 68.0266 94.5012 67.04C93.9945 66.0533 94.3945 64.8533 95.4078 64.3466L97.7545 63.1733L95.3812 62C94.3945 61.52 93.9945 60.32 94.5012 59.3333C95.0078 58.3466 96.1812 57.9466 97.1678 58.4266L103.061 61.36C103.114 61.3866 103.194 61.4133 103.248 61.4666C103.408 61.5466 103.541 61.68 103.674 61.8133C103.754 61.92 103.834 62.0266 103.914 62.1333C104.021 62.32 104.101 62.5066 104.154 62.72C104.181 62.88 104.208 63.04 104.208 63.1733V63.2V70.56C104.208 71.7066 103.301 72.5866 102.208 72.5866Z" fill="#CC2127"/>
</svg>
