<svg width="24" height="24" viewBox="0 0 24 24" fill="none" xmlns="http://www.w3.org/2000/svg">
<path d="M5.32914 19.42C5.21914 19.42 5.09914 19.39 4.99914 19.34L2.77914 18.23C2.52914 18.1 2.36914 17.84 2.36914 17.56V14.78C2.36914 14.37 2.70914 14.03 3.11914 14.03C3.52914 14.03 3.86914 14.37 3.86914 14.78V17.09L5.66914 18C6.03914 18.18 6.18914 18.63 5.99914 19C5.86914 19.26 5.60914 19.42 5.32914 19.42Z" fill="#CC2127"/>
<path d="M11.9995 22.75C11.9395 22.75 11.8795 22.74 11.8295 22.73C11.7695 22.72 11.7095 22.69 11.6495 22.66L9.43947 21.56C9.06947 21.37 8.91947 20.92 9.09947 20.55C9.28947 20.18 9.73947 20.03 10.1095 20.21L11.2495 20.78V19.22C11.2495 18.81 11.5895 18.47 11.9995 18.47C12.4095 18.47 12.7495 18.81 12.7495 19.22V20.78L13.8895 20.21C14.2595 20.03 14.7095 20.18 14.8995 20.55C15.0895 20.92 14.9395 21.37 14.5595 21.56L12.3495 22.66C12.2895 22.69 12.2295 22.71 12.1695 22.73C12.1095 22.74 12.0595 22.75 11.9995 22.75Z" fill="#CC2127"/>
<path d="M18.6702 19.42C18.4002 19.42 18.1302 19.27 18.0002 19.01C17.8102 18.64 17.9602 18.19 18.3402 18L20.1502 17.1V14.79C20.1502 14.38 20.4902 14.04 20.9002 14.04C21.3102 14.04 21.6502 14.38 21.6502 14.79V17.57C21.6502 17.85 21.4902 18.11 21.2402 18.24L19.0002 19.34C18.8902 19.39 18.7802 19.42 18.6702 19.42Z" fill="#CC2127"/>
<path d="M11.9995 14.42C11.5895 14.42 11.2495 14.08 11.2495 13.67V11.36L9.43947 10.46C9.06947 10.27 8.91947 9.82004 9.09947 9.45004C9.28947 9.08005 9.73947 8.93004 10.1095 9.11004L11.9995 10.05L13.8895 9.11004C14.2595 8.93004 14.7095 9.07005 14.8995 9.45004C15.0895 9.82004 14.9395 10.27 14.5595 10.46L12.7495 11.36V13.67C12.7495 14.08 12.4095 14.42 11.9995 14.42Z" fill="#CC2127"/>
<path d="M3.10938 9.97002C2.69938 9.97002 2.35938 9.63002 2.35938 9.22002V6.46002V6.45002C2.35938 6.39002 2.36938 6.33002 2.37938 6.28002C2.39938 6.19002 2.42938 6.12002 2.46938 6.05002C2.49938 6.00002 2.53938 5.96002 2.57938 5.92002C2.61938 5.88002 2.66938 5.84002 2.71938 5.81002C2.73938 5.80002 2.76938 5.78002 2.78938 5.77002L4.99938 4.66002C5.36938 4.48002 5.81938 4.63002 5.99938 5.00002C6.18938 5.37002 6.03938 5.82002 5.66938 6.00002L4.78938 6.44002L5.66938 6.88002C6.03938 7.07002 6.18938 7.52002 5.99938 7.89002C5.81938 8.26002 5.36938 8.41002 4.99938 8.23002L3.85938 7.66002V9.22002C3.85938 9.64002 3.52937 9.97002 3.10938 9.97002Z" fill="#CC2127"/>
<path d="M14.2198 3.86006C14.1098 3.86006 13.9898 3.83006 13.8898 3.78006L11.9998 2.84006L10.1098 3.78006C9.73981 3.97006 9.28981 3.82006 9.10981 3.45006C8.91981 3.08006 9.06981 2.63006 9.43981 2.44006L11.6598 1.33006C11.8698 1.22006 12.1198 1.22006 12.3298 1.33006L14.5498 2.44006C14.9198 2.63006 15.0698 3.08006 14.8898 3.45006C14.7598 3.71006 14.4998 3.86006 14.2198 3.86006Z" fill="#CC2127"/>
<path d="M20.8904 9.97002C20.4804 9.97002 20.1404 9.63002 20.1404 9.22002V7.66002L19.0004 8.23002C18.6304 8.41002 18.1804 8.26002 18.0004 7.89002C17.8104 7.52002 17.9604 7.07002 18.3404 6.88002L19.2204 6.44002L18.3304 6.00002C17.9604 5.82002 17.8104 5.37002 18.0004 5.00002C18.1904 4.63002 18.6304 4.48002 19.0004 4.66002L21.2104 5.76002C21.2304 5.77002 21.2604 5.78002 21.2804 5.80002C21.3404 5.83002 21.3904 5.88002 21.4404 5.93002C21.4704 5.97002 21.5004 6.01002 21.5304 6.05002C21.5704 6.12002 21.6004 6.19002 21.6204 6.27002C21.6304 6.33002 21.6404 6.39002 21.6404 6.44002V6.45002V9.21002C21.6404 9.64002 21.3004 9.97002 20.8904 9.97002Z" fill="#CC2127"/>
</svg>
