<svg width="24" height="24" viewBox="0 0 24 24" fill="none" xmlns="http://www.w3.org/2000/svg">
<path d="M5.33109 19.42C5.22109 19.42 5.10109 19.39 5.00109 19.34L2.78109 18.23C2.53109 18.1 2.37109 17.84 2.37109 17.56V14.78C2.37109 14.37 2.71109 14.03 3.12109 14.03C3.53109 14.03 3.87109 14.37 3.87109 14.78V17.09L5.67109 18C6.04109 18.18 6.19109 18.63 6.00109 19C5.87109 19.26 5.61109 19.42 5.33109 19.42Z" fill="#CC2127"/>
<path d="M11.9995 22.75C11.9395 22.75 11.8795 22.74 11.8295 22.73C11.7695 22.72 11.7095 22.69 11.6495 22.66L9.43947 21.56C9.06947 21.37 8.91947 20.92 9.09947 20.55C9.28947 20.18 9.73947 20.03 10.1095 20.21L11.2495 20.78V19.22C11.2495 18.81 11.5895 18.47 11.9995 18.47C12.4095 18.47 12.7495 18.81 12.7495 19.22V20.78L13.8895 20.21C14.2595 20.03 14.7095 20.18 14.8995 20.55C15.0895 20.92 14.9395 21.37 14.5595 21.56L12.3495 22.66C12.2895 22.69 12.2295 22.71 12.1695 22.73C12.1095 22.74 12.0595 22.75 11.9995 22.75Z" fill="#CC2127"/>
<path d="M18.6702 19.42C18.4002 19.42 18.1302 19.27 18.0002 19.01C17.8102 18.64 17.9602 18.19 18.3402 18L20.1502 17.1V14.79C20.1502 14.38 20.4902 14.04 20.9002 14.04C21.3102 14.04 21.6502 14.38 21.6502 14.79V17.57C21.6502 17.85 21.4902 18.11 21.2402 18.24L19.0002 19.34C18.8902 19.39 18.7802 19.42 18.6702 19.42Z" fill="#CC2127"/>
<path d="M11.9995 14.42C11.5895 14.42 11.2495 14.08 11.2495 13.67V11.36L9.43947 10.46C9.06947 10.27 8.91947 9.82001 9.09947 9.45001C9.28947 9.08001 9.73947 8.93001 10.1095 9.11001L11.9995 10.05L13.8895 9.11001C14.2595 8.93001 14.7095 9.07001 14.8995 9.45001C15.0895 9.82001 14.9395 10.27 14.5595 10.46L12.7495 11.36V13.67C12.7495 14.08 12.4095 14.42 11.9995 14.42Z" fill="#CC2127"/>
<path d="M3.10938 9.96999C2.69938 9.96999 2.35938 9.62999 2.35938 9.21999V6.45999V6.44999C2.35938 6.38999 2.36938 6.32999 2.37938 6.27999C2.39938 6.18999 2.42938 6.11999 2.46938 6.04999C2.49938 5.99999 2.53938 5.95999 2.57938 5.91999C2.61938 5.87999 2.66938 5.83999 2.71938 5.80999C2.73938 5.79999 2.76938 5.77999 2.78938 5.76999L4.99938 4.65999C5.36938 4.47999 5.81938 4.62999 5.99938 4.99999C6.18938 5.36999 6.03938 5.81999 5.66938 5.99999L4.78938 6.43999L5.66938 6.87999C6.03938 7.06999 6.18938 7.51999 5.99938 7.88999C5.81938 8.25999 5.36938 8.40999 4.99938 8.22999L3.85938 7.65999V9.21999C3.85938 9.63999 3.52937 9.96999 3.10938 9.96999Z" fill="#CC2127"/>
<path d="M14.2198 3.86C14.1098 3.86 13.9898 3.83 13.8898 3.78L11.9998 2.84L10.1098 3.78C9.73981 3.97 9.28981 3.82 9.10981 3.45C8.91981 3.08 9.06981 2.63 9.43981 2.44L11.6598 1.33C11.8698 1.22 12.1198 1.22 12.3298 1.33L14.5498 2.44C14.9198 2.63 15.0698 3.08 14.8898 3.45C14.7598 3.71 14.4998 3.86 14.2198 3.86Z" fill="#CC2127"/>
<path d="M20.8904 9.96999C20.4804 9.96999 20.1404 9.62999 20.1404 9.21999V7.65999L19.0004 8.22999C18.6304 8.40999 18.1804 8.25999 18.0004 7.88999C17.8104 7.51999 17.9604 7.06999 18.3404 6.87999L19.2204 6.43999L18.3304 5.99999C17.9604 5.81999 17.8104 5.36999 18.0004 4.99999C18.1904 4.62999 18.6304 4.47999 19.0004 4.65999L21.2104 5.75999C21.2304 5.76999 21.2604 5.77999 21.2804 5.79999C21.3404 5.82999 21.3904 5.87999 21.4404 5.92999C21.4704 5.96999 21.5004 6.00999 21.5304 6.04999C21.5704 6.11999 21.6004 6.18999 21.6204 6.26999C21.6304 6.32999 21.6404 6.38999 21.6404 6.43999V6.44999V9.20999C21.6404 9.63999 21.3004 9.96999 20.8904 9.96999Z" fill="#CC2127"/>
</svg>
