<svg width="64" height="64" viewBox="0 0 64 64" fill="none" xmlns="http://www.w3.org/2000/svg">
<g clip-path="url(#clip0_1741_35947)">
<rect x="12" y="12" width="52" height="52" rx="6" fill="#F7F8FA"/>
<rect opacity="0.5" width="52" height="52" rx="6" fill="#F5D3D4"/>
<path d="M31.586 12.6667H20.4127C15.5593 12.6667 12.666 15.56 12.666 20.4134V31.5734C12.666 36.44 15.5593 39.3334 20.4127 39.3334H31.5727C36.426 39.3334 39.3193 36.44 39.3193 31.5867V20.4134C39.3327 15.56 36.4394 12.6667 31.586 12.6667ZM20.1727 34.2C20.1727 34.7467 19.7193 35.2 19.1727 35.2C18.626 35.2 18.1727 34.7467 18.1727 34.2V31.44C18.1727 30.8934 18.626 30.44 19.1727 30.44C19.7193 30.44 20.1727 30.8934 20.1727 31.44V34.2ZM26.9993 34.2C26.9993 34.7467 26.546 35.2 25.9993 35.2C25.4527 35.2 24.9993 34.7467 24.9993 34.2V28.6667C24.9993 28.12 25.4527 27.6667 25.9993 27.6667C26.546 27.6667 26.9993 28.12 26.9993 28.6667V34.2ZM33.826 34.2C33.826 34.7467 33.3727 35.2 32.826 35.2C32.2794 35.2 31.826 34.7467 31.826 34.2V25.9067C31.826 25.36 32.2794 24.9067 32.826 24.9067C33.3727 24.9067 33.826 25.36 33.826 25.9067V34.2ZM33.826 21.6934C33.826 22.24 33.3727 22.6934 32.826 22.6934C32.2794 22.6934 31.826 22.24 31.826 21.6934V20.4C28.426 23.8934 24.1727 26.36 19.4127 27.5467C19.3327 27.5734 19.2527 27.5734 19.1727 27.5734C18.7193 27.5734 18.3193 27.2667 18.1993 26.8134C18.066 26.28 18.386 25.7334 18.9327 25.6C23.426 24.48 27.426 22.12 30.5993 18.7867H28.9327C28.386 18.7867 27.9327 18.3334 27.9327 17.7867C27.9327 17.24 28.386 16.7867 28.9327 16.7867H32.8393C32.8927 16.7867 32.9327 16.8134 32.986 16.8134C33.0527 16.8267 33.1193 16.8267 33.186 16.8534C33.2527 16.88 33.306 16.92 33.3727 16.96C33.4127 16.9867 33.4527 17 33.4927 17.0267C33.506 17.04 33.506 17.0534 33.5193 17.0534C33.5727 17.1067 33.6127 17.16 33.6527 17.2134C33.6927 17.2667 33.7327 17.3067 33.746 17.36C33.7727 17.4134 33.7727 17.4667 33.786 17.5334C33.7994 17.6 33.826 17.6667 33.826 17.7467C33.826 17.76 33.8393 17.7734 33.8393 17.7867V21.6934H33.826Z" fill="#CC2127"/>
</g>
<defs>
<clipPath id="clip0_1741_35947">
<rect width="64" height="64" fill="white"/>
</clipPath>
</defs>
</svg>
