<svg width="24" height="24" viewBox="0 0 24 24" fill="none" xmlns="http://www.w3.org/2000/svg">
<g id="vscode-icons:file-type-pdf2">
<path id="Vector" d="M18.072 1.55469L22.245 5.90469V22.4467H6.65625V22.5007H22.2983V5.95944L18.072 1.55469Z" fill="#909090"/>
<path id="Vector_2" d="M18.0266 1.5H6.60938V22.446H22.2514V5.90475L18.0266 1.5Z" fill="#F4F4F4"/>
<path id="Vector_3" d="M6.48781 2.625H1.69531V7.74525H16.7703V2.625H6.48781Z" fill="#7A7B7C"/>
<path id="Vector_4" d="M16.8546 7.65916H1.79688V2.53516H16.8546V7.65916Z" fill="#DD2025"/>
<path id="Vector_5" d="M6.79275 3.40198H5.8125V7.00198H6.5835V5.78773L6.75375 5.79748C6.91918 5.79463 7.08305 5.765 7.239 5.70973C7.37573 5.6627 7.50151 5.58846 7.60875 5.49148C7.71787 5.3991 7.80391 5.2825 7.86 5.15098C7.93522 4.93235 7.96209 4.70001 7.93875 4.46998C7.93407 4.30566 7.90526 4.14292 7.85325 3.98698C7.80591 3.87441 7.73564 3.77293 7.64693 3.689C7.55823 3.60507 7.45302 3.54053 7.338 3.49948C7.23856 3.46348 7.13581 3.43735 7.03125 3.42148C6.95207 3.40926 6.87211 3.40275 6.792 3.40198M6.65025 5.12248H6.5835V4.01248H6.72825C6.79213 4.00787 6.85624 4.01768 6.91582 4.04118C6.97541 4.06467 7.02895 4.10126 7.0725 4.14823C7.16274 4.26899 7.21095 4.41598 7.20975 4.56673C7.20975 4.75123 7.20975 4.91848 7.04325 5.03623C6.9233 5.1022 6.78677 5.13266 6.65025 5.12248ZM9.4035 3.39223C9.32025 3.39223 9.23925 3.39823 9.18225 3.40048L9.00375 3.40498H8.41875V7.00498H9.10725C9.37037 7.01219 9.63234 6.9676 9.87825 6.87373C10.0762 6.79522 10.2515 6.66867 10.3882 6.50548C10.5213 6.34082 10.6167 6.14911 10.668 5.94373C10.7269 5.71113 10.7557 5.47192 10.7535 5.23198C10.768 4.9486 10.7461 4.66452 10.6883 4.38673C10.6333 4.18225 10.5305 3.9938 10.3882 3.83698C10.2766 3.71035 10.14 3.60821 9.987 3.53698C9.85559 3.47617 9.71735 3.43135 9.57525 3.40348C9.51874 3.39415 9.46152 3.38988 9.40425 3.39073M9.26775 6.34348H9.19275V4.04548H9.2025C9.35712 4.02769 9.51356 4.05559 9.6525 4.12573C9.75425 4.20698 9.83715 4.30933 9.8955 4.42573C9.95847 4.54823 9.99476 4.68268 10.002 4.82023C10.0088 4.98523 10.002 5.12023 10.002 5.23198C10.0051 5.36071 9.99677 5.48946 9.97725 5.61673C9.95413 5.7474 9.9114 5.87383 9.8505 5.99173C9.78157 6.10135 9.68843 6.19371 9.57825 6.26173C9.48572 6.32158 9.37614 6.3495 9.26625 6.34123M13.0763 3.40498H11.2537V7.00498H12.0247V5.57698H12.9997V4.90798H12.0247V4.07398H13.0747V3.40498" fill="#464648"/>
<path id="Vector_6" d="M16.3326 15.1921C16.3326 15.1921 18.7236 14.7586 18.7236 15.5754C18.7236 16.3921 17.2423 16.0599 16.3326 15.1921ZM14.5648 15.2544C14.185 15.3383 13.8147 15.4612 13.4601 15.6211L13.7601 14.9461C14.0601 14.2711 14.3713 13.3509 14.3713 13.3509C14.7293 13.9534 15.1458 14.5191 15.6148 15.0399C15.2612 15.0926 14.9106 15.1647 14.5648 15.2559V15.2544ZM13.6183 10.3794C13.6183 9.66761 13.8486 9.47336 14.0278 9.47336C14.2071 9.47336 14.4088 9.55961 14.4156 10.1776C14.3572 10.799 14.2271 11.4116 14.0278 12.0031C13.7549 11.5065 13.6137 10.9483 13.6176 10.3816L13.6183 10.3794ZM10.1316 18.2664C9.39809 17.8276 11.6698 16.4769 12.0816 16.4334C12.0793 16.4341 10.8996 18.7254 10.1316 18.2664ZM19.4218 15.6721C19.4143 15.5971 19.3468 14.7669 17.8693 14.8021C17.2535 14.7922 16.6379 14.8356 16.0296 14.9319C15.4403 14.3382 14.9328 13.6685 14.5206 12.9406C14.7803 12.1902 14.9375 11.4081 14.9878 10.6156C14.9661 9.71561 14.7508 9.19961 14.0608 9.20711C13.3708 9.21461 13.2703 9.81836 13.3611 10.7169C13.45 11.3206 13.6177 11.9102 13.8598 12.4704C13.8598 12.4704 13.5411 13.4626 13.1196 14.4496C12.6981 15.4366 12.4101 15.9541 12.4101 15.9541C11.6771 16.1927 10.9871 16.5472 10.3663 17.0041C9.74834 17.5794 9.49709 18.0211 9.82259 18.4629C10.1031 18.8439 11.0848 18.9301 11.9623 17.7804C12.4286 17.1865 12.8545 16.5621 13.2373 15.9114C13.2373 15.9114 14.5753 15.5446 14.9916 15.4441C15.4078 15.3436 15.9111 15.2641 15.9111 15.2641C15.9111 15.2641 17.1328 16.4934 18.3111 16.4499C19.4893 16.4064 19.4323 15.7456 19.4248 15.6736" fill="#DD2025"/>
<path id="Vector_7" d="M17.9688 1.55859V5.96334H22.1935L17.9688 1.55859Z" fill="#909090"/>
<path id="Vector_8" d="M18.0234 1.5V5.90475H22.2482L18.0234 1.5Z" fill="#F4F4F4"/>
<path id="Vector_9" d="M6.73025 3.34339H5.75V6.94339H6.524V5.72989L6.695 5.73964C6.86043 5.73679 7.0243 5.70716 7.18025 5.65189C7.31697 5.60484 7.44275 5.5306 7.55 5.43364C7.65831 5.341 7.74356 5.22443 7.799 5.09314C7.87422 4.87451 7.90109 4.64216 7.87775 4.41214C7.87307 4.24782 7.84426 4.08508 7.79225 3.92914C7.74491 3.81657 7.67464 3.71509 7.58593 3.63116C7.49723 3.54723 7.39202 3.48268 7.277 3.44164C7.1771 3.40529 7.07385 3.37891 6.96875 3.36289C6.88957 3.35067 6.80961 3.34415 6.7295 3.34339M6.58775 5.06389H6.521V3.95389H6.6665C6.73039 3.94928 6.79449 3.95909 6.85407 3.98258C6.91366 4.00608 6.9672 4.04267 7.01075 4.08964C7.10099 4.2104 7.1492 4.35739 7.148 4.50814C7.148 4.69264 7.148 4.85989 6.9815 4.97764C6.86155 5.04361 6.72502 5.07331 6.5885 5.06314M9.341 3.33364C9.25775 3.33364 9.17675 3.33964 9.11975 3.34189L8.9435 3.34639H8.3585V6.94639H9.047C9.31012 6.9536 9.57209 6.909 9.818 6.81514C10.0159 6.73663 10.1912 6.61007 10.328 6.44689C10.461 6.28223 10.5565 6.09052 10.6077 5.88514C10.6667 5.65254 10.6954 5.41332 10.6932 5.17339C10.7078 4.89001 10.6859 4.60593 10.628 4.32814C10.5731 4.12366 10.4702 3.93521 10.328 3.77839C10.2164 3.65176 10.0798 3.54961 9.92675 3.47839C9.79534 3.41758 9.6571 3.37275 9.515 3.34489C9.45849 3.33555 9.40127 3.33129 9.344 3.33214M9.2075 6.28489H9.1325V3.98689H9.14225C9.29687 3.9691 9.45331 3.997 9.59225 4.06714C9.694 4.14838 9.7769 4.25074 9.83525 4.36714C9.89822 4.48964 9.93451 4.62409 9.94175 4.76164C9.9485 4.92664 9.94175 5.06164 9.94175 5.17339C9.9448 5.30212 9.93652 5.43086 9.917 5.55814C9.89388 5.68881 9.85115 5.81524 9.79025 5.93314C9.72132 6.04275 9.62819 6.13512 9.518 6.20314C9.42547 6.26299 9.31589 6.29091 9.206 6.28264M13.0138 3.34639H11.1912V6.94639H11.9622V5.51839H12.9372V4.84939H11.9622V4.01539H13.0122V3.34639" fill="white"/>
</g>
</svg>
