<svg width="64" height="64" viewBox="0 0 64 64" fill="none" xmlns="http://www.w3.org/2000/svg">
<g clip-path="url(#clip0_1404_16691)">
<rect x="12" y="12" width="52" height="52" rx="6" fill="#F7F8FA"/>
<rect opacity="0.5" width="52" height="52" rx="6" fill="#F5D3D4"/>
<path d="M25.9987 25.9998C29.6806 25.9998 32.6654 23.0151 32.6654 19.3332C32.6654 15.6513 29.6806 12.6665 25.9987 12.6665C22.3168 12.6665 19.332 15.6513 19.332 19.3332C19.332 23.0151 22.3168 25.9998 25.9987 25.9998Z" fill="#CC2127"/>
<path d="M25.9989 29.3335C19.3189 29.3335 13.8789 33.8135 13.8789 39.3335C13.8789 39.7068 14.1722 40.0002 14.5456 40.0002H37.4522C37.8256 40.0002 38.1189 39.7068 38.1189 39.3335C38.1189 33.8135 32.6789 29.3335 25.9989 29.3335Z" fill="#CC2127"/>
</g>
<defs>
<clipPath id="clip0_1404_16691">
<rect width="64" height="64" fill="white"/>
</clipPath>
</defs>
</svg>
