<svg width="157" height="156" viewBox="0 0 157 156" fill="none" xmlns="http://www.w3.org/2000/svg">
<rect x="0.5" width="156" height="156" rx="6" fill="#F7F8FA"/>
<path d="M69.8333 51.3333H45.8333C39.94 51.3333 35.1666 56.1066 35.1666 61.9999V81.3333C35.1666 82.7999 36.3666 83.9999 37.8333 83.9999H77.8333C79.3 83.9999 80.5 82.7999 80.5 81.3333V61.9999C80.5 56.1066 75.7266 51.3333 69.8333 51.3333ZM45.8333 79.9999H43.1666C42.0733 79.9999 41.1666 79.0933 41.1666 77.9999C41.1666 76.9066 42.0733 75.9999 43.1666 75.9999H45.8333C46.9266 75.9999 47.8333 76.9066 47.8333 77.9999C47.8333 79.0933 46.9266 79.9999 45.8333 79.9999ZM45.8333 73.3333H43.1666C42.0733 73.3333 41.1666 72.4266 41.1666 71.3333C41.1666 70.2399 42.0733 69.3333 43.1666 69.3333H45.8333C46.9266 69.3333 47.8333 70.2399 47.8333 71.3333C47.8333 72.4266 46.9266 73.3333 45.8333 73.3333ZM45.8333 66.6666H43.1666C42.0733 66.6666 41.1666 65.7599 41.1666 64.6666C41.1666 63.5733 42.0733 62.6666 43.1666 62.6666H45.8333C46.9266 62.6666 47.8333 63.5733 47.8333 64.6666C47.8333 65.7599 46.9266 66.6666 45.8333 66.6666Z" fill="#0B1621"/>
<path d="M35.1666 90.6667V94C35.1666 99.8933 39.94 104.667 45.8333 104.667H69.8333C75.7266 104.667 80.5 99.8933 80.5 94V90.6667C80.5 89.2 79.3 88 77.8333 88H37.8333C36.3666 88 35.1666 89.2 35.1666 90.6667ZM71.7266 97.8933C71.22 98.3733 70.5266 98.6667 69.8333 98.6667C69.14 98.6667 68.4466 98.3733 67.94 97.8933C67.46 97.3867 67.1666 96.6933 67.1666 96C67.1666 95.3067 67.46 94.6133 67.94 94.1067C68.9266 93.12 70.7133 93.12 71.7266 94.1067C72.2066 94.6133 72.5 95.3067 72.5 96C72.5 96.6933 72.2066 97.3867 71.7266 97.8933Z" fill="#0B1621"/>
<rect x="68.26" y="46" width="20.24" height="24" rx="8" fill="#CC2127"/>
<path d="M75.188 60.7679C74.644 60.7679 74.148 60.6506 73.7 60.4159C73.2627 60.1706 72.9107 59.8399 72.644 59.4239C72.388 58.9973 72.26 58.5226 72.26 57.9999C72.26 57.4666 72.388 56.9919 72.644 56.5759C72.9107 56.1599 73.2627 55.8346 73.7 55.5999C74.148 55.3546 74.644 55.2319 75.188 55.2319C76.4467 55.2319 77.508 55.8133 78.372 56.9759C78.7987 56.4106 79.284 55.9786 79.828 55.6799C80.372 55.3813 80.9533 55.2319 81.572 55.2319C82.116 55.2319 82.6067 55.3546 83.044 55.5999C83.492 55.8346 83.844 56.1599 84.1 56.5759C84.3667 56.9919 84.5 57.4666 84.5 57.9999C84.5 58.5226 84.3667 58.9973 84.1 59.4239C83.844 59.8399 83.492 60.1706 83.044 60.4159C82.6067 60.6506 82.116 60.7679 81.572 60.7679C80.9427 60.7679 80.356 60.6186 79.812 60.3199C79.2787 60.0106 78.7987 59.5786 78.372 59.0239C77.956 59.5786 77.476 60.0106 76.932 60.3199C76.388 60.6186 75.8067 60.7679 75.188 60.7679ZM75.236 59.8079C75.7693 59.8079 76.2493 59.6479 76.676 59.3279C77.1133 59.0079 77.4973 58.5653 77.828 57.9999C77.4973 57.4239 77.1133 56.9813 76.676 56.6719C76.2493 56.3519 75.7693 56.1919 75.236 56.1919C74.6707 56.1919 74.2067 56.3626 73.844 56.7039C73.4813 57.0346 73.3 57.4666 73.3 57.9999C73.3 58.5226 73.4813 58.9546 73.844 59.2959C74.2067 59.6373 74.6707 59.8079 75.236 59.8079ZM81.524 59.8079C82.0893 59.8079 82.5533 59.6373 82.916 59.2959C83.2787 58.9546 83.46 58.5226 83.46 57.9999C83.46 57.4666 83.2787 57.0346 82.916 56.7039C82.5533 56.3626 82.0893 56.1919 81.524 56.1919C80.9693 56.1919 80.4733 56.3573 80.036 56.6879C79.6093 57.0079 79.2413 57.4453 78.932 57.9999C79.252 58.5653 79.6307 59.0079 80.068 59.3279C80.516 59.6479 81.0013 59.8079 81.524 59.8079Z" fill="white"/>
<path d="M119.62 66H97.32C92.46 66 88.5 69.96 88.5 74.82V87.82V88.22C88.5 93.1 92.46 97.04 97.32 97.04H105C106.1 97.04 107 97.94 107 99.04V100.98C107 102.08 106.1 102.98 105 102.98H100.16C99.34 102.98 98.66 103.66 98.66 104.48C98.66 105.3 99.32 106 100.16 106H116.86C117.68 106 118.36 105.32 118.36 104.5C118.36 103.68 117.68 103 116.86 103H112.02C110.92 103 110.02 102.1 110.02 101V99.06C110.02 97.96 110.92 97.06 112.02 97.06H119.64C124.52 97.06 128.46 93.1 128.46 88.24V87.84V74.84C128.44 69.96 124.48 66 119.62 66Z" fill="#0B1621"/>
<rect x="112.26" y="62" width="20.24" height="24" rx="8" fill="#CC2127"/>
<path d="M119.188 76.7679C118.644 76.7679 118.148 76.6506 117.7 76.4159C117.263 76.1706 116.911 75.8399 116.644 75.4239C116.388 74.9973 116.26 74.5226 116.26 73.9999C116.26 73.4666 116.388 72.9919 116.644 72.5759C116.911 72.1599 117.263 71.8346 117.7 71.5999C118.148 71.3546 118.644 71.2319 119.188 71.2319C120.447 71.2319 121.508 71.8133 122.372 72.9759C122.799 72.4106 123.284 71.9786 123.828 71.6799C124.372 71.3813 124.953 71.2319 125.572 71.2319C126.116 71.2319 126.607 71.3546 127.044 71.5999C127.492 71.8346 127.844 72.1599 128.1 72.5759C128.367 72.9919 128.5 73.4666 128.5 73.9999C128.5 74.5226 128.367 74.9973 128.1 75.4239C127.844 75.8399 127.492 76.1706 127.044 76.4159C126.607 76.6506 126.116 76.7679 125.572 76.7679C124.943 76.7679 124.356 76.6186 123.812 76.3199C123.279 76.0106 122.799 75.5786 122.372 75.0239C121.956 75.5786 121.476 76.0106 120.932 76.3199C120.388 76.6186 119.807 76.7679 119.188 76.7679ZM119.236 75.8079C119.769 75.8079 120.249 75.6479 120.676 75.3279C121.113 75.0079 121.497 74.5653 121.828 73.9999C121.497 73.4239 121.113 72.9813 120.676 72.6719C120.249 72.3519 119.769 72.1919 119.236 72.1919C118.671 72.1919 118.207 72.3626 117.844 72.7039C117.481 73.0346 117.3 73.4666 117.3 73.9999C117.3 74.5226 117.481 74.9546 117.844 75.2959C118.207 75.6373 118.671 75.8079 119.236 75.8079ZM125.524 75.8079C126.089 75.8079 126.553 75.6373 126.916 75.2959C127.279 74.9546 127.46 74.5226 127.46 73.9999C127.46 73.4666 127.279 73.0346 126.916 72.7039C126.553 72.3626 126.089 72.1919 125.524 72.1919C124.969 72.1919 124.473 72.3573 124.036 72.6879C123.609 73.0079 123.241 73.4453 122.932 73.9999C123.252 74.5653 123.631 75.0079 124.068 75.3279C124.516 75.6479 125.001 75.8079 125.524 75.8079Z" fill="white"/>
</svg>
