<svg width="64" height="64" viewBox="0 0 64 64" fill="none" xmlns="http://www.w3.org/2000/svg">
<g clip-path="url(#clip0_1_14177)">
<rect x="12" y="12" width="52" height="52" rx="6" fill="#F7F8FA"/>
<rect opacity="0.5" width="52" height="52" rx="6" fill="#F5D3D4"/>
<path d="M26.0007 26.0001C29.6825 26.0001 32.6673 23.0153 32.6673 19.3334C32.6673 15.6515 29.6825 12.6667 26.0007 12.6667C22.3188 12.6667 19.334 15.6515 19.334 19.3334C19.334 23.0153 22.3188 26.0001 26.0007 26.0001Z" fill="#CC2127"/>
<path d="M26.0009 29.3333C19.3209 29.3333 13.8809 33.8133 13.8809 39.3333C13.8809 39.7066 14.1742 39.9999 14.5475 39.9999H37.4542C37.8275 39.9999 38.1209 39.7066 38.1209 39.3333C38.1209 33.8133 32.6809 29.3333 26.0009 29.3333Z" fill="#CC2127"/>
</g>
<defs>
<clipPath id="clip0_1_14177">
<rect width="64" height="64" fill="white"/>
</clipPath>
</defs>
</svg>
