<svg width="122" height="122" viewBox="0 0 122 122" fill="none" xmlns="http://www.w3.org/2000/svg">
<g filter="url(#filter0_d_622_2369)">
<rect width="50" height="50" rx="12" transform="matrix(1 0 0 -1 36 82)" fill="white" shape-rendering="crispEdges"/>
<path d="M57.9135 56.246C57.9511 56.2073 58.0934 56.042 58.2259 55.906C59.0026 55.0507 61.0289 53.6507 62.0895 53.2233C62.2505 53.1547 62.6577 53.0093 62.8753 53C63.0838 53 63.2825 53.048 63.4722 53.1453C63.7086 53.2813 63.8982 53.4953 64.0021 53.748C64.069 53.9233 64.1729 54.448 64.1729 54.4573C64.2768 55.0313 64.334 55.964 64.334 56.9947C64.334 57.9767 64.2768 58.8713 64.1918 59.454C64.182 59.4633 64.0781 60.1153 63.9644 60.3387C63.756 60.7467 63.3488 61 62.913 61H62.8753C62.5915 60.99 61.9946 60.7367 61.9946 60.7273C60.9912 60.2993 59.0117 58.968 58.2161 58.0833C58.2161 58.0833 57.992 57.856 57.8946 57.714C57.7427 57.51 57.6673 57.2573 57.6673 57.0047C57.6673 56.7227 57.7524 56.46 57.9135 56.246Z" fill="#0B1621"/>
</g>
<defs>
<filter id="filter0_d_622_2369" x="0" y="0" width="122" height="122" filterUnits="userSpaceOnUse" color-interpolation-filters="sRGB">
<feFlood flood-opacity="0" result="BackgroundImageFix"/>
<feColorMatrix in="SourceAlpha" type="matrix" values="0 0 0 0 0 0 0 0 0 0 0 0 0 0 0 0 0 0 127 0" result="hardAlpha"/>
<feOffset dy="4"/>
<feGaussianBlur stdDeviation="18"/>
<feComposite in2="hardAlpha" operator="out"/>
<feColorMatrix type="matrix" values="0 0 0 0 0 0 0 0 0 0 0 0 0 0 0 0 0 0 0.06 0"/>
<feBlend mode="normal" in2="BackgroundImageFix" result="effect1_dropShadow_622_2369"/>
<feBlend mode="normal" in="SourceGraphic" in2="effect1_dropShadow_622_2369" result="shape"/>
</filter>
</defs>
</svg>
