<svg width="64" height="64" viewBox="0 0 64 64" fill="none" xmlns="http://www.w3.org/2000/svg">
<g clip-path="url(#clip0_629_5566)">
<rect x="12" y="12" width="52" height="52" rx="6" fill="#F7F8FA"/>
<rect opacity="0.5" width="52" height="52" rx="6" fill="#F5D3D4"/>
<path d="M31.3333 12.6667H20.6667C16 12.6667 14 15.3334 14 19.3334V32.6667C14 36.6667 16 39.3334 20.6667 39.3334H31.3333C36 39.3334 38 36.6667 38 32.6667V19.3334C38 15.3334 36 12.6667 31.3333 12.6667ZM24.04 31.9601C24.4267 32.3467 24.4267 32.9867 24.04 33.3734C23.84 33.5734 23.5867 33.6667 23.3333 33.6667C23.08 33.6667 22.8267 33.5734 22.6267 33.3734L19.96 30.7067C19.5733 30.3201 19.5733 29.6801 19.96 29.2934L22.6267 26.6267C23.0133 26.2401 23.6533 26.2401 24.04 26.6267C24.4267 27.0134 24.4267 27.6534 24.04 28.0401L22.08 30.0001L24.04 31.9601ZM32.04 30.7067L29.3733 33.3734C29.1733 33.5734 28.92 33.6667 28.6667 33.6667C28.4133 33.6667 28.16 33.5734 27.96 33.3734C27.5733 32.9867 27.5733 32.3467 27.96 31.9601L29.92 30.0001L27.96 28.0401C27.5733 27.6534 27.5733 27.0134 27.96 26.6267C28.3467 26.2401 28.9867 26.2401 29.3733 26.6267L32.04 29.2934C32.4267 29.6801 32.4267 30.3201 32.04 30.7067ZM34.6667 22.3334H32C29.9733 22.3334 28.3333 20.6934 28.3333 18.6667V16.0001C28.3333 15.4534 28.7867 15.0001 29.3333 15.0001C29.88 15.0001 30.3333 15.4534 30.3333 16.0001V18.6667C30.3333 19.5867 31.08 20.3334 32 20.3334H34.6667C35.2133 20.3334 35.6667 20.7867 35.6667 21.3334C35.6667 21.8801 35.2133 22.3334 34.6667 22.3334Z" fill="#CC2127"/>
</g>
<defs>
<clipPath id="clip0_629_5566">
<rect width="64" height="64" fill="white"/>
</clipPath>
</defs>
</svg>
