<svg width="64" height="64" viewBox="0 0 64 64" fill="none" xmlns="http://www.w3.org/2000/svg">
<g clip-path="url(#clip0_1_6609)">
<rect x="12" y="12" width="52" height="52" rx="6" fill="white"/>
<rect opacity="0.5" width="52" height="52" rx="6" fill="#F5D3D4"/>
<path d="M25.9993 12.6667C18.6527 12.6667 12.666 18.6534 12.666 26.0001C12.666 33.3467 18.6527 39.3334 25.9993 39.3334C33.346 39.3334 39.3327 33.3467 39.3327 26.0001C39.3327 18.6534 33.346 12.6667 25.9993 12.6667ZM31.7993 30.7601C31.6127 31.0801 31.2793 31.2534 30.9327 31.2534C30.7593 31.2534 30.586 31.2134 30.426 31.1067L26.2927 28.6401C25.266 28.0267 24.506 26.6801 24.506 25.4934V20.0267C24.506 19.4801 24.9593 19.0267 25.506 19.0267C26.0527 19.0267 26.506 19.4801 26.506 20.0267V25.4934C26.506 25.9734 26.906 26.6801 27.3193 26.9201L31.4527 29.3867C31.9327 29.6667 32.0927 30.2801 31.7993 30.7601Z" fill="#CC2127"/>
</g>
<defs>
<clipPath id="clip0_1_6609">
<rect width="64" height="64" fill="white"/>
</clipPath>
</defs>
</svg>
