<svg width="64" height="64" viewBox="0 0 64 64" fill="none" xmlns="http://www.w3.org/2000/svg">
<g clip-path="url(#clip0_1_6599)">
<rect x="12" y="12" width="52" height="52" rx="6" fill="white"/>
<rect opacity="0.5" width="52" height="52" rx="6" fill="#F5D3D4"/>
<path d="M35 20.6667V23.4667C34.4133 23.3867 33.7467 23.3467 33 23.3334V20.6667C33 16.4667 31.8133 13.6667 26 13.6667C20.1867 13.6667 19 16.4667 19 20.6667V23.3334C18.2533 23.3467 17.5867 23.3867 17 23.4667V20.6667C17 16.8001 17.9333 11.6667 26 11.6667C34.0667 11.6667 35 16.8001 35 20.6667Z" fill="#CC2127"/>
<path d="M34.9993 23.4666C34.4127 23.3866 33.746 23.3466 32.9993 23.3333H18.9993C18.2527 23.3466 17.586 23.3866 16.9993 23.4666C13.5993 23.8799 12.666 25.5466 12.666 29.9999V32.6666C12.666 37.9999 13.9993 39.3333 19.3327 39.3333H32.666C37.9993 39.3333 39.3327 37.9999 39.3327 32.6666V29.9999C39.3327 25.5466 38.3993 23.8799 34.9993 23.4666ZM21.6127 32.2799C21.3593 32.5199 21.0127 32.6666 20.666 32.6666C20.4927 32.6666 20.3193 32.6266 20.1593 32.5599C19.986 32.4933 19.8527 32.3999 19.7193 32.2799C19.4793 32.0266 19.3327 31.6799 19.3327 31.3333C19.3327 31.1599 19.3727 30.9866 19.4393 30.8266C19.506 30.6666 19.5993 30.5199 19.7193 30.3866C19.8527 30.2666 19.986 30.1733 20.1593 30.1066C20.6527 29.8933 21.2393 30.0133 21.6127 30.3866C21.7327 30.5199 21.826 30.6666 21.8927 30.8266C21.9593 30.9866 21.9993 31.1599 21.9993 31.3333C21.9993 31.6799 21.8527 32.0266 21.6127 32.2799ZM27.226 31.8399C27.1593 31.9999 27.066 32.1466 26.946 32.2799C26.6927 32.5199 26.346 32.6666 25.9993 32.6666C25.6393 32.6666 25.306 32.5199 25.0527 32.2799C24.9327 32.1466 24.8393 31.9999 24.7727 31.8399C24.706 31.6799 24.666 31.5066 24.666 31.3333C24.666 30.9733 24.8127 30.6399 25.0527 30.3866C25.546 29.8933 26.4393 29.8933 26.946 30.3866C27.186 30.6399 27.3327 30.9733 27.3327 31.3333C27.3327 31.5066 27.2927 31.6799 27.226 31.8399ZM32.2793 32.2799C32.026 32.5199 31.6793 32.6666 31.3327 32.6666C30.986 32.6666 30.6393 32.5199 30.386 32.2799C30.146 32.0266 29.9993 31.6933 29.9993 31.3333C29.9993 30.9733 30.146 30.6399 30.386 30.3866C30.8927 29.8933 31.786 29.8933 32.2793 30.3866C32.3327 30.4533 32.386 30.5199 32.4393 30.5999C32.4927 30.6666 32.5327 30.7466 32.5593 30.8266C32.5993 30.9066 32.626 30.9866 32.6393 31.0666C32.6527 31.1599 32.666 31.2533 32.666 31.3333C32.666 31.6799 32.5193 32.0266 32.2793 32.2799Z" fill="#CC2127"/>
</g>
<defs>
<clipPath id="clip0_1_6599">
<rect width="64" height="64" fill="white"/>
</clipPath>
</defs>
</svg>
