<svg width="157" height="156" viewBox="0 0 157 156" fill="none" xmlns="http://www.w3.org/2000/svg">
<rect x="0.5" width="156" height="156" rx="6" fill="#F7F8FA"/>
<path d="M95.9382 56.9866L81.2715 51.4933C79.7515 50.9333 77.2715 50.9333 75.7515 51.4933L61.0848 56.9866C58.2582 58.0533 55.9648 61.36 55.9648 64.3733V85.9733C55.9648 88.1333 57.3782 90.9866 59.1115 92.2666L73.7782 103.227C76.3648 105.173 80.6048 105.173 83.1915 103.227L97.8582 92.2666C99.5915 90.96 101.005 88.1333 101.005 85.9733V64.3733C101.032 61.36 98.7382 58.0533 95.9382 56.9866ZM87.7782 71.92L76.3115 83.3866C75.9115 83.7866 75.4048 83.9733 74.8982 83.9733C74.3915 83.9733 73.8848 83.7866 73.4848 83.3866L69.2182 79.0666C68.4448 78.2933 68.4448 77.0133 69.2182 76.24C69.9915 75.4666 71.2715 75.4666 72.0448 76.24L74.9248 79.12L84.9782 69.0666C85.7515 68.2933 87.0315 68.2933 87.8048 69.0666C88.5782 69.84 88.5782 71.1466 87.7782 71.92Z" fill="#CC2127"/>
</svg>
