<svg width="64" height="64" viewBox="0 0 64 64" fill="none" xmlns="http://www.w3.org/2000/svg">
<g clip-path="url(#clip0_617_1183)">
<rect x="12" y="12" width="52" height="52" rx="6" fill="#F7F8FA"/>
<rect opacity="0.5" width="52" height="52" rx="6" fill="#F5D3D4"/>
<path d="M34.7191 15.4933L27.3858 12.7466C26.6258 12.4666 25.3858 12.4666 24.6258 12.7466L17.2924 15.4933C15.8791 16.0266 14.7324 17.68 14.7324 19.1866V29.9866C14.7324 31.0666 15.4391 32.4933 16.3058 33.1333L23.6391 38.6133C24.9324 39.5866 27.0524 39.5866 28.3458 38.6133L35.6791 33.1333C36.5458 32.48 37.2524 31.0666 37.2524 29.9866V19.1866C37.2658 17.68 36.1191 16.0266 34.7191 15.4933ZM30.6391 22.96L24.9058 28.6933C24.7058 28.8933 24.4524 28.9866 24.1991 28.9866C23.9458 28.9866 23.6924 28.8933 23.4924 28.6933L21.3591 26.5333C20.9724 26.1466 20.9724 25.5066 21.3591 25.12C21.7458 24.7333 22.3858 24.7333 22.7724 25.12L24.2124 26.56L29.2391 21.5333C29.6258 21.1466 30.2658 21.1466 30.6524 21.5333C31.0391 21.92 31.0391 22.5733 30.6391 22.96Z" fill="#CC2127"/>
</g>
<defs>
<clipPath id="clip0_617_1183">
<rect width="64" height="64" fill="white"/>
</clipPath>
</defs>
</svg>
