<svg width="24" height="16" viewBox="0 0 24 16" fill="none" xmlns="http://www.w3.org/2000/svg">
<path d="M11.0865 8.754C11.0489 8.79267 10.9066 8.958 10.7741 9.094C9.9974 9.94933 7.9711 11.3493 6.91054 11.7767C6.74947 11.8453 6.34226 11.9907 6.12469 12C5.91622 12 5.71748 11.952 5.52784 11.8547C5.29144 11.7187 5.1018 11.5047 4.99789 11.252C4.93099 11.0767 4.82708 10.552 4.82708 10.5427C4.72317 9.96867 4.66602 9.036 4.66602 8.00533C4.66602 7.02333 4.72317 6.12867 4.80825 5.546C4.81799 5.53667 4.9219 4.88467 5.03556 4.66133C5.24403 4.25333 5.65124 4 6.08703 4H6.12469C6.40851 4.01 7.00536 4.26333 7.00536 4.27267C8.00877 4.70067 9.98831 6.032 10.7839 6.91667C10.7839 6.91667 11.008 7.144 11.1054 7.286C11.2573 7.49 11.3327 7.74267 11.3327 7.99533C11.3327 8.27733 11.2476 8.54 11.0865 8.754Z" fill="#CC2127"/>
</svg>
