<svg width="48" height="48" viewBox="0 0 48 48" fill="none" xmlns="http://www.w3.org/2000/svg">
<rect width="48" height="48" rx="24" fill="white"/>
<path d="M22.7499 25.04C22.7499 24.47 22.2799 24 21.7099 24C21.1399 24 20.6699 24.47 20.6699 25.04C20.6699 25.3158 20.7795 25.5804 20.9745 25.7754C21.1696 25.9704 21.4341 26.08 21.7099 26.08C21.9857 26.08 22.2503 25.9704 22.4453 25.7754C22.6404 25.5804 22.7499 25.3158 22.7499 25.04ZM26.0899 27.41C25.6399 27.86 24.6799 28.02 23.9999 28.02C23.3199 28.02 22.3599 27.86 21.9099 27.41C21.8856 27.384 21.8562 27.3632 21.8235 27.349C21.7908 27.3348 21.7556 27.3275 21.7199 27.3275C21.6843 27.3275 21.649 27.3348 21.6163 27.349C21.5837 27.3632 21.5542 27.384 21.5299 27.41C21.5039 27.4343 21.4831 27.4637 21.4689 27.4964C21.4547 27.5291 21.4474 27.5644 21.4474 27.6C21.4474 27.6356 21.4547 27.6709 21.4689 27.7036C21.4831 27.7363 21.5039 27.7657 21.5299 27.79C22.2399 28.5 23.5999 28.56 23.9999 28.56C24.3999 28.56 25.7599 28.5 26.4699 27.79C26.496 27.7657 26.5167 27.7363 26.5309 27.7036C26.5451 27.6709 26.5524 27.6356 26.5524 27.6C26.5524 27.5644 26.5451 27.5291 26.5309 27.4964C26.5167 27.4637 26.496 27.4343 26.4699 27.41C26.3699 27.31 26.1999 27.31 26.0899 27.41ZM26.2899 24C25.7199 24 25.2499 24.47 25.2499 25.04C25.2499 25.61 25.7199 26.08 26.2899 26.08C26.8599 26.08 27.3299 25.61 27.3299 25.04C27.3299 24.47 26.8699 24 26.2899 24Z" fill="#0B1621"/>
<path d="M24 14C18.48 14 14 18.48 14 24C14 29.52 18.48 34 24 34C29.52 34 34 29.52 34 24C34 18.48 29.52 14 24 14ZM29.8 25.33C29.82 25.47 29.83 25.62 29.83 25.77C29.83 28.01 27.22 29.83 24 29.83C20.78 29.83 18.17 28.01 18.17 25.77C18.17 25.62 18.18 25.47 18.2 25.33C17.69 25.1 17.34 24.59 17.34 24C17.3385 23.7132 17.4218 23.4324 17.5794 23.1929C17.737 22.9533 17.9619 22.7656 18.2258 22.6534C18.4897 22.5413 18.7808 22.5096 19.0627 22.5623C19.3446 22.6151 19.6045 22.75 19.81 22.95C20.82 22.22 22.22 21.76 23.77 21.71L24.51 18.22C24.52 18.15 24.56 18.09 24.62 18.06C24.68 18.02 24.75 18.01 24.82 18.02L27.24 18.54C27.3221 18.3736 27.4472 18.2321 27.6023 18.1304C27.7575 18.0286 27.9371 17.9702 28.1224 17.9612C28.3078 17.9522 28.4921 17.993 28.6564 18.0793C28.8207 18.1656 28.9589 18.2943 29.0566 18.452C29.1544 18.6097 29.2082 18.7907 29.2125 18.9762C29.2167 19.1617 29.1712 19.345 29.0808 19.507C28.9903 19.669 28.8582 19.8039 28.698 19.8976C28.5379 19.9913 28.3556 20.0405 28.17 20.04C27.61 20.04 27.16 19.6 27.13 19.05L24.96 18.59L24.3 21.71C25.83 21.76 27.2 22.23 28.2 22.95C28.3533 22.8036 28.5367 22.6925 28.7375 22.6244C28.9382 22.5563 29.1514 22.5329 29.3621 22.5558C29.5728 22.5787 29.776 22.6474 29.9574 22.757C30.1388 22.8667 30.2941 23.0146 30.4123 23.1905C30.5306 23.3664 30.609 23.5661 30.6421 23.7754C30.6751 23.9848 30.662 24.1989 30.6037 24.4027C30.5454 24.6064 30.4432 24.795 30.3044 24.9552C30.1656 25.1154 29.9934 25.2433 29.8 25.33Z" fill="#0B1621"/>
</svg>
