<svg width="65" height="64" viewBox="0 0 65 64" fill="none" xmlns="http://www.w3.org/2000/svg">
<g clip-path="url(#clip0_1_13632)">
<rect x="12.333" y="12" width="52" height="52" rx="6" fill="#F7F8FA"/>
<rect opacity="0.5" x="0.333008" width="52" height="52" rx="6" fill="#F5D3D4"/>
<path d="M26.0013 12.6667C18.6546 12.6667 12.668 18.6534 12.668 26.0001C12.668 33.3467 18.6546 39.3334 26.0013 39.3334C33.348 39.3334 39.3346 33.3467 39.3346 26.0001C39.3346 18.6534 33.348 12.6667 26.0013 12.6667ZM32.3746 22.9334L24.8146 30.4934C24.628 30.6801 24.3746 30.7867 24.108 30.7867C23.8413 30.7867 23.588 30.6801 23.4013 30.4934L19.628 26.7201C19.2413 26.3334 19.2413 25.6934 19.628 25.3067C20.0146 24.9201 20.6546 24.9201 21.0413 25.3067L24.108 28.3734L30.9613 21.5201C31.348 21.1334 31.988 21.1334 32.3746 21.5201C32.7613 21.9067 32.7613 22.5334 32.3746 22.9334Z" fill="#CC2127"/>
</g>
<defs>
<clipPath id="clip0_1_13632">
<rect width="64" height="64" fill="white" transform="translate(0.333008)"/>
</clipPath>
</defs>
</svg>
