<svg width="65" height="64" viewBox="0 0 65 64" fill="none" xmlns="http://www.w3.org/2000/svg">
<g clip-path="url(#clip0_629_5543)">
<rect x="12.6641" y="12" width="52" height="52" rx="6" fill="#F7F8FA"/>
<rect opacity="0.5" x="0.664062" width="52" height="52" rx="6" fill="#F5D3D4"/>
<path d="M34.3842 21.7466C36.5639 21.7466 38.3308 19.9796 38.3308 17.7999C38.3308 15.6203 36.5639 13.8533 34.3842 13.8533C32.2045 13.8533 30.4375 15.6203 30.4375 17.7999C30.4375 19.9796 32.2045 21.7466 34.3842 21.7466Z" fill="#CC2127"/>
<path d="M19.6107 21.7466C21.7904 21.7466 23.5574 19.9796 23.5574 17.7999C23.5574 15.6203 21.7904 13.8533 19.6107 13.8533C17.431 13.8533 15.6641 15.6203 15.6641 17.7999C15.6641 19.9796 17.431 21.7466 19.6107 21.7466Z" fill="#CC2127"/>
<path d="M34.3842 38.1468C36.5639 38.1468 38.3308 36.3798 38.3308 34.2001C38.3308 32.0204 36.5639 30.2534 34.3842 30.2534C32.2045 30.2534 30.4375 32.0204 30.4375 34.2001C30.4375 36.3798 32.2045 38.1468 34.3842 38.1468Z" fill="#CC2127"/>
<path d="M19.6107 38.1468C21.7904 38.1468 23.5574 36.3798 23.5574 34.2001C23.5574 32.0204 21.7904 30.2534 19.6107 30.2534C17.431 30.2534 15.6641 32.0204 15.6641 34.2001C15.6641 36.3798 17.431 38.1468 19.6107 38.1468Z" fill="#CC2127"/>
</g>
<defs>
<clipPath id="clip0_629_5543">
<rect width="64" height="64" fill="white" transform="translate(0.664062)"/>
</clipPath>
</defs>
</svg>
