<svg width="65" height="64" viewBox="0 0 65 64" fill="none" xmlns="http://www.w3.org/2000/svg">
<g clip-path="url(#clip0_629_5554)">
<rect x="12.3359" y="12" width="52" height="52" rx="6" fill="#F7F8FA"/>
<rect opacity="0.5" x="0.335938" width="52" height="52" rx="6" fill="#F5D3D4"/>
<path d="M36.3041 31.4667C36.3041 31.4267 36.3307 31.3867 36.3307 31.3333V18.6667C36.3307 16.64 34.6907 15 32.6641 15H27.4241L29.3041 13.44C29.7307 13.08 29.7841 12.4533 29.4374 12.0267C29.0774 11.6 28.4507 11.5467 28.0241 11.8933L24.0241 15.2267C23.7974 15.4133 23.6641 15.6933 23.6641 16C23.6641 16.3067 23.7974 16.5733 24.0241 16.7733L28.0241 20.1067C28.2107 20.2667 28.4374 20.3333 28.6641 20.3333C28.9441 20.3333 29.2374 20.2133 29.4374 19.9733C29.7974 19.5467 29.7307 18.92 29.3041 18.56L27.4241 17H32.6641C33.5841 17 34.3307 17.7467 34.3307 18.6667V31.3333C34.3307 31.3867 34.3574 31.4267 34.3574 31.4667C32.6241 31.9067 31.3307 33.4667 31.3307 35.3333C31.3307 37.5467 33.1174 39.3333 35.3307 39.3333C37.5441 39.3333 39.3307 37.5467 39.3307 35.3333C39.3307 33.4667 38.0374 31.9067 36.3041 31.4667Z" fill="#CC2127"/>
<path d="M27.9707 35.2267L23.9707 31.8934C23.5441 31.5334 22.9174 31.6001 22.5574 32.0267C22.1974 32.4534 22.2641 33.0801 22.6907 33.4401L24.5707 35.0001H19.3307C18.4107 35.0001 17.6641 34.2534 17.6641 33.3334V20.6667C17.6641 20.6134 17.6374 20.5734 17.6374 20.5334C19.3707 20.0934 20.6641 18.5334 20.6641 16.6667C20.6641 14.4534 18.8774 12.6667 16.6641 12.6667C14.4507 12.6667 12.6641 14.4534 12.6641 16.6667C12.6641 18.5334 13.9574 20.0934 15.6907 20.5334C15.6907 20.5734 15.6641 20.6134 15.6641 20.6667V33.3334C15.6641 35.3601 17.3041 37.0001 19.3307 37.0001H24.5707L22.6907 38.5601C22.2641 38.9201 22.2107 39.5467 22.5574 39.9734C22.7574 40.2134 23.0374 40.3334 23.3307 40.3334C23.5574 40.3334 23.7841 40.2534 23.9707 40.1067L27.9707 36.7734C28.1974 36.5867 28.3307 36.3067 28.3307 36.0001C28.3307 35.6934 28.1974 35.4267 27.9707 35.2267Z" fill="#CC2127"/>
</g>
<defs>
<clipPath id="clip0_629_5554">
<rect width="64" height="64" fill="white" transform="translate(0.335938)"/>
</clipPath>
</defs>
</svg>
