<svg width="64" height="64" viewBox="0 0 64 64" fill="none" xmlns="http://www.w3.org/2000/svg">
<g clip-path="url(#clip0_1893_107228)">
<rect x="12" y="12" width="52" height="52" rx="6" fill="#F7F8FA"/>
<rect opacity="0.5" width="52" height="52" rx="6" fill="#F5D3D4"/>
<path d="M31.5841 12.668H20.4107C15.5574 12.668 12.6641 15.5613 12.6641 20.4146V31.5746C12.6641 36.4413 15.5574 39.3346 20.4107 39.3346H31.5707C36.4241 39.3346 39.3174 36.4413 39.3174 31.588V20.4146C39.3307 15.5613 36.4374 12.668 31.5841 12.668ZM31.5974 34.3346C30.0907 34.3346 28.8641 33.108 28.8641 31.6013C28.8641 30.7213 29.2907 29.948 29.9441 29.4413C29.3841 27.9746 27.9841 26.9613 26.4107 27.0146L23.6641 27.028H23.6507C22.8374 27.028 22.0641 26.788 21.4107 26.3746V29.068C22.4241 29.468 23.1441 30.4546 23.1441 31.6013C23.1441 33.108 21.9174 34.3346 20.4107 34.3346C18.9041 34.3346 17.6774 33.108 17.6774 31.6013C17.6774 30.4413 18.3974 29.468 19.4107 29.068V23.268C18.3974 22.8013 17.6774 21.788 17.6774 20.6013C17.6774 18.988 18.9974 17.668 20.6107 17.668C22.2241 17.668 23.5441 18.988 23.5441 20.6013C23.5441 21.908 22.6774 23.0013 21.4907 23.388C21.7574 24.3613 22.6374 25.0413 23.6507 25.0413C23.6507 25.0413 23.6507 25.0413 23.6641 25.0413L26.4107 25.028C26.4241 25.028 26.4241 25.028 26.4374 25.028C28.8907 25.028 31.0907 26.588 31.8907 28.908C33.2641 29.0546 34.3441 30.2013 34.3441 31.6146C34.3307 33.108 33.1041 34.3346 31.5974 34.3346Z" fill="#CC2127"/>
</g>
<defs>
<clipPath id="clip0_1893_107228">
<rect width="64" height="64" fill="white"/>
</clipPath>
</defs>
</svg>
