<svg width="64" height="64" viewBox="0 0 64 64" fill="none" xmlns="http://www.w3.org/2000/svg">
<g clip-path="url(#clip0_1893_107239)">
<rect x="12" y="12" width="52" height="52" rx="6" fill="#F7F8FA"/>
<rect opacity="0.5" width="52" height="52" rx="6" fill="#F5D3D4"/>
<path d="M31.5841 12.668H20.4107C15.5574 12.668 12.6641 15.5613 12.6641 20.4146V31.5746C12.6641 36.4413 15.5574 39.3346 20.4107 39.3346H31.5707C36.4241 39.3346 39.3174 36.4413 39.3174 31.588V20.4146C39.3307 15.5613 36.4374 12.668 31.5841 12.668ZM20.2241 17.3346C20.2241 16.788 20.6774 16.3346 21.2241 16.3346C21.7707 16.3346 22.2241 16.788 22.2241 17.3346V22.5346C22.2241 23.0813 21.7707 23.5346 21.2241 23.5346C20.6774 23.5346 20.2241 23.0813 20.2241 22.5346V17.3346ZM22.5792 31.9585C22.3728 32.0419 22.2241 32.2345 22.2241 32.4571V34.668C22.2241 35.2146 21.7707 35.668 21.2241 35.668C20.6774 35.668 20.2241 35.2146 20.2241 34.668V32.4571C20.2241 32.2345 20.0753 32.0419 19.869 31.9585C18.5348 31.4187 17.5974 30.1229 17.5974 28.6013C17.5974 26.6013 19.2241 24.9613 21.2241 24.9613C23.2241 24.9613 24.8641 26.588 24.8641 28.6013C24.8641 30.123 23.9153 31.4188 22.5792 31.9585ZM31.7707 34.668C31.7707 35.2146 31.3174 35.668 30.7707 35.668C30.2241 35.668 29.7707 35.2146 29.7707 34.668V29.468C29.7707 28.9213 30.2241 28.468 30.7707 28.468C31.3174 28.468 31.7707 28.9213 31.7707 29.468V34.668ZM30.7707 27.028C28.7707 27.028 27.1307 25.4013 27.1307 23.388C27.1307 21.8663 28.0795 20.5705 29.4156 20.0307C29.622 19.9474 29.7707 19.7548 29.7707 19.5322V17.3346C29.7707 16.788 30.2241 16.3346 30.7707 16.3346C31.3174 16.3346 31.7707 16.788 31.7707 17.3346V19.5455C31.7707 19.7681 31.9195 19.9607 32.1258 20.0441C33.46 20.5839 34.3974 21.8797 34.3974 23.4013C34.3974 25.4013 32.7707 27.028 30.7707 27.028Z" fill="#CC2127"/>
</g>
<defs>
<clipPath id="clip0_1893_107239">
<rect width="64" height="64" fill="white"/>
</clipPath>
</defs>
</svg>
