<svg width="16" height="16" viewBox="0 0 16 16" fill="none" xmlns="http://www.w3.org/2000/svg">
<path d="M11.0885 8.754C11.0508 8.79267 10.9086 8.958 10.7761 9.094C9.99935 9.94933 7.97305 11.3493 6.91249 11.7767C6.75142 11.8453 6.34421 11.9907 6.12665 12C5.91817 12 5.71944 11.952 5.5298 11.8547C5.29339 11.7187 5.10375 11.5047 4.99984 11.252C4.93295 11.0767 4.82903 10.552 4.82903 10.5427C4.72512 9.96867 4.66797 9.036 4.66797 8.00533C4.66797 7.02333 4.72512 6.12867 4.8102 5.546C4.81994 5.53667 4.92385 4.88467 5.03751 4.66133C5.24598 4.25333 5.65319 4 6.08898 4H6.12665C6.41046 4.01 7.00731 4.26333 7.00731 4.27267C8.01072 4.70067 9.99026 6.032 10.7858 6.91667C10.7858 6.91667 11.0099 7.144 11.1073 7.286C11.2593 7.49 11.3346 7.74267 11.3346 7.99533C11.3346 8.27733 11.2496 8.54 11.0885 8.754Z" fill="white"/>
</svg>
