<svg width="64" height="64" viewBox="0 0 64 64" fill="none" xmlns="http://www.w3.org/2000/svg">
<g clip-path="url(#clip0_1741_35958)">
<rect x="12" y="12" width="52" height="52" rx="6" fill="#F7F8FA"/>
<rect opacity="0.5" width="52" height="52" rx="6" fill="#F5D3D4"/>
<path d="M37.9867 22.9467C37.5333 22.76 36.9333 22.6667 36.1867 22.6667H29.1467C26.8267 22.6667 26 23.4934 26 25.84V36.16C26 36.9334 26.0933 37.5334 26.2933 38C26.7067 38.96 27.5867 39.3334 29.1467 39.3334H36.1867C38.5067 39.3334 39.3333 38.4934 39.3333 36.16V25.84C39.3333 24.2534 38.96 23.36 37.9867 22.9467ZM34 36.3334H31.3333C31.3067 36.3334 31.2667 36.3334 31.24 36.32C31.04 36.3067 30.8667 36.24 30.72 36.1067C30.48 35.9334 30.3333 35.6534 30.3333 35.3334C30.3333 34.7867 30.7867 34.3334 31.3333 34.3334H34C34.5467 34.3334 35 34.7867 35 35.3334C35 35.88 34.5467 36.3334 34 36.3334Z" fill="#CC2127"/>
<path d="M37.9864 18.2534V19.3334C37.9864 20.0667 37.3864 20.6667 36.653 20.6667H29.1464C25.733 20.6667 23.9997 22.4134 23.9997 25.84V38C23.9997 38.7334 23.3997 39.3334 22.6664 39.3334H20.0664C19.533 39.3334 19.1064 38.9067 19.1064 38.3867C19.1064 37.8534 19.533 37.44 20.0664 37.44H22.6664V32.3334H17.9997C15.0397 32.1867 12.6797 29.7467 12.6797 26.7467V18.2534C12.6797 15.1734 15.1864 12.6667 18.2797 12.6667H32.3997C35.4797 12.6667 37.9864 15.1734 37.9864 18.2534Z" fill="#CC2127"/>
</g>
<defs>
<clipPath id="clip0_1741_35958">
<rect width="64" height="64" fill="white"/>
</clipPath>
</defs>
</svg>
