<?xml version="1.0" standalone="no"?>
<!DOCTYPE svg PUBLIC "-//W3C//DTD SVG 20010904//EN"
 "http://www.w3.org/TR/2001/REC-SVG-20010904/DTD/svg10.dtd">
<svg version="1.0" xmlns="http://www.w3.org/2000/svg"
 width="862.000000pt" height="862.000000pt" viewBox="0 0 862.000000 862.000000"
 preserveAspectRatio="xMidYMid meet">
<metadata>
Created by potrace 1.14, written by Peter Selinger 2001-2017
</metadata>
<g transform="translate(0.000000,862.000000) scale(0.100000,-0.100000)"
fill="#000000" stroke="none">
<path d="M4441 7967 c-6 -6 -11 -8 -11 -4 0 4 -10 2 -22 -5 -13 -7 -26 -11
-30 -10 -5 1 -8 -3 -8 -9 0 -6 -7 -9 -15 -5 -8 3 -15 1 -15 -5 0 -6 -4 -7 -10
-4 -5 3 -10 1 -10 -5 0 -6 -4 -8 -10 -5 -5 3 -10 1 -10 -5 0 -6 -4 -9 -9 -6
-5 3 -21 -1 -37 -8 -72 -35 -136 -60 -146 -58 -5 1 -8 -2 -8 -8 0 -5 -3 -9 -7
-8 -9 1 -30 -6 -80 -28 -17 -8 -36 -14 -42 -14 -6 0 -11 -5 -11 -11 0 -5 -4
-8 -8 -5 -4 2 -37 -8 -72 -24 -35 -16 -68 -26 -72 -24 -4 3 -8 0 -8 -5 0 -6
-5 -11 -11 -11 -6 0 -25 -6 -42 -14 -50 -22 -71 -29 -79 -28 -5 1 -8 -3 -8
-10 0 -6 -3 -9 -6 -5 -4 3 -21 -1 -38 -10 -17 -10 -37 -16 -43 -15 -7 2 -13
-2 -13 -8 0 -5 -8 -10 -18 -10 -10 0 -26 -6 -37 -13 -11 -7 -38 -19 -60 -26
-22 -8 -56 -21 -75 -29 -19 -9 -38 -15 -42 -14 -5 1 -8 -2 -8 -6 0 -4 -10 -8
-21 -9 -12 -1 -29 -9 -38 -17 -10 -9 -27 -16 -39 -16 -12 0 -22 -4 -22 -8 0
-4 -10 -8 -22 -9 -11 -1 -24 -7 -28 -13 -4 -7 -10 -11 -14 -10 -4 1 -16 0 -27
-3 -10 -3 -22 -5 -26 -5 -3 0 -9 -5 -12 -10 -3 -5 -31 -18 -61 -30 -30 -11
-68 -26 -85 -33 -16 -7 -32 -13 -35 -14 -6 -2 -60 -24 -80 -32 -8 -3 -18 -5
-22 -5 -5 1 -8 -2 -8 -8 0 -5 -8 -10 -18 -10 -10 0 -28 -7 -40 -16 -12 -8 -22
-13 -22 -9 0 3 -13 -1 -29 -9 -16 -9 -31 -12 -35 -9 -3 4 -6 1 -6 -5 0 -7 -3
-11 -7 -10 -5 1 -18 -3 -29 -10 -12 -6 -24 -8 -28 -5 -3 3 -6 1 -6 -6 0 -8 -7
-11 -15 -7 -8 3 -15 1 -15 -4 0 -6 -5 -10 -10 -10 -6 0 -27 -7 -48 -17 -20 -9
-43 -15 -49 -14 -7 1 -13 -2 -13 -7 0 -8 -100 -48 -112 -44 -5 1 -8 -2 -8 -8
0 -6 -3 -9 -7 -8 -5 1 -18 -3 -29 -10 -12 -6 -24 -8 -28 -5 -3 3 -6 1 -6 -5 0
-7 -8 -12 -17 -12 -10 -1 -36 -9 -58 -20 -22 -11 -46 -19 -52 -20 -7 0 -13 -4
-13 -10 0 -5 -7 -7 -15 -4 -8 4 -15 1 -15 -6 0 -7 -6 -10 -14 -7 -8 3 -20 -1
-26 -8 -7 -8 -16 -13 -20 -10 -5 3 -15 -1 -23 -9 -8 -8 -17 -13 -19 -11 -3 4
-74 -24 -213 -84 -27 -12 -89 -36 -95 -37 -31 -5 -67 -35 -57 -47 1 -2 -6 -11
-16 -21 -9 -10 -15 -22 -12 -27 4 -5 1 -9 -5 -9 -6 0 -9 -4 -5 -9 3 -5 1 -12
-5 -16 -6 -4 -8 -11 -5 -16 4 -5 1 -9 -4 -9 -6 0 -10 -3 -9 -7 1 -9 -14 -47
-39 -101 -9 -19 -16 -40 -16 -48 0 -8 -4 -14 -8 -14 -7 0 -24 -49 -21 -62 1
-5 -2 -8 -8 -8 -6 0 -9 -3 -8 -7 0 -5 -7 -26 -16 -48 -9 -22 -21 -49 -25 -60
-33 -80 -57 -130 -64 -133 -4 -2 -4 -8 -1 -13 3 -6 0 -16 -6 -24 -7 -8 -10
-15 -6 -15 4 0 -2 -12 -11 -27 -10 -15 -17 -27 -15 -28 3 0 -1 -13 -28 -80 -4
-11 -8 -24 -8 -29 0 -5 -4 -12 -9 -15 -14 -10 -34 -62 -28 -72 4 -5 1 -9 -6
-9 -7 0 -10 -3 -6 -6 3 -3 -3 -15 -13 -27 -11 -11 -17 -24 -14 -28 2 -5 -4
-26 -15 -47 -11 -22 -17 -42 -14 -46 4 -3 1 -6 -5 -6 -7 0 -11 -3 -10 -7 1 -8
-8 -31 -40 -106 -21 -47 -30 -70 -29 -77 0 -3 -6 -16 -13 -30 -8 -14 -15 -27
-16 -30 -1 -3 -5 -15 -9 -27 -4 -13 -12 -23 -18 -23 -6 0 -8 -3 -4 -6 3 -4 -1
-23 -9 -43 -9 -20 -17 -40 -18 -46 -1 -5 -7 -20 -14 -31 -6 -12 -8 -24 -5 -28
3 -3 1 -6 -5 -6 -7 0 -12 -4 -12 -9 0 -5 -7 -25 -15 -45 -8 -20 -14 -37 -13
-38 1 -2 -5 -16 -14 -33 -21 -40 -43 -98 -40 -107 1 -5 -2 -8 -7 -8 -5 0 -12
-13 -16 -30 -4 -16 -11 -30 -16 -30 -6 0 -8 -4 -4 -9 3 -5 1 -12 -5 -16 -6 -4
-8 -10 -5 -15 3 -5 -1 -15 -9 -23 -8 -8 -13 -17 -10 -20 3 -3 -2 -16 -10 -29
-9 -14 -13 -28 -9 -31 3 -4 1 -7 -6 -7 -7 0 -10 -4 -6 -9 3 -5 1 -12 -5 -16
-6 -4 -8 -11 -5 -16 4 -5 1 -9 -4 -9 -6 0 -10 -3 -9 -7 1 -9 -10 -37 -43 -110
-12 -26 -22 -52 -23 -58 -1 -5 -7 -20 -14 -31 -6 -12 -8 -24 -5 -28 3 -3 1 -6
-5 -6 -6 0 -14 -15 -17 -32 -4 -18 -14 -41 -23 -50 -8 -10 -12 -18 -9 -18 3 0
-3 -20 -14 -45 -11 -25 -17 -50 -13 -57 4 -6 3 -8 -3 -5 -9 6 -25 -22 -38 -65
-1 -5 -4 -10 -5 -13 -1 -3 -3 -8 -5 -12 -1 -5 -7 -21 -13 -36 -7 -16 -12 -32
-12 -36 0 -5 -7 -14 -15 -21 -8 -7 -15 -23 -15 -36 0 -12 -5 -26 -10 -29 -6
-4 -8 -11 -5 -16 4 -5 2 -9 -3 -9 -6 0 -16 -20 -23 -45 -7 -25 -17 -45 -22
-45 -4 0 -6 -4 -3 -8 3 -5 -3 -25 -14 -44 -10 -20 -16 -39 -13 -42 4 -3 1 -6
-5 -6 -7 0 -11 -3 -10 -7 2 -10 -10 -41 -28 -75 -8 -16 -13 -28 -9 -28 3 0 -2
-11 -11 -25 -9 -14 -13 -25 -9 -25 4 0 2 -7 -5 -15 -7 -8 -9 -15 -4 -15 4 0
-1 -7 -12 -15 -10 -8 -16 -15 -12 -15 4 0 -4 -24 -17 -54 -13 -30 -21 -57 -18
-60 4 -3 1 -6 -6 -6 -7 0 -9 -4 -6 -10 3 -5 1 -10 -4 -10 -6 0 -10 -3 -9 -7 1
-9 -5 -26 -35 -93 -11 -25 -20 -51 -20 -57 0 -7 -4 -13 -9 -13 -5 0 -6 -4 -3
-10 3 -6 1 -10 -5 -10 -6 0 -9 -4 -5 -9 3 -5 -1 -15 -8 -23 -8 -7 -12 -19 -9
-26 2 -6 -2 -12 -9 -12 -7 0 -10 -3 -6 -6 7 -7 -43 -126 -58 -136 -5 -4 -7 -8
-3 -8 4 0 1 -14 -6 -31 -16 -38 -11 -66 13 -74 10 -3 34 -20 54 -39 20 -18 39
-31 42 -28 3 3 5 0 5 -6 0 -7 7 -12 15 -12 9 0 18 -7 21 -15 4 -8 11 -15 16
-15 6 0 21 -11 34 -26 13 -14 24 -22 24 -19 0 3 12 -6 28 -20 15 -14 35 -28
45 -31 9 -3 15 -10 12 -15 -4 -5 0 -9 7 -9 8 0 27 -11 43 -25 30 -24 71 -56
135 -105 18 -14 39 -31 46 -37 7 -7 16 -13 20 -13 3 0 15 -10 25 -22 11 -11
19 -17 19 -13 0 4 11 -4 25 -19 13 -14 27 -26 30 -26 4 0 13 -6 20 -12 33 -30
45 -38 45 -32 0 3 9 -4 20 -17 10 -13 19 -21 20 -17 0 3 19 -11 42 -33 23 -21
44 -37 46 -34 2 2 14 -6 27 -18 33 -32 59 -53 67 -52 3 0 20 -15 37 -32 17
-18 31 -30 31 -27 0 3 27 -16 60 -42 33 -26 60 -51 60 -56 0 -5 5 -6 10 -3 6
3 10 1 10 -4 0 -6 7 -11 15 -11 9 0 18 -7 21 -15 4 -8 11 -15 16 -15 6 0 21
-11 34 -26 13 -14 24 -21 24 -17 0 4 4 3 8 -2 4 -6 27 -26 52 -45 25 -19 46
-38 48 -42 2 -5 10 -8 18 -8 8 0 14 -4 14 -10 0 -5 7 -10 16 -10 8 0 12 -4 9
-10 -3 -5 -1 -10 5 -10 12 0 32 -15 58 -42 9 -10 22 -18 28 -18 7 0 14 -3 16
-7 5 -14 96 -83 107 -83 6 0 11 -6 11 -14 0 -8 8 -17 19 -21 16 -5 30 -15 77
-54 7 -5 15 -7 18 -4 3 4 6 -1 6 -10 0 -8 9 -18 19 -22 10 -3 35 -21 55 -40
20 -18 36 -31 36 -27 0 3 13 -7 30 -23 16 -16 30 -26 30 -22 0 3 10 -4 23 -16
25 -23 39 -34 102 -82 22 -16 42 -33 43 -37 2 -5 8 -6 13 -2 5 3 9 -2 9 -11 0
-9 5 -13 10 -10 6 3 10 1 10 -4 0 -6 5 -11 10 -11 6 0 22 -10 36 -23 13 -12
34 -30 44 -40 11 -9 24 -17 30 -17 6 0 10 -4 10 -8 0 -4 12 -15 28 -24 15 -10
41 -28 57 -42 40 -34 43 -36 100 -79 68 -51 105 -80 120 -94 7 -7 15 -9 19 -6
3 4 6 -1 6 -11 0 -9 5 -14 10 -11 6 3 13 -1 16 -9 3 -9 10 -16 15 -16 10 0 25
-11 64 -48 14 -13 25 -20 25 -17 0 3 11 -4 25 -17 39 -37 55 -49 55 -43 0 4 6
0 13 -7 24 -23 98 -82 138 -109 21 -15 35 -29 32 -33 -4 -3 0 -6 9 -6 8 0 29
-13 46 -30 18 -16 36 -30 41 -30 6 0 17 -10 25 -22 9 -12 16 -19 16 -15 0 8
14 -3 55 -41 13 -12 28 -22 32 -22 4 0 23 -14 41 -31 17 -16 32 -26 32 -22 0
4 5 0 11 -10 5 -9 17 -17 25 -17 8 0 12 -5 9 -10 -3 -6 1 -10 9 -10 9 0 16 -4
16 -10 0 -5 7 -10 16 -10 8 0 12 -5 9 -11 -5 -7 36 -9 132 -6 138 4 157 6 181
20 6 5 12 5 12 0 0 -4 4 -2 9 5 4 7 14 14 22 16 8 1 31 10 53 19 21 9 40 17
43 17 2 0 25 9 50 21 25 11 53 21 63 22 10 1 17 4 15 7 -2 3 16 12 41 19 24 7
44 17 44 22 0 5 7 6 15 3 8 -4 15 -1 15 7 0 7 3 10 6 6 4 -3 23 2 43 12 20 11
41 20 46 21 6 2 26 10 45 18 19 9 37 16 40 16 3 1 24 8 45 18 44 18 66 25 79
26 5 0 12 4 15 9 3 4 21 14 39 21 17 6 47 18 65 25 17 6 35 17 39 22 4 6 8 7
8 3 0 -4 17 0 38 9 20 8 48 20 62 26 14 6 28 11 33 12 4 2 10 4 15 5 4 1 10 2
15 1 4 0 7 3 7 9 0 5 9 10 20 10 11 0 20 5 20 10 0 6 3 9 8 9 4 -1 10 0 15 1
4 1 10 3 15 5 10 2 62 23 87 34 80 36 202 84 212 84 7 0 13 4 13 9 0 4 9 8 20
8 11 0 20 5 20 11 0 5 4 7 10 4 5 -3 21 2 35 11 14 9 25 12 25 8 0 -5 4 -3 8
3 4 7 17 14 27 16 11 1 27 7 35 12 8 5 17 10 20 11 8 1 42 14 85 32 22 10 43
16 47 14 5 -1 8 2 8 8 0 6 3 9 8 8 4 -1 24 6 46 15 21 9 40 17 41 17 1 0 20 8
41 17 22 9 41 17 44 18 5 2 56 22 80 32 8 3 18 5 23 5 4 -1 7 3 7 9 0 5 4 8 9
4 5 -3 12 -1 16 5 3 5 16 10 27 10 12 0 29 7 39 16 9 8 26 16 38 17 11 1 21 5
21 9 0 4 8 8 18 8 10 0 26 6 37 14 11 7 23 14 28 15 17 3 29 6 57 18 14 6 77
32 140 58 63 26 131 54 150 62 80 33 74 26 116 128 9 22 22 54 29 70 7 17 20
50 30 75 10 25 27 65 38 90 35 82 49 115 57 135 14 32 24 69 22 78 -1 4 2 7 7
7 8 0 24 35 30 62 1 5 13 34 27 65 14 32 27 63 28 68 2 6 13 33 25 60 13 28
24 55 25 60 1 6 7 20 14 32 7 12 12 28 12 37 0 8 7 21 15 30 9 8 16 18 15 21
0 3 0 6 1 8 0 1 2 9 4 17 1 8 12 35 23 60 28 62 35 84 34 93 -1 4 3 7 9 7 6 0
9 6 6 14 -3 8 0 20 8 26 7 6 16 26 19 46 5 21 11 32 18 28 6 -4 8 -3 5 3 -3 5
1 23 9 39 9 16 15 29 14 29 -2 0 5 18 15 40 9 22 18 45 19 50 2 6 9 24 16 40
7 17 14 32 15 35 1 3 7 17 13 33 7 15 17 39 24 55 6 15 12 30 13 35 2 4 4 9 5
12 1 3 3 8 4 13 1 4 9 23 18 42 23 50 31 74 30 83 -1 4 3 7 8 7 6 0 10 8 10
18 0 9 9 34 20 55 11 20 20 42 20 49 0 6 8 20 18 31 9 11 11 17 5 13 -9 -5
-11 -2 -7 8 3 9 9 16 13 16 4 0 8 6 8 13 0 6 9 32 20 57 22 50 35 81 38 93 2
4 4 10 5 15 1 4 2 10 1 15 0 4 4 7 9 7 6 0 10 9 10 20 0 11 5 20 12 20 6 0 9
3 5 6 -3 4 0 19 8 34 8 15 11 30 8 34 -4 3 -1 6 5 6 7 0 12 8 12 18 0 10 7 27
15 38 8 10 15 26 15 34 0 8 9 32 19 52 11 19 17 39 14 42 -4 3 -1 6 6 6 7 0
11 6 8 14 -3 8 -1 16 4 18 5 2 11 13 12 26 0 12 5 22 9 22 4 0 8 5 8 11 0 5
10 31 21 57 12 25 22 51 23 57 1 5 7 20 14 32 7 12 12 29 12 37 0 9 5 16 10
16 6 0 10 9 10 19 0 11 5 23 10 26 6 4 8 10 5 15 -3 5 -1 11 5 15 5 3 10 15
10 26 0 10 4 19 10 19 5 0 9 3 9 8 -1 4 0 10 1 15 1 4 3 10 4 15 1 4 7 17 14
28 6 12 8 24 5 28 -3 3 -1 6 6 6 7 0 10 4 6 9 -3 5 -1 12 5 16 6 4 8 11 5 16
-4 5 -1 9 5 9 7 0 10 6 7 14 -3 8 1 17 9 20 9 3 13 10 10 14 -3 5 1 20 9 35 7
14 11 28 7 31 -3 3 0 6 7 6 8 0 11 7 7 15 -3 8 -1 15 4 15 9 0 36 69 32 83 -1
4 3 7 9 7 5 0 8 4 4 9 -3 5 -1 12 5 16 6 4 8 11 5 16 -4 5 -1 9 4 9 6 0 11 7
11 15 0 9 9 33 20 54 10 21 16 41 13 45 -4 3 -1 6 5 6 7 0 12 7 12 16 0 8 5
25 12 37 7 12 13 27 14 32 6 26 70 171 79 177 5 4 7 8 2 8 -4 0 -1 13 7 28 13
25 12 30 -5 52 -10 14 -19 22 -19 18 0 -8 -31 15 -61 46 -11 11 -19 17 -19 13
0 -4 -16 9 -37 28 -20 19 -39 33 -42 31 -10 -6 -30 21 -23 30 4 4 2 4 -4 1 -6
-3 -22 5 -37 19 -14 13 -31 24 -37 24 -5 0 -10 4 -10 8 0 5 -11 15 -25 22 -13
7 -22 18 -18 23 3 6 2 7 -4 4 -5 -3 -21 5 -35 18 -14 13 -29 21 -32 18 -3 -4
-6 1 -6 11 0 9 -4 15 -8 12 -5 -3 -20 6 -35 20 -14 13 -29 24 -33 24 -4 0 -17
11 -30 26 -13 14 -24 22 -24 18 0 -4 -9 3 -20 16 -11 13 -20 19 -20 14 0 -5
-6 -2 -13 6 -7 9 -28 27 -47 40 -48 33 -59 42 -78 63 -9 9 -21 17 -27 17 -6 0
-18 8 -27 18 -22 23 -46 42 -53 42 -5 0 -12 6 -69 57 -13 12 -27 19 -30 16 -3
-3 -8 2 -12 11 -3 9 -10 16 -16 16 -5 0 -23 13 -41 30 -18 16 -35 30 -39 30
-7 0 -43 28 -74 58 -7 6 -16 12 -21 12 -5 0 -16 8 -24 18 -9 9 -26 24 -38 32
-37 25 -74 54 -98 77 -13 13 -27 23 -31 23 -4 0 -16 9 -27 18 -11 10 -36 28
-55 42 -19 13 -45 34 -57 47 -12 13 -25 22 -27 21 -5 -3 -73 51 -102 80 -8 7
-14 10 -14 5 -1 -4 -10 3 -20 16 -11 13 -20 19 -20 15 0 -5 -4 -4 -8 1 -4 6
-27 26 -52 45 -25 19 -46 38 -48 42 -2 5 -10 8 -18 8 -8 0 -14 3 -14 8 0 4
-21 21 -45 37 -25 17 -45 34 -45 38 0 5 -4 5 -10 2 -5 -3 -10 1 -10 10 0 9 -4
14 -9 10 -5 -3 -17 5 -25 17 -9 12 -16 19 -16 15 0 -4 -12 4 -27 18 -15 14
-31 25 -34 25 -3 0 -17 10 -31 23 -44 38 -68 57 -68 51 0 -2 -11 5 -25 18 -36
34 -53 48 -60 48 -3 0 -20 13 -38 30 -18 16 -35 30 -39 30 -5 0 -16 8 -27 18
-10 9 -34 28 -52 42 -19 14 -44 35 -57 47 -12 13 -24 22 -26 20 -4 -3 -64 42
-93 70 -13 12 -23 19 -23 15 -1 -4 -10 4 -20 17 -11 13 -20 19 -20 15 -1 -5
-10 2 -20 15 -11 13 -20 20 -20 17 0 -4 -10 3 -22 14 -13 12 -35 29 -50 38
-16 9 -28 20 -28 24 0 4 -6 8 -13 8 -7 0 -18 9 -25 20 -7 12 -17 18 -22 15 -6
-3 -10 -2 -10 3 0 5 -21 24 -47 41 -27 17 -43 31 -38 31 11 0 -30 26 -57 36
-10 3 -18 10 -18 14 0 5 -28 29 -62 54 -35 25 -70 51 -78 58 -8 7 -32 26 -55
42 -22 16 -46 34 -52 40 -7 6 -23 19 -35 28 -13 9 -37 28 -54 42 -17 14 -34
23 -37 20 -3 -3 -8 4 -12 15 -3 12 -10 19 -14 17 -4 -3 -22 8 -39 24 -18 16
-32 26 -32 23 0 -4 -7 2 -15 13 -8 10 -15 15 -15 10 0 -4 -8 1 -17 13 -21 25
-56 34 -72 18z"/>
</g>
</svg>
