<svg width="101" height="100" viewBox="0 0 101 100" fill="none" xmlns="http://www.w3.org/2000/svg">
<g id="vuesax/bold/emoji-normal">
<g id="emoji-normal">
<path id="Vector" d="M67.7969 8.33203H32.8802C17.7135 8.33203 8.67188 17.3737 8.67188 32.5404V67.4154C8.67188 82.6237 17.7135 91.6654 32.8802 91.6654H67.7552C82.9219 91.6654 91.9635 82.6237 91.9635 67.457V32.5404C92.0052 17.3737 82.9635 8.33203 67.7969 8.33203ZM27.2969 32.1654C28.5052 30.957 30.5052 30.957 31.7135 32.1654C34.6719 35.1237 39.5052 35.1237 42.4635 32.1654C43.6719 30.957 45.6719 30.957 46.8802 32.1654C48.0885 33.3737 48.0885 35.3737 46.8802 36.582C44.1719 39.2904 40.6302 40.6237 37.0885 40.6237C33.5469 40.6237 30.0052 39.2904 27.2969 36.582C26.0885 35.332 26.0885 33.3737 27.2969 32.1654ZM50.3385 78.2487C39.1302 78.2487 30.0052 69.1237 30.0052 57.9154C30.0052 54.9987 32.3802 52.582 35.2969 52.582H65.2969C68.2135 52.582 70.5885 54.957 70.5885 57.9154C70.6719 69.1237 61.5469 78.2487 50.3385 78.2487ZM73.3802 36.582C70.6719 39.2904 67.1302 40.6237 63.5885 40.6237C60.0469 40.6237 56.5052 39.2904 53.7969 36.582C52.5885 35.3737 52.5885 33.3737 53.7969 32.1654C55.0052 30.957 57.0052 30.957 58.2135 32.1654C61.1719 35.1237 66.0052 35.1237 68.9635 32.1654C70.1719 30.957 72.1719 30.957 73.3802 32.1654C74.5885 33.3737 74.5885 35.332 73.3802 36.582Z" fill="#CC2127"/>
</g>
</g>
</svg>
