<svg width="25" height="24" viewBox="0 0 25 24" fill="none" xmlns="http://www.w3.org/2000/svg">
<path d="M19.9867 2H5.34675C3.87675 2 2.66675 3.21 2.66675 4.68V7.31C2.66675 8.79 3.87675 10 5.34675 10H19.9767C21.4567 10 22.6667 8.79 22.6667 7.32V4.68C22.6667 3.21 21.4568 2 19.9867 2ZM7.41675 7C7.41675 7.41 7.07675 7.75 6.66675 7.75C6.25675 7.75 5.91675 7.41 5.91675 7V5C5.91675 4.59 6.25675 4.25 6.66675 4.25C7.07675 4.25 7.41675 4.59 7.41675 5V7ZM11.4167 7C11.4167 7.41 11.0767 7.75 10.6667 7.75C10.2567 7.75 9.91675 7.41 9.91675 7V5C9.91675 4.59 10.2567 4.25 10.6667 4.25C11.0767 4.25 11.4167 4.59 11.4167 5V7ZM18.6667 6.75H14.6667C14.2567 6.75 13.9167 6.41 13.9167 6C13.9167 5.59 14.2567 5.25 14.6667 5.25H18.6667C19.0767 5.25 19.4167 5.59 19.4167 6C19.4167 6.41 19.0767 6.75 18.6667 6.75Z" fill="#0B1621"/>
<path d="M19.9867 14H5.34675C3.87675 14 2.66675 15.21 2.66675 16.68V19.31C2.66675 20.79 3.87675 22 5.34675 22H19.9767C21.4567 22 22.6567 20.79 22.6567 19.32V16.69C22.6667 15.21 21.4568 14 19.9867 14ZM7.41675 19C7.41675 19.41 7.07675 19.75 6.66675 19.75C6.25675 19.75 5.91675 19.41 5.91675 19V17C5.91675 16.59 6.25675 16.25 6.66675 16.25C7.07675 16.25 7.41675 16.59 7.41675 17V19ZM11.4167 19C11.4167 19.41 11.0767 19.75 10.6667 19.75C10.2567 19.75 9.91675 19.41 9.91675 19V17C9.91675 16.59 10.2567 16.25 10.6667 16.25C11.0767 16.25 11.4167 16.59 11.4167 17V19ZM18.6667 18.75H14.6667C14.2567 18.75 13.9167 18.41 13.9167 18C13.9167 17.59 14.2567 17.25 14.6667 17.25H18.6667C19.0767 17.25 19.4167 17.59 19.4167 18C19.4167 18.41 19.0767 18.75 18.6667 18.75Z" fill="#0B1621"/>
</svg>
