<svg width="101" height="100" viewBox="0 0 101 100" fill="none" xmlns="http://www.w3.org/2000/svg">
<g id="vuesax/bold/smileys">
<g id="smileys">
<path id="Vector" d="M42.3359 4.16797H17.3359C10.4193 4.16797 4.83594 9.7513 4.83594 16.668V41.668C4.83594 48.5846 10.4193 54.168 17.3359 54.168H36.0859C36.0859 43.8346 44.5026 35.418 54.8359 35.418V16.668C54.8359 9.7513 49.2526 4.16797 42.3359 4.16797ZM16.3776 17.793C19.5859 15.5013 23.9609 15.4596 27.2526 17.7096C28.6693 18.668 29.0443 20.6263 28.0859 22.043C27.1276 23.4596 25.1693 23.8346 23.7526 22.8763C22.6276 22.0846 21.0859 22.0846 19.9609 22.918C19.4193 23.293 18.7943 23.4596 18.1693 23.4596C17.2109 23.4596 16.2109 23.0013 15.6276 22.168C14.6276 20.7513 14.9609 18.793 16.3776 17.793ZM39.2943 34.3346C38.2109 35.7096 36.2526 35.918 34.9193 34.8346C33.4609 33.668 31.7109 33.043 29.8359 33.043C25.6693 33.043 22.2109 36.2096 21.7526 40.293H30.5026C32.2109 40.293 33.6276 41.7096 33.6276 43.418C33.6276 45.1263 32.2109 46.543 30.5026 46.543H20.8359C17.8776 46.543 15.4609 44.1263 15.4609 41.168C15.4609 33.2513 21.9193 26.793 29.8359 26.793C33.0859 26.793 36.2943 27.918 38.8359 29.9596C40.1693 31.043 40.3776 33.0013 39.2943 34.3346ZM44.7526 22.043C43.7943 23.4596 41.8359 23.8346 40.4193 22.8763C39.2943 22.0846 37.7526 22.0846 36.6276 22.918C36.0859 23.293 35.4609 23.4596 34.8359 23.4596C33.8776 23.4596 32.8776 23.0013 32.2943 22.168C31.2943 20.7513 31.6276 18.793 33.0443 17.793C36.2526 15.5013 40.6276 15.4596 43.9193 17.7096C45.3359 18.668 45.7109 20.6263 44.7526 22.043Z" fill="#CC2127"/>
<path id="Vector_2" d="M76.5918 69.5C76.3001 69.1667 75.8834 69 75.4251 69H59.2584C58.8001 69 58.3834 69.1667 58.0918 69.5C57.8001 69.8333 57.6334 70.2917 57.7168 70.7083C58.2584 75.625 62.3834 79.375 67.3418 79.375C72.3001 79.375 76.4251 75.6667 76.9668 70.7083C77.0084 70.25 76.8834 69.8333 76.5918 69.5Z" fill="#CC2127"/>
<path id="Vector_3" d="M79.8359 41.668H54.8359C47.9609 41.668 42.3359 47.293 42.3359 54.168V79.168C42.3359 86.043 47.9609 91.668 54.8359 91.668H79.8359C86.7109 91.668 92.3359 86.043 92.3359 79.168V54.168C92.3359 47.293 86.7109 41.668 79.8359 41.668ZM53.1276 54.8763C54.1276 53.4596 56.0859 53.1263 57.5026 54.1263C58.6276 54.918 60.1276 54.918 61.2526 54.168C62.6693 53.168 64.6276 53.543 65.5859 55.0013C66.5443 56.418 66.2109 58.3763 64.7526 59.3346C63.1276 60.418 61.2526 61.0013 59.3776 61.0013C57.4193 61.0013 55.5026 60.418 53.8776 59.2513C52.4609 58.2096 52.1276 56.2513 53.1276 54.8763ZM67.3359 84.043C59.4193 84.043 52.9609 77.5846 52.9609 69.668C52.9609 66.7096 55.3776 64.293 58.3359 64.293H76.3359C79.2943 64.293 81.7109 66.7096 81.7109 69.668C81.7109 77.5846 75.2526 84.043 67.3359 84.043ZM81.4193 59.293C79.7943 60.3763 77.9193 60.9596 76.0443 60.9596C74.0859 60.9596 72.1693 60.3763 70.5443 59.2096C69.1276 58.2096 68.7943 56.2513 69.7943 54.8346C70.7943 53.418 72.7526 53.0846 74.1693 54.0846C75.2943 54.8763 76.7943 54.8763 77.9193 54.1263C79.3359 53.1263 81.2943 53.5013 82.2526 54.9596C83.2109 56.418 82.8359 58.3346 81.4193 59.293Z" fill="#CC2127"/>
</g>
</g>
</svg>
