<svg width="64" height="64" viewBox="0 0 64 64" fill="none" xmlns="http://www.w3.org/2000/svg">
<g id="vuesax/bold/sms-notification">
<g id="sms-notification">
<path id="Vector" d="M52 21.3333C55.6819 21.3333 58.6667 18.3486 58.6667 14.6667C58.6667 10.9848 55.6819 8 52 8C48.3181 8 45.3334 10.9848 45.3334 14.6667C45.3334 18.3486 48.3181 21.3333 52 21.3333Z" fill="#292D32"/>
<path id="Vector_2" d="M52 21.3333C55.6819 21.3333 58.6667 18.3486 58.6667 14.6667C58.6667 10.9848 55.6819 8 52 8C48.3181 8 45.3334 10.9848 45.3334 14.6667C45.3334 18.3486 48.3181 21.3333 52 21.3333Z" fill="#292D32"/>
<path id="Vector_3" d="M55.2534 24.8266C53.3867 25.4133 51.3334 25.5199 49.2 24.9866C45.6267 24.0533 42.72 21.1999 41.7334 17.6266C41.2534 15.8933 41.2267 14.1866 41.52 12.6399C41.8667 10.9333 40.6667 9.33325 38.96 9.33325H18.6667C10.6667 9.33325 5.33337 13.3333 5.33337 22.6666V41.3333C5.33337 50.6666 10.6667 54.6666 18.6667 54.6666H45.3334C53.3334 54.6666 58.6667 50.6666 58.6667 41.3333V27.3599C58.6667 25.5999 56.96 24.2666 55.2534 24.8266ZM41.3867 29.7332L38.24 32.2399C36.48 33.6533 34.24 34.3466 32 34.3466C29.76 34.3466 27.4934 33.6533 25.76 32.2399L17.4134 25.5733C16.56 24.8799 16.4267 23.5999 17.0934 22.7466C17.7867 21.8933 19.04 21.7333 19.8934 22.4266L28.24 29.0933C30.2667 30.7199 33.7067 30.7199 35.7334 29.0933L38.88 26.5866C39.7334 25.8933 41.0134 26.0266 41.68 26.9066C42.3734 27.7599 42.24 29.0399 41.3867 29.7332Z" fill="#292D32"/>
</g>
</g>
</svg>
