<svg width="550" height="256" viewBox="0 0 550 256" fill="none" xmlns="http://www.w3.org/2000/svg">
<path d="M421.74 31.234L286.189 -61.6708C245.524 -89.5423 204.478 -87.7907 171.962 -40.3479L106.928 54.5377C74.4115 101.981 87.5859 140.894 128.251 168.766L263.802 261.67C304.467 289.542 345.513 287.79 378.03 240.347L443.063 145.462C475.58 98.0191 462.406 59.1055 421.74 31.234ZM371.532 118.151L305.878 122.96C292.008 124.012 278.206 119.732 266.82 111.928C255.434 104.124 246.328 92.703 242.441 79.48L223.24 16.5131C221.317 10.0158 225.099 3.04484 231.461 1.02983C237.958 -0.892272 244.886 2.66096 246.809 9.15824L266.01 72.1252C270.644 87.4545 288.13 99.4393 304.099 98.2314L369.753 93.423C376.506 92.8716 382.548 98.0088 382.871 104.805C383.422 111.558 378.285 117.6 371.532 118.151Z" fill="#F7F8FA"/>
</svg>
