<svg width="64" height="64" viewBox="0 0 64 64" fill="none" xmlns="http://www.w3.org/2000/svg">
<g clip-path="url(#clip0_1741_35968)">
<rect x="12" y="12" width="52" height="52" rx="6" fill="#F7F8FA"/>
<rect opacity="0.5" width="52" height="52" rx="6" fill="#F5D3D4"/>
<path d="M30.5193 16.9466L32.3993 20.7066C32.6526 21.2266 33.3326 21.72 33.9059 21.8266L37.3059 22.3866C39.4793 22.7466 39.9859 24.32 38.4259 25.8933L35.7726 28.5466C35.3326 28.9866 35.0793 29.8533 35.2259 30.48L35.9859 33.76C36.5859 36.3466 35.1993 37.36 32.9193 36L29.7326 34.1066C29.1593 33.76 28.1993 33.76 27.6259 34.1066L24.4393 36C22.1593 37.3466 20.7726 36.3466 21.3726 33.76L22.1326 30.48C22.2526 29.84 21.9993 28.9733 21.5593 28.5333L18.9059 25.88C17.3459 24.32 17.8526 22.7466 20.0259 22.3733L23.4259 21.8133C23.9993 21.72 24.6793 21.2133 24.9326 20.6933L26.8126 16.9333C27.8393 14.9066 29.4926 14.9066 30.5193 16.9466Z" fill="#CC2127"/>
<path d="M20.666 17.6667H12.666C12.1193 17.6667 11.666 17.2134 11.666 16.6667C11.666 16.12 12.1193 15.6667 12.666 15.6667H20.666C21.2127 15.6667 21.666 16.12 21.666 16.6667C21.666 17.2134 21.2127 17.6667 20.666 17.6667Z" fill="#CC2127"/>
<path d="M16.666 36.3333H12.666C12.1193 36.3333 11.666 35.88 11.666 35.3333C11.666 34.7866 12.1193 34.3333 12.666 34.3333H16.666C17.2127 34.3333 17.666 34.7866 17.666 35.3333C17.666 35.88 17.2127 36.3333 16.666 36.3333Z" fill="#CC2127"/>
<path d="M13.9993 27H12.666C12.1193 27 11.666 26.5467 11.666 26C11.666 25.4533 12.1193 25 12.666 25H13.9993C14.546 25 14.9993 25.4533 14.9993 26C14.9993 26.5467 14.546 27 13.9993 27Z" fill="#CC2127"/>
</g>
<defs>
<clipPath id="clip0_1741_35968">
<rect width="64" height="64" fill="white"/>
</clipPath>
</defs>
</svg>
