<svg width="25" height="24" viewBox="0 0 25 24" fill="none" xmlns="http://www.w3.org/2000/svg">
<path d="M18.392 2H7.24203C4.81203 2 2.83203 3.98 2.83203 6.41V12.91V13.11C2.83203 15.55 4.81203 17.52 7.24203 17.52H11.082C11.632 17.52 12.082 17.97 12.082 18.52V19.49C12.082 20.04 11.632 20.49 11.082 20.49H8.66203C8.25203 20.49 7.91203 20.83 7.91203 21.24C7.91203 21.65 8.24203 22 8.66203 22H17.012C17.422 22 17.762 21.66 17.762 21.25C17.762 20.84 17.422 20.5 17.012 20.5H14.592C14.042 20.5 13.592 20.05 13.592 19.5V18.53C13.592 17.98 14.042 17.53 14.592 17.53H18.402C20.842 17.53 22.812 15.55 22.812 13.12V12.92V6.42C22.802 3.98 20.822 2 18.392 2Z" fill="#0B1621"/>
</svg>
