<svg width="25" height="24" viewBox="0 0 25 24" fill="none" xmlns="http://www.w3.org/2000/svg">
<path d="M18.3933 2H7.24325C4.81325 2 2.83325 3.98 2.83325 6.41V12.91V13.11C2.83325 15.55 4.81325 17.52 7.24325 17.52H11.0833C11.6333 17.52 12.0833 17.97 12.0833 18.52V19.49C12.0833 20.04 11.6333 20.49 11.0833 20.49H8.66325C8.25325 20.49 7.91325 20.83 7.91325 21.24C7.91325 21.65 8.24325 22 8.66325 22H17.0133C17.4233 22 17.7633 21.66 17.7633 21.25C17.7633 20.84 17.4233 20.5 17.0133 20.5H14.5933C14.0433 20.5 13.5933 20.05 13.5933 19.5V18.53C13.5933 17.98 14.0433 17.53 14.5933 17.53H18.4033C20.8433 17.53 22.8133 15.55 22.8133 13.12V12.92V6.42C22.8033 3.98 20.8233 2 18.3933 2Z" fill="#0B1621"/>
</svg>
