<svg width="64" height="64" viewBox="0 0 64 64" fill="none" xmlns="http://www.w3.org/2000/svg">
<g clip-path="url(#clip0_1741_35937)">
<rect x="12" y="12" width="52" height="52" rx="6" fill="#F7F8FA"/>
<rect opacity="0.5" width="52" height="52" rx="6" fill="#F5D3D4"/>
<path d="M26.0026 40.3334C20.6693 40.3334 16.3359 36.5067 16.3359 31.8V26.8667C16.3359 26.32 16.7893 25.8667 17.3359 25.8667C17.8826 25.8667 18.3359 26.32 18.3359 26.8667C18.3359 30.36 21.6293 33 26.0026 33C30.3759 33 33.6693 30.36 33.6693 26.8667C33.6693 26.32 34.1226 25.8667 34.6693 25.8667C35.2159 25.8667 35.6693 26.32 35.6693 26.8667V31.8C35.6693 36.5067 31.3359 40.3334 26.0026 40.3334ZM18.3359 31.9467C18.4293 35.48 21.8293 38.3334 26.0026 38.3334C30.1759 38.3334 33.5759 35.48 33.6693 31.9467C31.9359 33.8267 29.1893 35 26.0026 35C22.8159 35 20.0826 33.8267 18.3359 31.9467Z" fill="#CC2127"/>
<path d="M26.0026 28.3334C22.3226 28.3334 19.0159 26.68 17.4026 24.0134C16.7093 22.88 16.3359 21.56 16.3359 20.2C16.3359 17.9067 17.3626 15.7467 19.2159 14.12C21.0293 12.5334 23.4426 11.6667 26.0026 11.6667C28.5626 11.6667 30.9626 12.5334 32.7893 14.1067C34.6426 15.7467 35.6693 17.9067 35.6693 20.2C35.6693 21.56 35.296 22.8667 34.6026 24.0134C32.9893 26.68 29.6826 28.3334 26.0026 28.3334ZM26.0026 13.6667C23.9226 13.6667 21.976 14.36 20.5226 15.64C19.1093 16.8667 18.3359 18.4934 18.3359 20.2C18.3359 21.2 18.6026 22.1334 19.1093 22.9734C20.3759 25.0534 23.0159 26.3334 26.0026 26.3334C28.9893 26.3334 31.6293 25.04 32.896 22.9734C33.416 22.1334 33.6693 21.2 33.6693 20.2C33.6693 18.4934 32.8959 16.8667 31.4693 15.6134C30.0159 14.36 28.0826 13.6667 26.0026 13.6667Z" fill="#CC2127"/>
<path d="M26.0026 35C20.4959 35 16.3359 31.5067 16.3359 26.8667V20.2C16.3359 15.4934 20.6693 11.6667 26.0026 11.6667C28.5626 11.6667 30.9626 12.5334 32.7893 14.1067C34.6426 15.7467 35.6693 17.9067 35.6693 20.2V26.8667C35.6693 31.5067 31.5093 35 26.0026 35ZM26.0026 13.6667C21.7759 13.6667 18.3359 16.6 18.3359 20.2V21.5334C18.3359 25.0267 21.6293 27.6667 26.0026 27.6667C30.3759 27.6667 33.6693 25.0267 33.6693 21.5334V20.2C33.6693 18.4934 32.8959 16.8667 31.4693 15.6134C30.0159 14.36 28.0826 13.6667 26.0026 13.6667Z" fill="#CC2127"/>
</g>
<defs>
<clipPath id="clip0_1741_35937">
<rect width="64" height="64" fill="white"/>
</clipPath>
</defs>
</svg>
