<svg width="65" height="64" viewBox="0 0 65 64" fill="none" xmlns="http://www.w3.org/2000/svg">
<g clip-path="url(#clip0_1_13566)">
<rect x="12.667" y="12" width="52" height="52" rx="6" fill="#F7F8FA"/>
<rect opacity="0.5" x="0.666992" width="52" height="52" rx="6" fill="#F5D3D4"/>
<path d="M33.4389 30.8535C34.3322 30.2669 35.5055 30.9069 35.5055 31.9735V33.6935C35.5055 35.3869 34.1855 37.2002 32.5989 37.7335L28.3455 39.1469C27.5989 39.4002 26.3855 39.4002 25.6522 39.1469L21.3989 37.7335C19.7989 37.2002 18.4922 35.3869 18.4922 33.6935V31.9602C18.4922 30.9069 19.6655 30.2669 20.5455 30.8402L23.2922 32.6269C24.3455 33.3335 25.6789 33.6802 27.0122 33.6802C28.3455 33.6802 29.6789 33.3335 30.7322 32.6269L33.4389 30.8535Z" fill="#CC2127"/>
<path d="M37.639 18.6136L29.6524 13.3736C28.2124 12.4269 25.839 12.4269 24.399 13.3736L16.3724 18.6136C13.799 20.2802 13.799 24.0536 16.3724 25.7336L18.5057 27.1202L24.399 30.9602C25.839 31.9069 28.2124 31.9069 29.6524 30.9602L35.5057 27.1202L37.3324 25.9202V30.0002C37.3324 30.5469 37.7857 31.0002 38.3324 31.0002C38.879 31.0002 39.3324 30.5469 39.3324 30.0002V23.4402C39.8657 21.7202 39.319 19.7202 37.639 18.6136Z" fill="#CC2127"/>
</g>
<defs>
<clipPath id="clip0_1_13566">
<rect width="64" height="64" fill="white" transform="translate(0.666992)"/>
</clipPath>
</defs>
</svg>
