<svg width="48" height="48" viewBox="0 0 48 48" fill="none" xmlns="http://www.w3.org/2000/svg">
<rect width="48" height="48" rx="24" fill="white"/>
<path d="M36.2674 18C35.4012 18.35 34.4674 18.58 33.4999 18.69C34.4899 18.16 35.2549 17.32 35.6149 16.31C34.6812 16.81 33.6462 17.16 32.5549 17.36C31.6662 16.5 30.4174 16 28.9999 16C26.3562 16 24.1962 17.92 24.1962 20.29C24.1962 20.63 24.2412 20.96 24.3199 21.27C20.3149 21.09 16.7487 19.38 14.3749 16.79C13.9587 17.42 13.7224 18.16 13.7224 18.94C13.7224 20.43 14.5662 21.75 15.8712 22.5C15.0724 22.5 14.3299 22.3 13.6774 22V22.03C13.6774 24.11 15.3424 25.85 17.5474 26.24C16.8395 26.4122 16.0963 26.4362 15.3762 26.31C15.6817 27.1625 16.2802 27.9084 17.0873 28.4429C17.8945 28.9775 18.8698 29.2737 19.8762 29.29C18.1703 30.4904 16.0557 31.1393 13.8799 31.13C13.4974 31.13 13.1149 31.11 12.7324 31.07C14.8699 32.29 17.4124 33 20.1349 33C28.9999 33 33.8712 26.46 33.8712 20.79C33.8712 20.6 33.8712 20.42 33.8599 20.23C34.8049 19.63 35.6149 18.87 36.2674 18Z" fill="#0B1621"/>
</svg>
