<svg width="25" height="24" viewBox="0 0 25 24" fill="none" xmlns="http://www.w3.org/2000/svg">
<path d="M16.3541 2H7.97406C4.33406 2 2.16406 4.17 2.16406 7.81V16.18C2.16406 19.83 4.33406 22 7.97406 22H16.3441C19.9841 22 22.1541 19.83 22.1541 16.19V7.81C22.1641 4.17 19.9941 2 16.3541 2ZM16.3641 18.25C15.2341 18.25 14.3141 17.33 14.3141 16.2C14.3141 15.54 14.6341 14.96 15.1241 14.58C14.7041 13.48 13.6541 12.72 12.4741 12.76L10.4141 12.77H10.4041C9.79406 12.77 9.21406 12.59 8.72406 12.28V14.3C9.48406 14.6 10.0241 15.34 10.0241 16.2C10.0241 17.33 9.10406 18.25 7.97406 18.25C6.84406 18.25 5.92406 17.33 5.92406 16.2C5.92406 15.33 6.46406 14.6 7.22406 14.3V9.95C6.46406 9.6 5.92406 8.84 5.92406 7.95C5.92406 6.74 6.91406 5.75 8.12406 5.75C9.33406 5.75 10.3241 6.74 10.3241 7.95C10.3241 8.93 9.67406 9.75 8.78406 10.04C8.98406 10.77 9.64406 11.28 10.4041 11.28C10.4041 11.28 10.4041 11.28 10.4141 11.28L12.4741 11.27C12.4841 11.27 12.4841 11.27 12.4941 11.27C14.3341 11.27 15.9841 12.44 16.5841 14.18C17.6141 14.29 18.4241 15.15 18.4241 16.21C18.4141 17.33 17.4941 18.25 16.3641 18.25Z" fill="#0B1621"/>
</svg>
