<svg width="64" height="64" viewBox="0 0 64 64" fill="none" xmlns="http://www.w3.org/2000/svg">
<g clip-path="url(#clip0_629_5693)">
<rect x="12" y="12" width="52" height="52" rx="6" fill="#F7F8FA"/>
<rect opacity="0.5" width="52" height="52" rx="6" fill="#F5D3D4"/>
<path d="M25.9974 12.6665C18.6374 12.6665 12.6641 18.6398 12.6641 25.9998C12.6641 33.3598 18.6374 39.3332 25.9974 39.3332C33.3574 39.3332 39.3307 33.3598 39.3307 25.9998C39.3307 18.6398 33.3574 12.6665 25.9974 12.6665ZM21.3707 27.9598C21.7574 28.3465 21.7574 28.9865 21.3707 29.3732C21.1707 29.5732 20.9174 29.6665 20.6641 29.6665C20.4107 29.6665 20.1574 29.5732 19.9574 29.3732L17.2907 26.7065C16.9041 26.3198 16.9041 25.6798 17.2907 25.2932L19.9574 22.6265C20.3441 22.2398 20.9841 22.2398 21.3707 22.6265C21.7574 23.0132 21.7574 23.6532 21.3707 24.0398L19.4107 25.9998L21.3707 27.9598ZM28.2507 23.2798L25.5841 29.5065C25.4241 29.8798 25.0507 30.1065 24.6641 30.1065C24.5307 30.1065 24.3974 30.0798 24.2774 30.0265C23.7707 29.8132 23.5307 29.2265 23.7574 28.7065L26.4241 22.4798C26.6374 21.9732 27.2241 21.7332 27.7307 21.9598C28.2374 22.1865 28.4641 22.7732 28.2507 23.2798ZM34.7041 26.7065L32.0374 29.3732C31.8374 29.5732 31.5841 29.6665 31.3307 29.6665C31.0774 29.6665 30.8241 29.5732 30.6241 29.3732C30.2374 28.9865 30.2374 28.3465 30.6241 27.9598L32.5841 25.9998L30.6241 24.0398C30.2374 23.6532 30.2374 23.0132 30.6241 22.6265C31.0107 22.2398 31.6507 22.2398 32.0374 22.6265L34.7041 25.2932C35.0907 25.6798 35.0907 26.3198 34.7041 26.7065Z" fill="#CC2127"/>
</g>
<defs>
<clipPath id="clip0_629_5693">
<rect width="64" height="64" fill="white"/>
</clipPath>
</defs>
</svg>
