<svg width="64" height="64" viewBox="0 0 64 64" fill="none" xmlns="http://www.w3.org/2000/svg">
<g clip-path="url(#clip0_783_1359)">
<rect opacity="0.05" x="12" y="12" width="52" height="52" rx="6" fill="white"/>
<rect width="52" height="52" rx="6" fill="#232D37"/>
<path d="M31.586 12.6667H20.4127C15.5593 12.6667 12.666 15.56 12.666 20.4133V31.5733C12.666 36.44 15.5593 39.3333 20.4127 39.3333H31.5727C36.426 39.3333 39.3193 36.44 39.3193 31.5867V20.4133C39.3327 15.56 36.4394 12.6667 31.586 12.6667ZM31.5993 34.3333C30.0927 34.3333 28.866 33.1067 28.866 31.6C28.866 30.72 29.2927 29.9467 29.946 29.44C29.386 27.9733 27.986 26.96 26.4127 27.0133L23.666 27.0267H23.6527C22.8393 27.0267 22.066 26.7867 21.4127 26.3733V29.0667C22.426 29.4667 23.146 30.4533 23.146 31.6C23.146 33.1067 21.9193 34.3333 20.4127 34.3333C18.906 34.3333 17.6793 33.1067 17.6793 31.6C17.6793 30.44 18.3993 29.4667 19.4127 29.0667V23.2667C18.3993 22.8 17.6793 21.7867 17.6793 20.6C17.6793 18.9867 18.9993 17.6667 20.6127 17.6667C22.226 17.6667 23.546 18.9867 23.546 20.6C23.546 21.9067 22.6793 23 21.4927 23.3867C21.7593 24.36 22.6393 25.04 23.6527 25.04C23.6527 25.04 23.6527 25.04 23.666 25.04L26.4127 25.0267C26.426 25.0267 26.426 25.0267 26.4393 25.0267C28.8927 25.0267 31.0927 26.5867 31.8927 28.9067C33.266 29.0533 34.346 30.2 34.346 31.6133C34.3327 33.1067 33.106 34.3333 31.5993 34.3333Z" fill="#CC2127"/>
</g>
<defs>
<clipPath id="clip0_783_1359">
<rect width="64" height="64" fill="white"/>
</clipPath>
</defs>
</svg>
