<svg width="25" height="24" viewBox="0 0 25 24" fill="none" xmlns="http://www.w3.org/2000/svg">
<path d="M16.3567 2H7.97675C4.33675 2 2.16675 4.17 2.16675 7.81V16.18C2.16675 19.83 4.33675 22 7.97675 22H16.3467C19.9867 22 22.1567 19.83 22.1567 16.19V7.81C22.1667 4.17 19.9967 2 16.3567 2ZM16.3667 18.25C15.2367 18.25 14.3167 17.33 14.3167 16.2C14.3167 15.54 14.6367 14.96 15.1267 14.58C14.7067 13.48 13.6567 12.72 12.4767 12.76L10.4167 12.77H10.4067C9.79675 12.77 9.21675 12.59 8.72675 12.28V14.3C9.48675 14.6 10.0267 15.34 10.0267 16.2C10.0267 17.33 9.10675 18.25 7.97675 18.25C6.84675 18.25 5.92675 17.33 5.92675 16.2C5.92675 15.33 6.46675 14.6 7.22675 14.3V9.95C6.46675 9.6 5.92675 8.84 5.92675 7.95C5.92675 6.74 6.91675 5.75 8.12675 5.75C9.33675 5.75 10.3267 6.74 10.3267 7.95C10.3267 8.93 9.67675 9.75 8.78675 10.04C8.98675 10.77 9.64675 11.28 10.4067 11.28C10.4067 11.28 10.4067 11.28 10.4167 11.28L12.4767 11.27C12.4867 11.27 12.4867 11.27 12.4967 11.27C14.3367 11.27 15.9867 12.44 16.5867 14.18C17.6167 14.29 18.4267 15.15 18.4267 16.21C18.4167 17.33 17.4967 18.25 16.3667 18.25Z" fill="#0B1621"/>
</svg>
