<svg width="64" height="64" viewBox="0 0 64 64" fill="none" xmlns="http://www.w3.org/2000/svg">
<path d="M20.6481 38.1313H7.53732C4.68 38.1313 2.35181 40.4595 2.35181 43.3169V50.9599V51.1951C2.35181 54.0642 4.68 56.3806 7.53732 56.3806H12.0526C12.6993 56.3806 13.2284 56.9097 13.2284 57.5564V58.697C13.2284 59.3437 12.6993 59.8729 12.0526 59.8729H9.20703C8.72493 59.8729 8.32514 60.2727 8.32514 60.7548C8.32514 61.2369 8.71317 61.6484 9.20703 61.6484H19.0254C19.5075 61.6484 19.9073 61.2486 19.9073 60.7665C19.9073 60.2844 19.5075 59.8846 19.0254 59.8846H16.1798C15.5331 59.8846 15.004 59.3555 15.004 58.7088V57.5682C15.004 56.9215 15.5331 56.3923 16.1798 56.3923H20.6598C23.5289 56.3923 25.8454 54.0642 25.8454 51.2068V50.9717V43.3286C25.8336 40.4595 23.5054 38.1313 20.6481 38.1313Z" fill="#0B1621"/>
<path d="M55.7693 62.5306H44.0108C43.5287 62.5306 43.1289 62.1308 43.1289 61.6487C43.1289 61.1666 43.5287 60.7668 44.0108 60.7668H55.7693C56.2514 60.7668 56.6512 61.1666 56.6512 61.6487C56.6512 62.1308 56.2514 62.5306 55.7693 62.5306Z" fill="#0B1621"/>
<path d="M56.9445 58.1204H42.8343C40.2356 58.1204 38.1309 56.0156 38.1309 53.417V42.8343C38.1309 40.2356 40.2356 38.1309 42.8343 38.1309H56.9445C59.5431 38.1309 61.6479 40.2356 61.6479 42.8343V53.417C61.6479 56.0156 59.5431 58.1204 56.9445 58.1204Z" fill="#0B1621"/>
<path d="M56.0752 46.4449H51.7481C51.266 46.4449 50.8662 46.0451 50.8662 45.563C50.8662 45.0809 51.266 44.6812 51.7481 44.6812H56.0752C56.5573 44.6812 56.9571 45.0809 56.9571 45.563C56.9571 46.0451 56.5691 46.4449 56.0752 46.4449Z" fill="white"/>
<path d="M47.5382 46.7384C46.8914 46.7384 46.3623 46.2093 46.3623 45.5626C46.3623 44.9159 46.8797 44.3867 47.5382 44.3867C48.1849 44.3867 48.714 44.9159 48.714 45.5626C48.714 46.2093 48.1966 46.7384 47.5382 46.7384Z" fill="white"/>
<path d="M43.8343 46.7384C43.1876 46.7384 42.6584 46.2093 42.6584 45.5626C42.6584 44.9159 43.1758 44.3867 43.8343 44.3867H43.8461C44.4928 44.3867 45.0219 44.9159 45.0219 45.5626C45.0219 46.2093 44.481 46.7384 43.8343 46.7384Z" fill="white"/>
<path d="M56.0746 53.253H43.7164C43.2343 53.253 42.8228 52.8532 42.8228 52.3711C42.8228 51.889 43.2108 51.4893 43.6929 51.4893H56.0746C56.5567 51.4893 56.9565 51.889 56.9565 52.3711C56.9565 52.8532 56.5685 53.253 56.0746 53.253Z" fill="white"/>
<path d="M14.1104 35.0237V19.6537C14.1104 16.5922 16.5922 14.1104 19.6537 14.1104V14.1104M49.6379 35.0237V19.1497C49.6379 16.3666 47.3817 14.1104 44.5985 14.1104V14.1104" stroke="#0B1621" stroke-linecap="round" stroke-dasharray="4 4"/>
<path d="M37.2381 2.35132H27.2669C24.0216 2.35132 22.8457 3.52717 22.8457 6.83132V21.3884C22.8457 24.6925 24.0216 25.8684 27.2669 25.8684H37.2264C40.4835 25.8684 41.6594 24.6925 41.6594 21.3884V6.83132C41.6594 3.52717 40.4835 2.35132 37.2381 2.35132Z" fill="#0B1621"/>
<path d="M34.6041 7.34947H29.9007C29.4186 7.34947 29.0188 6.94968 29.0188 6.46758C29.0188 5.98548 29.4186 5.58569 29.9007 5.58569H34.6041C35.0862 5.58569 35.486 5.98548 35.486 6.46758C35.486 6.94968 35.0862 7.34947 34.6041 7.34947Z" fill="white"/>
<path d="M32.2518 22.6943C33.3883 22.6943 34.3096 21.7731 34.3096 20.6366C34.3096 19.5001 33.3883 18.5789 32.2518 18.5789C31.1154 18.5789 30.1941 19.5001 30.1941 20.6366C30.1941 21.7731 31.1154 22.6943 32.2518 22.6943Z" fill="white"/>
</svg>
