<svg width="17" height="16" viewBox="0 0 17 16" fill="none" xmlns="http://www.w3.org/2000/svg">
<g id="icon/success / wrong">
<path id="Vector" d="M14.9876 12L9.65426 2.66665C9.53797 2.46146 9.36933 2.29078 9.16555 2.17203C8.96176 2.05329 8.73012 1.99072 8.49426 1.99072C8.2584 1.99072 8.02677 2.05329 7.82298 2.17203C7.61919 2.29078 7.45055 2.46146 7.33426 2.66665L2.00093 12C1.88338 12.2036 1.82175 12.4346 1.82227 12.6697C1.82279 12.9047 1.88545 13.1355 2.00389 13.3385C2.12234 13.5416 2.29236 13.7097 2.49673 13.8259C2.70109 13.942 2.93253 14.0021 3.1676 14H13.8343C14.0682 13.9997 14.2979 13.938 14.5005 13.8208C14.703 13.7037 14.8711 13.5354 14.9879 13.3327C15.1048 13.1301 15.1663 12.9002 15.1662 12.6663C15.1662 12.4324 15.1046 12.2026 14.9876 12Z" stroke="#FB3640" stroke-width="1.5" stroke-linecap="round" stroke-linejoin="round"/>
<path id="Vector_2" d="M8.5 6V8.66667" stroke="#FB3640" stroke-width="1.5" stroke-linecap="round" stroke-linejoin="round"/>
<path id="Vector_3" d="M8.5 11.3333H8.50667" stroke="#FB3640" stroke-width="1.5" stroke-linecap="round" stroke-linejoin="round"/>
</g>
</svg>
