<svg width="64" height="64" viewBox="0 0 64 64" fill="none" xmlns="http://www.w3.org/2000/svg">
<g clip-path="url(#clip0_1744_47647)">
<rect x="12" y="12" width="52" height="52" rx="6" fill="#F7F8FA"/>
<rect opacity="0.5" width="52" height="52" rx="6" fill="#F5D3D4"/>
<path d="M27.6667 26C28.5871 26 29.3333 25.2538 29.3333 24.3333C29.3333 23.4129 28.5871 22.6667 27.6667 22.6667C26.7462 22.6667 26 23.4129 26 24.3333C26 25.2538 26.7462 26 27.6667 26Z" fill="#CC2127"/>
<path d="M31.588 12.6667H20.4146C15.5613 12.6667 12.668 15.56 12.668 20.4133V31.5733C12.668 36.44 15.5613 39.3333 20.4146 39.3333H31.5746C36.428 39.3333 39.3213 36.44 39.3213 31.5867V20.4133C39.3346 15.56 36.4413 12.6667 31.588 12.6667ZM31.188 27.96C29.8146 29.32 27.8546 29.7467 26.1213 29.2L24.708 30.6C24.588 30.72 24.3746 30.72 24.2413 30.6L22.948 29.3067C22.7613 29.12 22.4413 29.12 22.2413 29.3067C22.0413 29.4933 22.0546 29.8133 22.2413 30.0133L23.5346 31.3067C23.668 31.44 23.668 31.6533 23.5346 31.7733L22.988 32.32C22.7613 32.56 22.3213 32.7067 22.0013 32.6667L20.548 32.4667C20.068 32.4 19.628 31.9467 19.548 31.4667L19.348 30.0133C19.2946 29.6933 19.4546 29.2533 19.668 29.0267L22.8013 25.8933C22.268 24.16 22.6813 22.2 24.0546 20.8267C26.0146 18.8667 29.2146 18.8667 31.188 20.8267C33.1613 22.7867 33.1613 25.9867 31.188 27.96Z" fill="#CC2127"/>
</g>
<defs>
<clipPath id="clip0_1744_47647">
<rect width="64" height="64" fill="white"/>
</clipPath>
</defs>
</svg>
